<?xml version="1.0" encoding="utf-8"?>
<!-- Generator: Adobe Illustrator 26.2.1, SVG Export Plug-In . SVG Version: 6.00 Build 0)  -->
<svg version="1.1" id="Layer_1" xmlns="http://www.w3.org/2000/svg" xmlns:xlink="http://www.w3.org/1999/xlink" x="0px" y="0px"
	 viewBox="0 0 329.6 329.6" enable-background="new 0 0 329.6 329.6" xml:space="preserve">
<g>
	<g>
		<g>
			<g>
				<path fill="#FFA900" d="M-279.1,4248.3c-8.2,0-15.4-1-21.8-2.9c-6.3-1.9-11.7-4.7-16.1-8.3c-4.4-3.6-7.8-8.1-10.1-13.3
					c-2.3-5.3-3.5-11.2-3.5-17.9c0-5.2,0.7-10.7,2.1-16.6c1.4-5.8,3.4-11.6,5.9-17.4l7.6,2.5c-2.3,5-4.1,10-5.4,15.1
					c-1.4,5.1-2,9.9-2,14.3c0,10.7,3.5,18.9,10.5,24.8c7,5.9,16.7,8.8,29.3,8.8h7.1c13.6,0,24.3-2.6,32.2-7.8
					c7.9-5.2,12.3-12.6,13.2-22.3l-37.6-4.9V4192l24,3.2c3.3,0.5,6.9,1,10.8,1.3c3.9,0.3,7.1,0.5,9.6,0.5v4.9l1.5,1.7
					c0,7-1.3,13.3-3.9,18.8c-2.6,5.5-6.3,10.2-11.2,14.1c-4.9,3.9-10.9,6.8-18,8.8C-262.1,4247.3-270.1,4248.3-279.1,4248.3z
					 M-290.6,4282.3c-1.8,0-3.3-0.5-4.3-1.6c-1.1-1.1-1.6-2.7-1.6-5c0-2.3,0.5-3.9,1.6-4.9c1.1-1,2.5-1.5,4.3-1.5h1.4
					c1.8,0,3.3,0.5,4.3,1.5c1.1,1,1.6,2.7,1.6,4.9c0,2.3-0.5,3.9-1.6,5c-1.1,1.1-2.5,1.6-4.3,1.6H-290.6z M-268.9,4282.3
					c-1.8,0-3.3-0.5-4.3-1.6c-1.1-1.1-1.6-2.7-1.6-5c0-2.3,0.5-3.9,1.6-4.9c1.1-1,2.5-1.5,4.3-1.5h1.4c1.8,0,3.3,0.5,4.3,1.5
					c1.1,1,1.6,2.7,1.6,4.9c0,2.3-0.5,3.9-1.6,5c-1.1,1.1-2.5,1.6-4.3,1.6H-268.9z"/>
				<path fill="#FFA900" d="M-226,4199.8l2.7-2.7h4.2c4.9,0,9.5-0.2,13.8-0.7c4.3-0.5,8.7-1.3,13.1-2.5c4.4-1.2,9.1-2.9,13.9-5
					c4.9-2.2,10.3-4.9,16.3-8.3l19.2-11v-0.5l-24-5.6l-41.1-10.7v14.8h-8.7v-13.1c0-3.4,1-6,2.9-7.9c1.9-1.9,4.4-2.8,7.3-2.8
					c0.9,0,2.1,0.1,3.5,0.3c1.4,0.2,3.6,0.7,6.5,1.4l46.2,12.1c5.6,1.5,10.3,2.5,14.4,3.1c4,0.6,7.5,0.9,10.5,0.9h4.1v10.4H-133v7
					c0,6.8,1.3,11.5,3.9,14.2c2.6,2.7,6.9,4,12.9,4h4.9v7.7l-2.7,2.7c-5,0-9.2-0.5-12.5-1.4c-3.3-1-6.1-2.5-8.2-4.7
					c-2.1-2.2-3.6-5-4.5-8.5c-0.9-3.5-1.4-7.8-1.4-12.9v-3.2l-19,12.1c-6.7,4.2-12.6,7.5-17.8,9.9c-5.2,2.4-10,4.3-14.5,5.6
					c-4.5,1.3-9,2.2-13.3,2.5c-4.3,0.4-9,0.6-13.9,0.6h-7V4199.8z"/>
				<path fill="#FFA900" d="M-114,4199.8l2.7-2.7h3.2c6.5,0,11.2-1.5,14.1-4.4c2.9-2.9,4.4-7.6,4.4-13.9v-97.1h9v97.1
					c0,10-2.2,17.3-6.5,21.8c-4.4,4.6-11.4,6.9-21,6.9h-6V4199.8z"/>
				<path fill="#FFA900" d="M-53,4081.7h9v125.8h-9V4081.7z"/>
			</g>
		</g>
		<g>
			<g>
				<path fill="#FFA900" d="M-1744.7,4609c-13.8,0-24.6-3.7-32.3-11.2c-7.7-7.5-11.6-17.9-11.6-31.3c0-5.2,0.7-10.7,2.1-16.6
					c1.4-5.8,3.4-11.6,5.9-17.4l7.6,2.5c-2.3,5.1-4.1,10.3-5.4,15.6c-1.4,5.3-2,10.3-2,15c0,10.3,2.8,18.3,8.5,24
					c5.7,5.7,13.5,8.5,23.6,8.5h7.3c11.6,0,20-2.9,25.3-8.6c5.3-5.7,8-14.9,8-27.6v-119.5h9v115.4h22.1v7.7l-2.7,2.7h-19.7
					C-1700.9,4595.4-1716.1,4609-1744.7,4609z"/>
				<path fill="#FFA900" d="M-1679.2,4560.5l2.7-2.7h3.2c8,0,13.9-1.3,17.6-3.9c3.7-2.6,5.5-7,5.5-13.3c0-2.3-0.2-5.1-0.5-8.5
					c-0.3-3.4-0.9-7.8-1.7-13.1l-2.2-13.6l8.5-1.4l2,13.6c0.8,5.2,1.4,9.6,1.7,13.3c0.3,3.6,0.5,6.8,0.5,9.5
					c0,18.5-10.5,27.7-31.5,27.7h-6V4560.5z M-1669.4,4483.2h7l0.2-0.5c-1.2-1.2-2.2-2.7-2.9-4.5c-0.7-1.8-1-3.5-1-5.4
					c0-4.3,1.4-7.8,4.2-10.6c2.8-2.8,6.3-4.2,10.6-4.2c2.5,0,5,0.6,7.4,1.8c2.4,1.2,4.4,2.8,5.9,4.8l-4.8,5.6
					c-1-1.2-2.3-2.3-3.7-3.1c-1.5-0.8-3.1-1.2-4.8-1.2c-2.4,0-4.4,0.7-6,2.1c-1.6,1.4-2.5,3.1-2.5,5.2c0,2.8,1.2,5.1,3.6,6.8
					c2.4,1.7,5.6,2.5,9.5,2.5h10.7v8h-33.3V4483.2z"/>
				<path fill="#FFA900" d="M-1591.8,4568.2c-5.2,0-9.6-0.5-13.1-1.4c-3.5-0.9-6.4-2.4-8.6-4.5c-2.2-2.1-3.8-4.8-4.8-8.2
					c-1-3.4-1.4-7.5-1.4-12.4v-99.3h9v99.3c0,6,1.3,10.2,3.9,12.6c2.6,2.4,6.9,3.6,12.9,3.6h7.6v7.7l-2.7,2.7H-1591.8z"/>
				<path fill="#FFA900" d="M-1589,4560.5l2.7-2.7c5.1,0,9.8-0.2,14.1-0.5c4.3-0.3,8.8-1,13.6-1.9l0.2-0.7
					c-6.6-4.4-11.7-9.5-15.3-15.2c-3.6-5.7-5.4-12.2-5.4-19.5c0-4.6,0.7-9,2.2-13c1.5-4,3.5-7.5,6.2-10.5c2.7-3,5.8-5.4,9.5-7.1
					c3.7-1.8,7.7-2.6,12-2.6c4.3,0,8.3,0.9,11.9,2.6c3.6,1.8,6.8,4.1,9.4,7.1c2.7,3,4.7,6.5,6.2,10.5c1.5,4,2.2,8.4,2.2,13
					c0,7.3-1.8,13.7-5.4,19.5c-3.6,5.7-8.6,10.8-15.2,15.2l0.2,0.7c4.3,0.8,8.7,1.4,13.3,1.8c4.5,0.4,9.4,0.6,14.5,0.6v7.7l-2.7,2.7
					h-2c-12.1,0-22.9-2.6-32.3-7.8c-5.2,2.7-10.5,4.7-15.8,6c-5.3,1.2-11.2,1.9-17.7,1.9h-6.3V4560.5z M-1549.2,4551.5
					c6.5-3.6,11.6-8,15.5-13c3.9-5,5.8-10.9,5.8-17.4c0-7.1-1.8-12.9-5.5-17.3c-3.7-4.4-8.5-6.6-14.5-6.6h-2.4
					c-6,0-10.9,2.2-14.6,6.6s-5.6,10.2-5.6,17.3c0,6.7,2,12.6,5.9,17.6C-1560.8,4543.7-1555.6,4548-1549.2,4551.5z M-1561.1,4466
					c-1.8,0-3.3-0.5-4.3-1.6c-1.1-1.1-1.6-2.7-1.6-5c0-2.3,0.5-3.9,1.6-4.9c1.1-1,2.5-1.5,4.3-1.5h1.4c1.8,0,3.3,0.5,4.3,1.5
					c1.1,1,1.6,2.7,1.6,4.9c0,2.3-0.5,3.9-1.6,5c-1.1,1.1-2.5,1.6-4.3,1.6H-1561.1z M-1539.3,4466c-1.8,0-3.3-0.5-4.3-1.6
					c-1.1-1.1-1.6-2.7-1.6-5c0-2.3,0.5-3.9,1.6-4.9c1.1-1,2.5-1.5,4.3-1.5h1.4c1.8,0,3.3,0.5,4.3,1.5c1.1,1,1.6,2.7,1.6,4.9
					c0,2.3-0.5,3.9-1.6,5c-1.1,1.1-2.5,1.6-4.3,1.6H-1539.3z"/>
				<path fill="#FFA900" d="M-1514.8,4560.5l2.7-2.7h3.2c6.5,0,11.2-1.5,14.1-4.4c2.9-2.9,4.4-7.6,4.4-13.9v-97.1h9v97.1
					c0,10-2.2,17.3-6.5,21.8c-4.4,4.6-11.4,6.9-21,6.9h-6V4560.5z"/>
				<path fill="#FFA900" d="M-1453.8,4442.4h9v125.8h-9V4442.4z"/>
			</g>
		</g>
		<g>
			<g>
				<path fill="#FFA900" d="M-1020.8,4604.7c-3.2,0-5.7-0.9-7.6-2.7c-1.9-1.8-2.9-4.5-2.9-8v-13.1h8.5v13.4h30.3
					c6.5,0,11-0.7,13.6-2c2.6-1.4,3.9-3.6,3.9-6.8c0-1.6-0.2-3.2-0.7-4.9c-0.5-1.7-1.3-4.4-2.6-8l-17.3-48.1l8.8-3.2l18,50.5
					c1.6,4.5,3.1,8.2,4.4,11.1s2.7,5.2,4.2,6.9c1.4,1.7,2.9,2.9,4.5,3.6c1.6,0.7,3.5,1,5.6,1h3.2v7.7l-2.7,2.7
					c-5.7,0-10.1-1.1-13.3-3.3c-3.2-2.2-6-6.2-8.5-12h-0.9c-0.5,5.3-2.4,9.2-5.7,11.6c-3.3,2.4-8.2,3.7-14.7,3.7H-1020.8z"/>
				<path fill="#FFA900" d="M-949.5,4597l2.7-2.7h3.2c8,0,13.9-1.3,17.6-3.9c3.7-2.6,5.5-7,5.5-13.3c0-2.3-0.2-5.1-0.5-8.5
					s-0.9-7.8-1.7-13.1l-2.2-13.6l8.5-1.4l2,13.6c0.8,5.2,1.4,9.6,1.7,13.3c0.3,3.6,0.5,6.8,0.5,9.5c0,18.5-10.5,27.7-31.5,27.7h-6
					V4597z M-934.9,4638.7c-1.8,0-3.3-0.5-4.3-1.6c-1.1-1.1-1.6-2.8-1.6-5c0-2.3,0.5-3.9,1.6-4.9c1.1-1,2.5-1.5,4.3-1.5h1.4
					c1.8,0,3.3,0.5,4.3,1.5c1.1,1,1.6,2.7,1.6,4.9c0,2.3-0.5,3.9-1.6,5c-1.1,1.1-2.5,1.6-4.3,1.6H-934.9z M-913.2,4638.7
					c-1.8,0-3.3-0.5-4.3-1.6c-1.1-1.1-1.6-2.8-1.6-5c0-2.3,0.5-3.9,1.6-4.9c1.1-1,2.5-1.5,4.3-1.5h1.4c1.8,0,3.3,0.5,4.3,1.5
					c1.1,1,1.6,2.7,1.6,4.9c0,2.3-0.5,3.9-1.6,5c-1.1,1.1-2.5,1.6-4.3,1.6H-913.2z"/>
				<path fill="#FFA900" d="M-901.4,4635.1h5.4c6.6,0,12.1-0.9,16.6-2.8c4.5-1.9,8-4.4,10.6-7.7c2.6-3.3,4.5-7.2,5.6-11.6
					c1.1-4.5,1.7-9.3,1.7-14.5c0-3.2-0.1-6.6-0.4-10.3c-0.3-3.7-0.7-7.1-1.3-10.3l-3.6-20.6l8.7-1.7l2.5,16.8
					c0.6,3.6,1,7.3,1.4,11.1c0.4,3.7,0.7,7.4,0.9,10.9h15v7.7l-2.7,2.7h-12.4c-0.5,5.8-1.5,11.2-3.2,16.2c-1.7,5-4.2,9.3-7.6,13
					c-3.4,3.7-7.7,6.5-12.9,8.6c-5.2,2-11.5,3.1-18.9,3.1h-5.4V4635.1z"/>
				<path fill="#FFA900" d="M-806.7,4609.6c-1.6-0.9-3.1-1.7-4.5-2.3c-1.4-0.6-2.9-1.1-4.3-1.5c-1.5-0.4-3.1-0.7-4.8-0.9
					s-3.6-0.3-5.8-0.3h-14.8v-7.7l2.7-2.7h14.5v-115.4h9v116.5c4.2,0.8,8.6,2.5,13.1,5.1l9.7,5.6l-5.3,9L-806.7,4609.6z"/>
				<path fill="#FFA900" d="M-784.1,4478.9h9v125.8h-9V4478.9z"/>
			</g>
		</g>
		<g>
			<g>
				<path fill="#FFA900" d="M-325.2,5057.8h5.4c6.6,0,12.1-0.9,16.6-2.8c4.5-1.9,8-4.4,10.6-7.7c2.6-3.3,4.5-7.2,5.6-11.6
					c1.1-4.5,1.7-9.3,1.7-14.5c0-3.2-0.1-6.6-0.4-10.3c-0.3-3.7-0.7-7.1-1.3-10.3l-3.6-20.6l8.7-1.7l2.5,16.8c0.6,3.6,1,7.3,1.4,11
					c0.4,3.7,0.7,7.4,0.9,10.9h15v7.7l-2.7,2.7h-12.4c-0.5,5.8-1.5,11.2-3.2,16.2c-1.7,5-4.2,9.3-7.6,13c-3.4,3.7-7.7,6.5-12.9,8.6
					c-5.2,2-11.5,3.1-18.9,3.1h-5.4V5057.8z"/>
				<path fill="#FFA900" d="M-264.7,5019.8l2.7-2.7h3.2c8,0,13.9-1.3,17.6-3.9c3.7-2.6,5.5-7,5.5-13.3c0-2.3-0.2-5.1-0.5-8.5
					s-0.9-7.8-1.7-13.1l-2.2-13.6l8.5-1.4l2,13.6c0.8,5.2,1.4,9.6,1.7,13.3c0.3,3.6,0.5,6.8,0.5,9.5c0,18.5-10.5,27.7-31.4,27.7h-6
					V5019.8z M-239.2,5061.4c-1.8,0-3.3-0.5-4.3-1.6c-1.1-1.1-1.6-2.7-1.6-5c0-2.3,0.5-3.9,1.6-4.9c1.1-1,2.5-1.5,4.3-1.5h1.4
					c1.8,0,3.3,0.5,4.3,1.5c1.1,1,1.6,2.7,1.6,4.9c0,2.3-0.5,3.9-1.6,5c-1.1,1.1-2.5,1.6-4.3,1.6H-239.2z"/>
				<path fill="#FFA900" d="M-203.3,5027.4c-3.2,0-5.7-0.9-7.7-2.7c-1.9-1.8-2.9-4.5-2.9-8v-13.1h8.5v13.4h30.3c6.5,0,11-0.7,13.6-2
					c2.6-1.4,3.9-3.6,3.9-6.8c0-1.6-0.2-3.2-0.7-4.9c-0.5-1.7-1.3-4.4-2.5-8l-17.3-48.1l8.8-3.2l18,50.5c1.6,4.5,3.1,8.2,4.4,11.1
					c1.4,2.9,2.7,5.2,4.2,6.9c1.4,1.7,2.9,2.9,4.5,3.6c1.6,0.7,3.5,1,5.6,1h3.2v7.7l-2.7,2.7c-5.7,0-10.1-1.1-13.3-3.3
					c-3.2-2.2-6-6.2-8.5-12h-0.8c-0.5,5.3-2.4,9.2-5.7,11.6c-3.3,2.4-8.2,3.7-14.7,3.7H-203.3z"/>
				<path fill="#FFA900" d="M-97.9,5032.3c-1.6-0.9-3.1-1.7-4.5-2.3c-1.4-0.6-2.9-1.1-4.3-1.5c-1.5-0.4-3.1-0.7-4.8-0.9
					c-1.7-0.2-3.6-0.3-5.8-0.3h-14.8v-7.7l2.7-2.7h14.5v-115.4h9v116.5c4.2,0.8,8.6,2.5,13.1,5.1l9.7,5.6l-5.3,9L-97.9,5032.3z"/>
				<path fill="#FFA900" d="M-75.3,4901.6h9v125.8h-9V4901.6z"/>
			</g>
		</g>
		<g>
			<g>
				<path fill="#FFA900" d="M-349.2,5731.4c-13.8,0-24.6-3.7-32.3-11.2c-7.7-7.5-11.6-17.9-11.6-31.3c0-5.2,0.7-10.7,2.1-16.6
					c1.4-5.8,3.4-11.6,5.9-17.4l7.6,2.5c-2.3,5.1-4.1,10.3-5.4,15.6c-1.4,5.3-2,10.3-2,15c0,10.3,2.8,18.3,8.5,24
					c5.7,5.7,13.5,8.5,23.6,8.5h7.3c11.6,0,20-2.9,25.3-8.6c5.3-5.7,8-14.9,8-27.6v-119.5h9v115.4h22.1v7.7l-2.7,2.7h-19.7
					C-305.4,5717.8-320.7,5731.4-349.2,5731.4z"/>
				<path fill="#FFA900" d="M-134.9,5690.6c-4.9,0-8.9-0.5-12-1.6c-3.1-1.1-6.1-3.1-8.9-6c-6.2,5.1-15.7,7.7-28.4,7.7h-49
					c-7.4,0-13.1-1.3-17.3-4c-4.1-2.7-6.9-6.8-8.2-12.3h-0.7c-1.2,6-3.7,10.2-7.4,12.7c-3.7,2.4-9.4,3.7-17.1,3.7v-7.7l2.7-2.7h3.9
					c6.1,0,10.5-1.4,13.2-4.2c2.7-2.8,4-7.4,4-13.9v-13.9h8.5v13.9c0,8.8,2.8,14.4,8.5,16.8l8.8-14.8c4.4-7.5,8.8-13.8,13.3-19
					c4.4-5.2,8.9-9.4,13.5-12.7c4.6-3.2,9.2-5.6,13.9-7.1c4.7-1.5,9.6-2.2,14.7-2.2c10.7,0,18.9,3,24.7,8.9
					c5.8,5.9,8.8,14.3,8.8,24.9c0,7.7-1.5,14.1-4.4,19c2,1.6,4.2,2.7,6.5,3.2c2.3,0.6,5,0.8,8.3,0.8h2.7v7.7L-134.9,5690.6z
					 M-184.2,5680.2c9.9,0,17.4-1.8,22.6-5.4c5.2-3.6,7.8-9.2,7.8-16.7c0-7.9-2-14-6-18.2c-4-4.2-9.5-6.3-16.7-6.3h-4.6
					c-4.4,0-8.6,0.6-12.5,1.8s-7.7,3.1-11.5,5.7c-3.7,2.6-7.4,6.1-11.1,10.5c-3.6,4.4-7.4,9.7-11.4,15.9l-7.5,11.9l0.5,0.8H-184.2z"
					/>
				<path fill="#FFA900" d="M-134.9,5682.9l2.7-2.7c5.1,0,9.8-0.2,14.1-0.5c4.3-0.3,8.8-1,13.6-1.9l0.2-0.7
					c-6.6-4.4-11.7-9.5-15.3-15.2c-3.6-5.7-5.4-12.2-5.4-19.5c0-4.6,0.7-9,2.2-13c1.5-4,3.5-7.5,6.2-10.5c2.7-3,5.8-5.4,9.5-7.1
					c3.7-1.8,7.7-2.6,12-2.6c4.3,0,8.3,0.9,11.9,2.6c3.6,1.8,6.8,4.1,9.4,7.1c2.7,3,4.7,6.5,6.2,10.5c1.5,4,2.2,8.4,2.2,13
					c0,7.3-1.8,13.7-5.4,19.5c-3.6,5.7-8.6,10.8-15.2,15.2l0.2,0.7c4.3,0.8,8.7,1.4,13.3,1.8c4.5,0.4,9.3,0.6,14.5,0.6v7.7l-2.7,2.7
					h-2c-12.1,0-22.9-2.6-32.3-7.8c-5.2,2.7-10.5,4.7-15.8,6c-5.3,1.2-11.2,1.9-17.7,1.9h-6.3V5682.9z M-95.1,5673.9
					c6.5-3.6,11.6-8,15.5-13c3.9-5,5.8-10.9,5.8-17.4c0-7.1-1.8-12.9-5.5-17.3c-3.7-4.4-8.5-6.6-14.5-6.6h-2.4
					c-6,0-10.9,2.2-14.6,6.6s-5.6,10.2-5.6,17.3c0,6.7,2,12.6,5.9,17.6C-106.7,5666.1-101.5,5670.4-95.1,5673.9z M-95.8,5588.4
					c-1.8,0-3.3-0.5-4.3-1.6c-1.1-1.1-1.6-2.7-1.6-5c0-2.3,0.5-3.9,1.6-4.9c1.1-1,2.5-1.5,4.3-1.5h1.4c1.8,0,3.3,0.5,4.3,1.5
					c1.1,1,1.6,2.7,1.6,4.9c0,2.3-0.5,3.9-1.6,5c-1.1,1.1-2.5,1.6-4.3,1.6H-95.8z"/>
				<path fill="#FFA900" d="M-26.6,5695.5c-1.6-0.9-3.1-1.7-4.5-2.3c-1.4-0.6-2.9-1.1-4.3-1.5c-1.5-0.4-3.1-0.7-4.8-0.9
					c-1.7-0.2-3.6-0.3-5.8-0.3h-14.8v-7.7l2.7-2.7h14.5v-115.4h9v116.5c4.2,0.8,8.6,2.5,13.1,5.1l9.7,5.6l-5.3,9L-26.6,5695.5z"/>
				<path fill="#FFA900" d="M-4,5564.8h9v125.8h-9V5564.8z"/>
			</g>
		</g>
		<g>
			<g>
				<path fill="#FFA900" d="M-214.1,8432.3c-14.7,0-26.2-3.7-34.3-11.2c-8.1-7.5-12.2-17.9-12.2-31.3c0-5.2,0.7-10.7,2.1-16.6
					c1.4-5.8,3.4-11.6,5.9-17.4l7.7,2.6c-2.3,5-4.1,10-5.4,15.1c-1.4,5.1-2,9.9-2,14.3c0,10.7,3,18.9,9.1,24.8
					c6.1,5.9,14.6,8.8,25.6,8.8h7.1c25.6,0,38.4-11.4,38.4-34.3c0-1.5-0.1-3.1-0.2-4.8c-0.1-1.7-0.3-3.6-0.5-5.8
					c-0.2-2.2-0.6-4.7-1.1-7.7c-0.5-2.9-1.2-6.5-2-10.5l-1.5-7.5l8.5-1.7l1.5,7.5c1.2,6.1,2.1,11.1,2.6,14.9c0.5,3.8,0.7,7,0.8,9.6
					h0.7l9.5-16c4.4-7.5,8.8-13.8,13.3-19c4.4-5.2,8.9-9.4,13.5-12.7c4.6-3.2,9.3-5.6,14-7.1c4.8-1.5,9.7-2.2,14.8-2.2
					c10.7,0,18.9,3,24.7,8.9c5.8,5.9,8.8,14.3,8.8,24.9c0,11.7-3.3,20.2-9.9,25.5c-6.6,5.3-16.3,8-29.2,8H-164
					C-165.6,8418.7-182.3,8432.3-214.1,8432.3z M-103.8,8381.2c10,0,17.6-1.8,22.8-5.4c5.2-3.6,7.8-9.2,7.8-16.7c0-7.9-2-14-6-18.2
					c-4-4.2-9.6-6.3-16.8-6.3h-4.4c-4.4,0-8.6,0.6-12.6,1.8c-4,1.2-7.8,3.1-11.5,5.7c-3.7,2.6-7.4,6.1-11.1,10.5
					c-3.7,4.4-7.5,9.7-11.3,15.9l-7.5,11.9l0.5,0.8H-103.8z M-104.7,8303.5c-1.8,0-3.3-0.5-4.3-1.6c-1.1-1.1-1.6-2.7-1.6-5
					c0-2.3,0.5-3.9,1.6-4.9c1.1-1,2.5-1.5,4.3-1.5h1.4c1.8,0,3.3,0.5,4.3,1.5c1.1,1,1.6,2.7,1.6,4.9c0,2.3-0.5,3.9-1.6,5
					c-1.1,1.1-2.5,1.6-4.3,1.6H-104.7z"/>
				<path fill="#FFA900" d="M-67.8,8422h5.4c6.6,0,12.1-0.9,16.6-2.8c4.5-1.9,8-4.4,10.6-7.7c2.6-3.3,4.5-7.2,5.6-11.6
					c1.1-4.5,1.7-9.3,1.7-14.5c0-3.2-0.1-6.6-0.4-10.3c-0.3-3.7-0.7-7.1-1.3-10.3l-3.6-20.6l8.7-1.7l2.5,16.8
					c0.8,4.4,1.4,8.9,1.8,13.3c0.4,4.5,0.6,8.8,0.6,12.8c0,6.6-0.7,12.7-2.2,18.4c-1.5,5.7-3.9,10.7-7.2,14.9
					c-3.3,4.2-7.7,7.5-13.2,9.9c-5.4,2.4-12.2,3.7-20.2,3.7h-5.4V8422z"/>
				<path fill="#FFA900" d="M-10.8,8265.4h7l0.2-0.5c-1.2-1.2-2.2-2.7-2.9-4.5c-0.7-1.8-1-3.5-1-5.4c0-4.3,1.4-7.8,4.2-10.6
					c2.8-2.8,6.3-4.2,10.6-4.2c2.5,0,5,0.6,7.4,1.8c2.4,1.2,4.4,2.8,5.9,4.8l-4.8,5.6c-1-1.2-2.3-2.3-3.7-3.1
					c-1.5-0.8-3.1-1.2-4.8-1.2c-2.4,0-4.4,0.7-6,2.1c-1.6,1.4-2.5,3.1-2.5,5.2c0,2.8,1.2,5.1,3.6,6.8c2.4,1.7,5.6,2.6,9.5,2.6h10.7
					v8h-33.3V8265.4z M1.3,8286.5h9v105.1h-9V8286.5z"/>
				<path fill="#FFA900" d="M-318.1,8592h5.4c6.6,0,12.1-0.9,16.6-2.8c4.5-1.9,8-4.4,10.6-7.7c2.6-3.3,4.5-7.2,5.6-11.6
					c1.1-4.5,1.7-9.3,1.7-14.5c0-3.2-0.1-6.6-0.4-10.3c-0.3-3.7-0.7-7.1-1.3-10.3l-2.7-15.5l48.1-6.8v22.1
					c0,12.5,5.9,18.7,17.7,18.7c6.1,0,10.6-1.4,13.3-4.3c2.8-2.9,4.2-7.9,4.2-15v-14.6h8.7v14.6c0,6.7,1,11.6,3,14.7
					c2,3.1,5.4,4.7,10.3,4.7h3.1c4.5,0,7.9-1.6,10-4.7c2.2-3.1,3.2-8,3.2-14.7v-21.4h8.7v21.4c0,5.9,1.4,10.3,4.2,13.1
					c2.8,2.8,7.2,4.2,13.2,4.2h5.1v7.7l-2.7,2.7c-7.5,0-13.3-1.2-17.6-3.5c-4.2-2.3-7.2-6-8.8-11.1h-0.7c-0.9,5.8-2.8,10-5.7,12.7
					c-2.9,2.7-6.9,4-12.2,4c-5.8,0-10.3-1.4-13.6-4.3c-3.3-2.9-5.5-7-6.6-12.3h-0.7c-2.2,11.1-9,16.7-20.6,16.7
					c-8.3,0-14.3-2.3-18.2-7.1c-3.9-4.7-5.8-12-5.8-22v-10.9l-29.4,4.2l0.3,2c0.8,4.4,1.4,8.9,1.7,13.3c0.3,4.5,0.5,8.5,0.5,12.2
					c0,6.6-0.7,12.7-2.2,18.4c-1.5,5.7-3.9,10.7-7.2,14.9c-3.3,4.2-7.8,7.5-13.3,9.9c-5.5,2.4-12.2,3.7-20.1,3.7h-5.4V8592z
					 M-206.4,8498.3c-1.8,0-3.3-0.5-4.3-1.6c-1.1-1.1-1.6-2.7-1.6-5c0-2.3,0.5-3.9,1.6-4.9c1.1-1,2.5-1.5,4.3-1.5h1.4
					c1.8,0,3.3,0.5,4.3,1.5c1.1,1,1.6,2.7,1.6,4.9c0,2.3-0.5,3.9-1.6,5c-1.1,1.1-2.5,1.6-4.3,1.6H-206.4z M-195.7,8477.6
					c-1.6,0-2.9-0.5-4-1.5c-1.1-1-1.6-2.6-1.6-4.8s0.5-3.7,1.6-4.7c1.1-1,2.4-1.4,4-1.4h1.5c1.7,0,3.1,0.5,4.2,1.4
					c1.1,1,1.6,2.5,1.6,4.7s-0.5,3.7-1.6,4.8c-1.1,1-2.5,1.5-4.2,1.5H-195.7z M-184.6,8498.3c-4,0-6-2.2-6-6.6c0-4.3,2-6.5,6-6.5
					h1.4c1.7,0,3.1,0.5,4.2,1.5c1.1,1,1.7,2.7,1.7,4.9c0,2.3-0.6,3.9-1.7,5c-1.1,1.1-2.5,1.6-4.2,1.6H-184.6z"/>
				<path fill="#FFA900" d="M-132.6,8553.9l2.7-2.7h4.2c4.9,0,9.5-0.2,13.8-0.7c4.3-0.5,8.7-1.3,13.1-2.5s9.1-2.9,13.9-5
					c4.9-2.2,10.3-4.9,16.3-8.3l19.2-11v-0.5l-24-5.6l-41.1-10.7v14.8h-8.7v-13.1c0-3.4,1-6,2.9-7.9c1.9-1.9,4.4-2.8,7.3-2.8
					c0.9,0,2.1,0.1,3.5,0.3c1.4,0.2,3.6,0.7,6.5,1.4l46.2,12.1c5.6,1.5,10.3,2.5,14.4,3.1c4,0.6,7.5,0.9,10.5,0.9h4.1v10.4h-11.9v7
					c0,6.8,1.3,11.5,3.9,14.2c2.6,2.7,6.9,4,12.9,4h4.9v7.7l-2.7,2.7c-5,0-9.2-0.5-12.5-1.4c-3.3-1-6.1-2.5-8.2-4.7
					c-2.1-2.2-3.6-5-4.5-8.5c-0.9-3.5-1.4-7.8-1.4-12.9v-3.2l-19,12.1c-6.7,4.2-12.6,7.5-17.8,9.9c-5.2,2.4-10,4.3-14.5,5.6
					c-4.5,1.3-9,2.2-13.3,2.5c-4.3,0.4-9,0.6-13.9,0.6h-7V8553.9z"/>
				<path fill="#FFA900" d="M-20.6,8553.9l2.7-2.7h3.2c6.5,0,11.2-1.5,14.1-4.4c2.9-2.9,4.4-7.6,4.4-13.9v-97.1h9v97.1
					c0,10-2.2,17.3-6.5,21.8c-4.4,4.6-11.4,6.9-21,6.9h-6V8553.9z"/>
				<path fill="#FFA900" d="M40.4,8435.7h9v125.8h-9V8435.7z"/>
			</g>
		</g>
		<g>
			<g>
				<path fill="#FFA900" d="M-938.7,8821.6c-5.1,0-9.4-0.4-12.8-1.3c-3.5-0.8-6.3-2.3-8.5-4.2c-2.2-2-3.8-4.5-4.8-7.6
					c-1-3.1-1.4-7-1.4-11.6v-3.2h-0.7c-1.6,4.5-4.2,8-7.9,10.5c-3.7,2.4-8.2,3.7-13.5,3.7c-7.1,0-12.7-1.9-16.7-5.8
					c-4-3.9-6-9.2-6-16.2c0-3.2,0.5-6.1,1.4-8.7c1-2.6,2.5-5.1,4.6-7.6c2.1-2.4,4.8-4.9,8.2-7.3c3.4-2.4,7.5-5.1,12.4-7.9l17.3-9.9
					v-10.5h8.5v61.9c0,5.8,1.4,9.8,4.2,12.1c2.8,2.3,6.9,3.4,12.5,3.4h5.8v7.7L-938.7,8821.6z M-987,8797.3c7.1,0,12.3-1.2,15.4-3.7
					c3.1-2.4,4.7-6.6,4.7-12.5v-27l-16,8.9c-3.5,1.9-6.5,3.8-9,5.5c-2.5,1.7-4.5,3.4-6,5.1c-1.5,1.7-2.7,3.5-3.4,5.3
					c-0.7,1.8-1.1,3.8-1.1,6C-1002.4,8793.2-997.3,8797.3-987,8797.3z M-982.2,8717.1c-1.8,0-3.3-0.5-4.3-1.6
					c-1.1-1.1-1.6-2.7-1.6-5c0-2.3,0.5-3.9,1.6-4.9c1.1-1,2.5-1.5,4.3-1.5h1.4c1.8,0,3.3,0.5,4.3,1.5c1.1,1,1.6,2.7,1.6,4.9
					c0,2.3-0.5,3.9-1.6,5c-1.1,1.1-2.5,1.6-4.3,1.6H-982.2z M-960.4,8717.1c-1.8,0-3.3-0.5-4.3-1.6c-1.1-1.1-1.6-2.7-1.6-5
					c0-2.3,0.5-3.9,1.6-4.9c1.1-1,2.5-1.5,4.3-1.5h1.4c1.8,0,3.3,0.5,4.3,1.5c1.1,1,1.6,2.7,1.6,4.9c0,2.3-0.5,3.9-1.6,5
					c-1.1,1.1-2.5,1.6-4.3,1.6H-960.4z"/>
				<path fill="#FFA900" d="M-938.7,8814l2.7-2.7h3.9c6.3,0,10.9-1.4,13.7-4.2c2.8-2.8,4.2-7.4,4.2-13.9v-27.5h8.5v27.5
					c0,12,5.6,18,16.8,18h4.9v7.7l-2.7,2.7c-14.7,0-23.5-5.4-26.2-16.3h-0.7c-1.2,6.1-3.8,10.4-7.6,12.8c-3.8,2.4-9.7,3.6-17.6,3.6
					V8814z M-910.6,8745c-1.8,0-3.3-0.5-4.3-1.6c-1.1-1.1-1.6-2.7-1.6-5c0-2.3,0.5-3.9,1.6-4.9c1.1-1,2.5-1.5,4.3-1.5h1.4
					c1.8,0,3.3,0.5,4.3,1.5c1.1,1,1.6,2.7,1.6,4.9c0,2.3-0.5,3.9-1.6,5c-1.1,1.1-2.5,1.6-4.3,1.6H-910.6z"/>
				<path fill="#FFA900" d="M-886.7,8814l2.7-2.7h4.2c4.9,0,9.5-0.2,13.8-0.7c4.3-0.5,8.7-1.3,13.1-2.5c4.4-1.2,9.1-2.9,13.9-5
					c4.9-2.2,10.3-4.9,16.3-8.3l19.2-11v-0.5l-24-5.6l-41.1-10.7v14.8h-8.7v-13.1c0-3.4,1-6,2.9-7.9c1.9-1.9,4.4-2.8,7.3-2.8
					c0.9,0,2.1,0.1,3.5,0.3c1.4,0.2,3.6,0.7,6.5,1.4l46.2,12.1c5.6,1.5,10.3,2.5,14.4,3.1c4,0.6,7.5,0.9,10.5,0.9h4.1v10.4h-11.9v7
					c0,6.8,1.3,11.5,3.9,14.2c2.6,2.7,6.9,4,12.9,4h4.9v7.7l-2.7,2.7c-5,0-9.2-0.5-12.5-1.4c-3.3-1-6.1-2.5-8.2-4.7
					c-2.1-2.2-3.6-5-4.5-8.5c-0.9-3.5-1.4-7.8-1.4-12.9v-3.2l-19,12.1c-6.7,4.2-12.6,7.5-17.8,9.9c-5.2,2.4-10,4.3-14.5,5.6
					c-4.5,1.3-9,2.2-13.3,2.5c-4.3,0.4-9,0.6-13.9,0.6h-7V8814z M-835,8855.6c-1.8,0-3.3-0.5-4.3-1.6c-1.1-1.1-1.6-2.7-1.6-5
					c0-2.3,0.5-3.9,1.6-4.9c1.1-1,2.5-1.5,4.3-1.5h1.4c1.8,0,3.3,0.5,4.3,1.5c1.1,1,1.6,2.7,1.6,4.9c0,2.3-0.5,3.9-1.6,5
					c-1.1,1.1-2.5,1.6-4.3,1.6H-835z"/>
				<path fill="#FFA900" d="M-774.6,8814l2.7-2.7h3.2c6.5,0,11.2-1.5,14.1-4.4c2.9-2.9,4.4-7.6,4.4-13.9v-97.1h9v97.1
					c0,10-2.2,17.3-6.5,21.8c-4.4,4.6-11.4,6.9-21,6.9h-6V8814z"/>
				<path fill="#FFA900" d="M-713.6,8695.8h9v125.8h-9V8695.8z"/>
			</g>
		</g>
		<g>
			<g>
				<path fill="#FFA900" d="M594.8,8714.7h5.4c6.6,0,12.1-0.9,16.6-2.8c4.5-1.9,8-4.4,10.6-7.7c2.6-3.3,4.5-7.2,5.6-11.6
					c1.1-4.5,1.7-9.3,1.7-14.5c0-3.2-0.1-6.6-0.4-10.3c-0.3-3.7-0.7-7.1-1.3-10.3l-3.6-20.6l8.7-1.7l2.5,16.8
					c0.8,4.4,1.4,8.9,1.8,13.3c0.4,4.5,0.6,8.8,0.6,12.8c0,6.6-0.7,12.7-2.2,18.4c-1.5,5.7-3.9,10.7-7.2,14.9
					c-3.3,4.2-7.7,7.5-13.2,9.9c-5.4,2.4-12.2,3.7-20.2,3.7h-5.4V8714.7z"/>
				<path fill="#FFA900" d="M692.3,8684.3c-5.2,0-9.6-0.5-13.1-1.4c-3.5-0.9-6.4-2.4-8.6-4.5c-2.2-2.1-3.8-4.8-4.8-8.2
					c-1-3.4-1.4-7.5-1.4-12.4v-99.3h9v99.3c0,6,1.3,10.2,3.9,12.6c2.6,2.4,6.9,3.6,12.9,3.6h7.7v7.7l-2.7,2.7H692.3z"/>
				<path fill="#FFA900" d="M695.2,8676.7l2.7-2.7h3.9c6.3,0,10.9-1.4,13.7-4.2c2.8-2.8,4.2-7.4,4.2-13.9v-27.5h8.5v27.5
					c0,12,5.6,18,16.8,18h4.9v7.7l-2.7,2.7c-14.7,0-23.5-5.4-26.2-16.3h-0.7c-1.2,6.1-3.8,10.4-7.6,12.8c-3.8,2.4-9.7,3.6-17.6,3.6
					V8676.7z M723.3,8607.6c-1.8,0-3.3-0.5-4.3-1.6c-1.1-1.1-1.6-2.7-1.6-5c0-2.3,0.5-3.9,1.6-4.9c1.1-1,2.5-1.5,4.3-1.5h1.4
					c1.8,0,3.3,0.5,4.3,1.5c1.1,1,1.6,2.7,1.6,4.9c0,2.3-0.5,3.9-1.6,5c-1.1,1.1-2.5,1.6-4.3,1.6H723.3z"/>
				<path fill="#FFA900" d="M747.2,8676.7l2.7-2.7h3.2c6.5,0,11.2-1.5,14.1-4.4c2.9-2.9,4.4-7.6,4.4-13.9v-97.1h9v97.1
					c0,10-2.2,17.3-6.5,21.8c-4.4,4.6-11.4,6.9-21,6.9h-6V8676.7z"/>
				<path fill="#FFA900" d="M808.3,8558.5h9v125.8h-9V8558.5z"/>
			</g>
		</g>
		<g>
			<g>
				<path fill="#FFA900" d="M327.5,4639.4h5.4c6.6,0,12.1-0.9,16.6-2.8c4.5-1.9,8-4.4,10.6-7.7c2.6-3.3,4.5-7.2,5.6-11.6
					c1.1-4.5,1.7-9.3,1.7-14.5c0-3.2-0.1-6.6-0.4-10.3c-0.3-3.7-0.7-7.1-1.3-10.3l-3.6-20.6l8.7-1.7l2.5,16.8c0.6,3.6,1,7.3,1.4,11
					c0.4,3.7,0.7,7.4,0.9,10.9h15v7.7l-2.7,2.7h-12.4c-0.5,5.8-1.5,11.2-3.2,16.2c-1.7,5-4.2,9.3-7.7,13c-3.4,3.7-7.7,6.5-12.9,8.6
					c-5.2,2-11.5,3.1-18.9,3.1h-5.4V4639.4z"/>
				<path fill="#FFA900" d="M388,4601.3l2.7-2.7h3.2c8,0,13.9-1.3,17.6-3.9c3.7-2.6,5.5-7,5.5-13.3c0-2.3-0.2-5.1-0.5-8.5
					s-0.9-7.8-1.7-13.1l-2.2-13.6l8.5-1.4l2,13.6c0.8,5.2,1.4,9.6,1.7,13.3c0.3,3.6,0.5,6.8,0.5,9.5c0,18.5-10.5,27.7-31.4,27.7h-6
					V4601.3z M402.6,4643c-1.8,0-3.3-0.5-4.3-1.6c-1.1-1.1-1.6-2.7-1.6-5c0-2.3,0.5-3.9,1.6-4.9c1.1-1,2.5-1.5,4.3-1.5h1.4
					c1.8,0,3.3,0.5,4.3,1.5c1.1,1,1.6,2.7,1.6,4.9c0,2.3-0.5,3.9-1.6,5c-1.1,1.1-2.5,1.6-4.3,1.6H402.6z M424.4,4643
					c-1.8,0-3.3-0.5-4.3-1.6c-1.1-1.1-1.6-2.7-1.6-5c0-2.3,0.5-3.9,1.6-4.9c1.1-1,2.5-1.5,4.3-1.5h1.4c1.8,0,3.3,0.5,4.3,1.5
					c1.1,1,1.6,2.7,1.6,4.9c0,2.3-0.5,3.9-1.6,5c-1.1,1.1-2.5,1.6-4.3,1.6H424.4z"/>
				<path fill="#FFA900" d="M449.4,4609c-3.2,0-5.7-0.9-7.7-2.7c-1.9-1.8-2.9-4.5-2.9-8v-13.1h8.5v13.4h30.3c6.5,0,11-0.7,13.6-2
					c2.6-1.4,3.9-3.6,3.9-6.8c0-1.6-0.2-3.2-0.7-4.9c-0.5-1.7-1.3-4.4-2.5-8l-17.3-48.1l8.8-3.2l18,50.5c1.6,4.5,3.1,8.2,4.4,11.1
					c1.4,2.9,2.7,5.2,4.2,6.9c1.4,1.7,2.9,2.9,4.5,3.6c1.6,0.7,3.5,1,5.6,1h3.2v7.7l-2.7,2.7c-5.7,0-10.1-1.1-13.3-3.3
					c-3.2-2.2-6-6.2-8.5-12H498c-0.5,5.3-2.4,9.2-5.7,11.6c-3.3,2.4-8.2,3.7-14.7,3.7H449.4z"/>
				<path fill="#FFA900" d="M520.6,4601.3l2.7-2.7c5.1,0,9.8-0.2,14.1-0.5c4.3-0.3,8.8-1,13.6-1.9l0.2-0.7
					c-6.6-4.4-11.7-9.5-15.3-15.2c-3.6-5.7-5.4-12.2-5.4-19.5c0-4.6,0.7-9,2.2-13c1.5-4,3.5-7.5,6.2-10.5c2.7-3,5.8-5.4,9.5-7.1
					c3.7-1.8,7.7-2.6,12-2.6c4.3,0,8.3,0.9,11.9,2.6c3.6,1.8,6.8,4.1,9.4,7.1c2.7,3,4.7,6.5,6.2,10.5c1.5,4,2.2,8.4,2.2,13
					c0,7.3-1.8,13.7-5.4,19.5c-3.6,5.7-8.6,10.8-15.2,15.2l0.2,0.7c4.3,0.8,8.7,1.4,13.3,1.8c4.5,0.4,9.3,0.6,14.5,0.6v7.7l-2.7,2.7
					h-2c-12.1,0-22.9-2.6-32.3-7.8c-5.2,2.7-10.5,4.7-15.8,6c-5.3,1.2-11.2,1.9-17.7,1.9h-6.3V4601.3z M560.4,4592.3
					c6.5-3.6,11.6-8,15.5-13c3.9-5,5.8-10.9,5.8-17.4c0-7.1-1.8-12.9-5.5-17.3c-3.7-4.4-8.5-6.6-14.5-6.6h-2.4
					c-6,0-10.9,2.2-14.6,6.6s-5.6,10.2-5.6,17.3c0,6.7,2,12.6,5.9,17.6C548.7,4584.5,553.9,4588.8,560.4,4592.3z M548.5,4506.8
					c-1.8,0-3.3-0.5-4.3-1.6c-1.1-1.1-1.6-2.7-1.6-5c0-2.3,0.5-3.9,1.6-4.9c1.1-1,2.5-1.5,4.3-1.5h1.4c1.8,0,3.3,0.5,4.3,1.5
					c1.1,1,1.6,2.7,1.6,4.9c0,2.3-0.5,3.9-1.6,5c-1.1,1.1-2.5,1.6-4.3,1.6H548.5z M570.3,4506.8c-1.8,0-3.3-0.5-4.3-1.6
					c-1.1-1.1-1.6-2.7-1.6-5c0-2.3,0.5-3.9,1.6-4.9c1.1-1,2.5-1.5,4.3-1.5h1.4c1.8,0,3.3,0.5,4.3,1.5c1.1,1,1.6,2.7,1.6,4.9
					c0,2.3-0.5,3.9-1.6,5c-1.1,1.1-2.5,1.6-4.3,1.6H570.3z"/>
				<path fill="#FFA900" d="M594.7,4601.3l2.7-2.7h3.2c6.5,0,11.2-1.5,14.1-4.4c2.9-2.9,4.4-7.6,4.4-13.9v-97.1h9v97.1
					c0,10-2.2,17.3-6.5,21.8c-4.4,4.6-11.4,6.9-21,6.9h-6V4601.3z"/>
				<path fill="#FFA900" d="M655.8,4483.2h9V4609h-9V4483.2z"/>
			</g>
		</g>
		<g>
			<g>
				<path fill="#FFA900" d="M1037.6,4617.9c0-9.2,1.9-16,5.7-20.6c3.8-4.5,9.8-7,17.9-7.3v-96.6h9v97.1c2.4,0.6,5,1.3,7.8,2.2
					c2.8,0.9,5.8,2,8.8,3.4l7.5,3.2l-4.4,9.5l-9-4.1c-3.2-1.4-6.3-2.4-9.3-3.2c-3.1-0.8-5.7-1.2-8-1.2c-6,0-10.4,1.4-13.2,4.2
					c-2.8,2.8-4.2,7.4-4.2,13.6v53h-8.7V4617.9z"/>
				<path fill="#FFA900" d="M1134,4619.3c-5.2,0-9.6-0.5-13.1-1.4c-3.5-0.9-6.4-2.4-8.6-4.5c-2.2-2.1-3.8-4.8-4.8-8.2
					c-1-3.4-1.4-7.5-1.4-12.4v-99.3h9v99.3c0,6,1.3,10.2,3.9,12.6c2.6,2.4,6.9,3.6,12.9,3.6h7.7v7.7l-2.7,2.7H1134z"/>
				<path fill="#FFA900" d="M1136.9,4611.7l2.7-2.7h17.7c4,0,7.3-0.1,9.9-0.4c2.6-0.3,4.9-0.8,7-1.6l-3.1-3.7l-24.1-30.1v-11.4
					c5-2.6,10.4-4.6,16.2-6c5.8-1.4,11.4-2.1,17-2.1c10,0,17.7,1.9,23.1,5.8c5.4,3.9,8.2,9.3,8.2,16.3c0,4.4-1.3,8.7-3.8,12.7
					s-6.8,8.5-12.7,13.3l-7.3,5.8c1.2,0.6,2.7,1,4.4,1.2c1.7,0.2,3.9,0.3,6.5,0.3h20.9v7.7l-2.7,2.7h-18.2c-3.9,0-7.2-0.4-9.9-1.3
					c-2.8-0.9-5.5-2.5-8.2-4.9c-3.6,2.5-7.1,4.1-10.5,4.9c-3.4,0.8-7.5,1.2-12.4,1.2h-20.4V4611.7z M1154.6,4569.4l27,33l8.3-7
					c4.4-3.6,7.7-6.8,9.9-9.6c2.2-2.7,3.2-5.7,3.2-9.1c0-4-2-7.1-6.1-9.4s-9.7-3.4-17-3.4c-3.7,0-7.7,0.4-12,1.1
					c-4.2,0.7-8.7,2-13.3,3.8V4569.4z"/>
				<path fill="#FFA900" d="M1216.6,4611.7l2.7-2.7h3.2c6.5,0,11.2-1.5,14.1-4.4c2.9-2.9,4.4-7.6,4.4-13.9v-97.1h9v97.1
					c0,10-2.2,17.3-6.5,21.8c-4.4,4.6-11.4,6.9-21,6.9h-6V4611.7z"/>
				<path fill="#FFA900" d="M1277.7,4493.5h9v125.8h-9V4493.5z"/>
			</g>
		</g>
		<g>
			<g>
				<path fill="#FFA900" d="M-1384.6,6048.5c-4.9,0-8.9-0.5-12-1.6c-3.1-1.1-6-3-8.8-5.9c-6.5,5-15.9,7.5-28.4,7.5h-76.2v-10.4h16.7
					l7.8-13.1v-102.3h9v73.1l-1.4,15.8l0.5,0.3c7.7-11.1,15.6-19,23.5-23.7c8-4.7,16.5-7.1,25.4-7.1c10.7,0,18.9,3,24.7,8.9
					c5.8,5.9,8.8,14.3,8.8,24.9c0,7.7-1.5,14.1-4.4,19c2,1.6,4.2,2.7,6.5,3.2c2.3,0.6,5,0.8,8.2,0.8h2.9v7.7L-1384.6,6048.5z
					 M-1433.7,6038.2c9.9,0,17.4-1.8,22.6-5.4c5.2-3.6,7.8-9.2,7.8-16.7c0-7.9-2-14-6-18.2c-4-4.2-9.6-6.3-16.8-6.3h-4.4
					c-4.4,0-8.6,0.6-12.5,1.8c-3.9,1.2-7.7,3.1-11.5,5.7c-3.7,2.6-7.4,6.1-11.1,10.5c-3.6,4.4-7.4,9.7-11.4,15.9l-7.5,11.9l0.5,0.8
					H-1433.7z"/>
				<path fill="#FFA900" d="M-1384.4,6040.9l2.7-2.7h4.2c2.5,0,4.7-0.2,6.6-0.7c1.9-0.5,3.7-1.2,5.3-2.3c1.6-1.1,3-2.5,4.3-4.4
					c1.3-1.9,2.6-4.2,4-6.9l9-17.7l7,3.6l-9.4,18.2c-0.2,0.6-0.5,1.1-0.8,1.5c-0.3,0.5-0.6,1-0.9,1.5l3.9,2.4
					c3.9,2.4,7.6,4.1,11.1,5.2c3.6,1.1,7.2,1.6,10.8,1.6c6.1,0,10.6-1.4,13.4-4.3c2.8-2.9,4.2-7.9,4.2-15v-14.6h8.5v14.6
					c0,6.7,1,11.6,3,14.7c2,3.1,5.4,4.7,10.3,4.7h3.1c4.5,0,7.9-1.6,10.1-4.7c2.2-3.1,3.3-8,3.3-14.7v-21.4h8.5v21.4
					c0,11.6,5.6,17.3,16.8,17.3h4.9v7.7l-2.7,2.7c-7.4,0-13.1-1.2-17.2-3.5c-4.1-2.3-6.9-6-8.5-11.1h-0.7c-0.9,5.8-2.8,10-5.7,12.7
					c-2.9,2.7-6.9,4-12.2,4c-5.8,0-10.3-1.4-13.6-4.2c-3.3-2.8-5.4-6.9-6.5-12.2h-0.9c-2.2,11-8.9,16.5-20.2,16.5
					c-7.5,0-15.4-2.7-23.6-8l-5.8-3.6c-3.2,3.6-6.8,6.1-10.9,7.5s-9.3,2-15.8,2V6040.9z"/>
				<path fill="#FFA900" d="M-1243,6040.9l2.7-2.7c5.1,0,9.8-0.2,14.1-0.5c4.3-0.3,8.8-1,13.6-1.9l0.2-0.7
					c-6.6-4.4-11.7-9.5-15.3-15.2c-3.6-5.7-5.4-12.2-5.4-19.5c0-4.6,0.7-9,2.2-13c1.5-4,3.5-7.5,6.2-10.5c2.7-3,5.8-5.4,9.5-7.1
					c3.7-1.8,7.7-2.6,12-2.6c4.3,0,8.3,0.9,11.9,2.6c3.6,1.8,6.8,4.1,9.4,7.1c2.7,3,4.7,6.5,6.2,10.5c1.5,4,2.2,8.4,2.2,13
					c0,7.3-1.8,13.7-5.4,19.5c-3.6,5.7-8.6,10.8-15.2,15.2l0.2,0.7c4.3,0.8,8.7,1.4,13.3,1.8c4.5,0.4,9.4,0.6,14.5,0.6v7.7l-2.7,2.7
					h-2c-12.1,0-22.9-2.6-32.3-7.8c-5.2,2.7-10.5,4.7-15.8,6c-5.3,1.2-11.2,1.9-17.7,1.9h-6.3V6040.9z M-1203.2,6031.9
					c6.5-3.6,11.6-8,15.5-13c3.9-5,5.8-10.9,5.8-17.4c0-7.1-1.8-12.9-5.5-17.3c-3.7-4.4-8.5-6.6-14.5-6.6h-2.4
					c-6,0-10.9,2.2-14.6,6.6s-5.6,10.2-5.6,17.3c0,6.7,2,12.6,5.9,17.6C-1214.9,6024.1-1209.7,6028.4-1203.2,6031.9z
					 M-1215.1,5946.4c-1.8,0-3.3-0.5-4.3-1.6c-1.1-1.1-1.6-2.7-1.6-5c0-2.3,0.5-3.9,1.6-4.9c1.1-1,2.5-1.5,4.3-1.5h1.4
					c1.8,0,3.3,0.5,4.3,1.5c1.1,1,1.6,2.7,1.6,4.9c0,2.3-0.5,3.9-1.6,5c-1.1,1.1-2.5,1.6-4.3,1.6H-1215.1z M-1193.4,5946.4
					c-1.8,0-3.3-0.5-4.3-1.6c-1.1-1.1-1.6-2.7-1.6-5c0-2.3,0.5-3.9,1.6-4.9c1.1-1,2.5-1.5,4.3-1.5h1.4c1.8,0,3.3,0.5,4.3,1.5
					c1.1,1,1.6,2.7,1.6,4.9c0,2.3-0.5,3.9-1.6,5c-1.1,1.1-2.5,1.6-4.3,1.6H-1193.4z"/>
				<path fill="#FFA900" d="M-1134.7,6053.5c-1.6-0.9-3.1-1.7-4.5-2.3c-1.4-0.6-2.9-1.1-4.3-1.5c-1.5-0.4-3.1-0.7-4.8-0.9
					c-1.7-0.2-3.6-0.3-5.8-0.3h-14.8v-7.7l2.7-2.7h14.5v-115.4h9v116.5c4.2,0.8,8.6,2.5,13.1,5.1l9.7,5.6l-5.3,9L-1134.7,6053.5z"/>
				<path fill="#FFA900" d="M-1112.1,5922.8h9v125.8h-9V5922.8z"/>
			</g>
		</g>
		<g>
			<g>
				<path fill="#FFA900" d="M-591.8,7177c-7.7,0-14.1-0.7-19.2-2c-5.2-1.3-9.4-3.5-12.6-6.6c-3.2-3.1-5.6-7.1-7-12.1
					c-1.4-5-2.1-11.1-2.1-18.2v-146h13.2v146c0,8.8,1.9,15,5.8,18.5c3.8,3.5,10.2,5.2,19,5.2h11.2v11.2l-4,4H-591.8z"/>
				<path fill="#FFA900" d="M-587.5,7165.8l4-4h5.8c9.3,0,16-2,20.1-6.1c4.1-4.1,6.1-10.9,6.1-20.4v-40.5h12.5v40.5
					c0,17.7,8.2,26.5,24.8,26.5h7.2v11.2l-4,4c-21.7,0-34.5-8-38.5-24h-1c-1.8,9-5.5,15.2-11.1,18.8c-5.6,3.5-14.2,5.2-25.9,5.2
					V7165.8z M-562.3,7227c-2.7,0-4.8-0.8-6.4-2.4c-1.6-1.6-2.4-4-2.4-7.4c0-3.3,0.8-5.8,2.4-7.2c1.6-1.5,3.7-2.2,6.4-2.2h2
					c2.7,0,4.8,0.8,6.4,2.2c1.6,1.5,2.4,3.9,2.4,7.2c0,3.3-0.8,5.8-2.4,7.4c-1.6,1.6-3.7,2.4-6.4,2.4H-562.3z M-530.3,7227
					c-2.7,0-4.8-0.8-6.4-2.4c-1.6-1.6-2.4-4-2.4-7.4c0-3.3,0.8-5.8,2.4-7.2c1.6-1.5,3.7-2.2,6.4-2.2h2c2.7,0,4.8,0.8,6.4,2.2
					c1.6,1.5,2.4,3.9,2.4,7.2c0,3.3-0.8,5.8-2.4,7.4c-1.6,1.6-3.7,2.4-6.4,2.4H-530.3z"/>
				<path fill="#FFA900" d="M-511,7165.8l4-4h4.8c11.8,0,20.5-1.9,25.9-5.8c5.4-3.8,8.1-10.3,8.1-19.5c0-3.3-0.2-7.5-0.8-12.5
					s-1.3-11.4-2.5-19.2l-3.2-20l12.5-2l3,20c1.2,7.7,2,14.2,2.5,19.5c0.5,5.3,0.8,10,0.8,14c0,27.2-15.4,40.8-46.2,40.8h-8.8
					V7165.8z M-473,7052.5c-2.7,0-4.8-0.8-6.4-2.4c-1.6-1.6-2.4-4-2.4-7.4c0-3.3,0.8-5.8,2.4-7.2c1.6-1.5,3.7-2.2,6.4-2.2h2
					c2.7,0,4.8,0.8,6.4,2.2c1.6,1.5,2.4,3.9,2.4,7.2c0,3.3-0.8,5.8-2.4,7.4c-1.6,1.6-3.7,2.4-6.4,2.4H-473z"/>
				<path fill="#FFA900" d="M-420.8,7177c-4.7,0-8.4-1.3-11.2-4c-2.8-2.7-4.3-6.6-4.3-11.8V7142h12.5v19.8h44.5c9.5,0,16.2-1,20-3
					c3.8-2,5.8-5.3,5.8-10c0-2.3-0.3-4.8-1-7.2c-0.7-2.5-1.9-6.4-3.8-11.8l-25.5-70.8l13-4.8l26.5,74.2c2.3,6.7,4.5,12.1,6.5,16.4
					s4,7.6,6.1,10.1c2.1,2.5,4.3,4.2,6.6,5.2c2.3,1,5.1,1.5,8.2,1.5h4.8v11.2l-4,4c-8.3,0-14.8-1.6-19.5-4.9
					c-4.7-3.2-8.8-9.1-12.5-17.6h-1.2c-0.7,7.8-3.5,13.5-8.4,17.1c-4.9,3.6-12.1,5.4-21.6,5.4H-420.8z"/>
				<path fill="#FFA900" d="M-316,7165.8l4-4h4.8c9.5,0,16.4-2.2,20.8-6.5c4.3-4.3,6.5-11.2,6.5-20.5V6992h13.2v142.8
					c0,14.7-3.2,25.4-9.6,32.1c-6.4,6.8-16.7,10.1-30.9,10.1h-8.8V7165.8z"/>
				<path fill="#FFA900" d="M-226.3,6992h13.2v185h-13.2V6992z"/>
				<path fill="#FFA900" d="M-149.8,7221.8h8c9.7,0,17.8-1.4,24.4-4.1c6.6-2.8,11.8-6.5,15.6-11.4c3.8-4.8,6.6-10.5,8.2-17.1
					c1.7-6.6,2.5-13.7,2.5-21.4c0-4.7-0.2-9.7-0.6-15.1c-0.4-5.4-1-10.5-1.9-15.1l-5.2-30.2l12.8-2.5l3.8,24.8
					c1.2,6.5,2,13,2.6,19.6c0.6,6.6,0.9,12.9,0.9,18.9c0,9.7-1.1,18.7-3.2,27.1c-2.2,8.4-5.7,15.7-10.6,21.9
					c-4.9,6.2-11.4,11-19.4,14.6c-8,3.6-17.9,5.4-29.8,5.4h-8V7221.8z"/>
				<path fill="#FFA900" d="M-48.3,6992H-35v185h-13.2V6992z"/>
				<path fill="#FFA900" d="M9.2,7177c-4.7,0-8.4-1.3-11.2-4c-2.8-2.7-4.2-6.6-4.2-11.8V7142H6.2v19.8h44.5c9.5,0,16.2-1,20-3
					c3.8-2,5.8-5.3,5.8-10c0-2.3-0.3-4.8-1-7.2c-0.7-2.5-1.9-6.4-3.8-11.8L46.2,7059l13-4.8l26.5,74.2c2.3,6.7,4.5,12.1,6.5,16.4
					s4,7.6,6.1,10.1c2.1,2.5,4.3,4.2,6.6,5.2c2.3,1,5.1,1.5,8.2,1.5h4.8v11.2l-4,4c-8.3,0-14.8-1.6-19.5-4.9
					c-4.7-3.2-8.8-9.1-12.5-17.6h-1.2c-0.7,7.8-3.5,13.5-8.4,17.1c-4.9,3.6-12.1,5.4-21.6,5.4H9.2z"/>
				<path fill="#FFA900" d="M114,7165.8l4-4h4.8c9.5,0,16.4-2.2,20.8-6.5c4.3-4.3,6.5-11.2,6.5-20.5V6992h13.2v142.8
					c0,14.7-3.2,25.4-9.6,32.1c-6.4,6.8-16.7,10.1-30.9,10.1H114V7165.8z"/>
				<path fill="#FFA900" d="M203.7,6992H217v185h-13.2V6992z"/>
			</g>
		</g>
		<g>
			<g>
				<path fill="#FFA900" d="M704.4,6037.4c-3.2,0-5.7-0.9-7.7-2.7c-1.9-1.8-2.9-4.5-2.9-8v-13.1h8.5v13.4h31.5
					c6.5,0,11-1.5,13.8-4.5c2.7-3,4.1-6.7,4.1-11c0-3.7-1.1-7.6-3.2-11.6c-2.2-4-5.8-8.7-11-14.1l-21.8-24.7l7.8-7.3l21.2,24.6
					c5.7,6.7,9.7,12.6,12.1,17.7c2.4,5.1,3.6,10.4,3.6,16c0,7.8-2.4,14-7.1,18.4c-4.8,4.5-11.6,6.7-20.4,6.7H704.4z"/>
				<path fill="#FFA900" d="M781.1,5911.6h9v125.8h-9V5911.6z"/>
				<path fill="#FFA900" d="M810,6067.8h10.5c12.8,0,22.7-2.6,29.6-7.7c6.9-5.2,11.2-12.7,12.8-22.7h-22.3c-9.1,0-16-2.4-20.9-7.1
					c-4.9-4.8-7.3-11.4-7.3-20.1c0-5.1,0.7-9.9,2.2-14.5c1.5-4.5,3.5-8.5,6.2-11.8c2.7-3.3,5.8-6,9.5-8c3.7-2,7.7-3,12.2-3
					c9.3,0,16.6,4.2,21.8,12.8c5.3,8.5,7.9,20.4,7.9,35.7c0,1,0,2,0,2.9c0,0.9-0.1,1.8-0.2,2.7h8.3v7.7l-2.7,2.7H871
					c-2.3,13.4-7.5,23.5-15.8,30.4c-8.3,6.9-19.8,10.4-34.7,10.4H810V6067.8z M821,6009.2c0,11.9,6.3,17.8,19,17.8h23.6v-9
					c0-5.2-0.5-9.9-1.5-14.2c-1-4.2-2.5-7.9-4.3-11c-1.9-3.1-4.2-5.4-6.9-7.1c-2.7-1.6-5.8-2.5-9.2-2.5c-3.2,0-6,0.7-8.6,2
					c-2.5,1.3-4.7,3.1-6.5,5.4c-1.8,2.3-3.2,5-4.2,8.2C821.5,6002,821,6005.5,821,6009.2z"/>
				<path fill="#FFA900" d="M877.7,6029.8l2.7-2.7h4.2c4.9,0,9.5-0.2,13.8-0.7c4.3-0.5,8.7-1.3,13.1-2.5c4.4-1.2,9.1-2.9,13.9-5
					c4.9-2.2,10.3-4.9,16.3-8.3l19.2-11v-0.5l-24-5.6l-41.1-10.7v14.8h-8.7v-13.1c0-3.4,1-6,2.9-7.9c1.9-1.9,4.4-2.8,7.3-2.8
					c0.9,0,2.1,0.1,3.5,0.3c1.4,0.2,3.6,0.7,6.5,1.4l46.2,12.1c5.6,1.5,10.3,2.5,14.4,3.1c4,0.6,7.5,0.9,10.5,0.9h4.1v10.4h-11.9v7
					c0,6.8,1.3,11.5,3.9,14.2c2.6,2.7,6.9,4,12.9,4h4.9v7.7l-2.7,2.7c-5,0-9.2-0.5-12.5-1.4c-3.3-1-6.1-2.5-8.2-4.7
					c-2.1-2.2-3.6-5-4.5-8.5c-0.9-3.5-1.4-7.8-1.4-12.9v-3.2l-19,12.1c-6.7,4.2-12.6,7.5-17.8,9.9c-5.2,2.4-10,4.3-14.5,5.6
					c-4.5,1.3-9,2.2-13.3,2.5c-4.3,0.4-9,0.6-13.9,0.6h-7V6029.8z M929.3,6071.4c-1.8,0-3.3-0.5-4.3-1.6c-1.1-1.1-1.6-2.7-1.6-5
					c0-2.3,0.5-3.9,1.6-4.9c1.1-1,2.5-1.5,4.3-1.5h1.4c1.8,0,3.3,0.5,4.3,1.5c1.1,1,1.6,2.7,1.6,4.9c0,2.3-0.5,3.9-1.6,5
					c-1.1,1.1-2.5,1.6-4.3,1.6H929.3z"/>
				<path fill="#FFA900" d="M989.7,6029.8l2.7-2.7h3.2c6.5,0,11.2-1.5,14.1-4.4c2.9-2.9,4.4-7.6,4.4-13.9v-97.1h9v97.1
					c0,10-2.2,17.3-6.5,21.8c-4.4,4.6-11.4,6.9-21,6.9h-6V6029.8z"/>
				<path fill="#FFA900" d="M1050.7,5911.6h9v125.8h-9V5911.6z"/>
			</g>
		</g>
		<g>
			<path fill="#FFA900" d="M-297.7,6376.4c-7.3,0.8-14.1,0.5-20.2-0.9c-6.2-1.5-11.6-3.9-16.3-7.5c-4.7-3.5-8.6-8-11.6-13.6
				c-3-5.5-4.9-12-5.7-19.3c-0.6-5.2-0.4-10.2,0.6-15.2c1-5,3-9.8,6-14.6c3-4.8,7-9.4,12.2-13.9c5.1-4.5,11.5-8.8,19.1-13.1
				l34.9-19.6l-0.1-0.5l-65.4,5.6l1.6,13.5l-8.4,1l-1.5-13c-0.4-3.7,0.4-6.6,2.4-8.6c2.1-2,5.2-3.1,9.5-3.4l68.2-4.8l1.8,15.9
				l-40.7,22.3c-11.7,6.5-20.2,13.3-25.5,20.4c-5.3,7.1-7.4,15.2-6.4,24.2l0.4,3.7c0.6,5.5,2.2,10.3,4.6,14.4
				c2.4,4.1,5.5,7.5,9.3,10.1c3.8,2.6,8.2,4.5,13.3,5.5c5.1,1,10.6,1.2,16.6,0.5c8.4-1,15.8-3.2,22.1-6.7
				c6.3-3.5,11.9-8.8,16.9-15.9l7.3,7.2c-5.7,8.1-12.2,14.2-19.5,18.3C-279.3,6372.6-287.9,6375.2-297.7,6376.4z M-319,6234.8
				c-1.8,0.2-3.3-0.2-4.5-1.1c-1.2-0.9-1.9-2.5-2.2-4.8c-0.3-2.3,0.1-3.9,1-5.1c1-1.1,2.3-1.8,4.1-2l1.4-0.2c1.8-0.2,3.3,0.1,4.5,1
				c1.2,0.9,1.9,2.5,2.2,4.7c0.3,2.3-0.1,4-1,5.2c-0.9,1.2-2.3,1.9-4.1,2.1L-319,6234.8z"/>
			<path fill="#FFA900" d="M-250.2,6351.3l5.4-0.1c6.6-0.1,12.1-1.1,16.5-3.1c4.4-1.9,7.9-4.6,10.5-7.9c2.6-3.3,4.4-7.2,5.4-11.7
				c1.1-4.5,1.5-9.3,1.5-14.6c-0.1-3.2-0.3-6.6-0.6-10.3c-0.3-3.7-0.8-7.1-1.4-10.3l-3.9-20.5l8.6-1.8l2.8,16.8
				c0.9,4.4,1.5,8.8,2,13.3c0.5,4.5,0.7,8.7,0.8,12.8c0.1,6.6-0.5,12.7-1.9,18.5c-1.4,5.7-3.7,10.7-7,15c-3.3,4.2-7.6,7.6-13,10.2
				c-5.4,2.5-12.1,3.9-20.2,4l-5.4,0.1L-250.2,6351.3z M-216.5,6250.6c-1.8,0-3.3-0.5-4.4-1.5c-1.1-1.1-1.7-2.7-1.7-5
				c0-2.3,0.5-3.9,1.5-5c1.1-1,2.5-1.6,4.3-1.6l1.4,0c1.8,0,3.3,0.5,4.4,1.5c1.1,1,1.7,2.6,1.7,4.9c0,2.3-0.5,3.9-1.5,5
				c-1.1,1.1-2.5,1.7-4.3,1.7L-216.5,6250.6z"/>
			<path fill="#FFA900" d="M-208.8,6348.5l5.4,0.5c6.5,0.5,12.1,0.1,16.8-1.4c4.6-1.5,8.4-3.8,11.2-6.8c2.9-3.1,5.1-6.8,6.6-11.1
				c1.5-4.4,2.5-9.1,2.9-14.3c0.3-3.2,0.4-6.6,0.4-10.3c0-3.7-0.1-7.1-0.4-10.4l-1.8-20.8l8.8-1l0.8,12.7l33.7-2.7l1.2-13.9l8.6,0.7
				l-2.4,29.3c-0.5,6,0.5,10.3,3,12.9c2.5,2.6,6.9,4.2,13.1,4.7l4.9,0.4l-0.6,7.6l-2.9,2.5l-0.3,0c-5.1-0.4-9.4-1.3-12.8-2.5
				c-3.5-1.3-6.2-3-8.3-5.3c-2-2.3-3.4-5.1-4.2-8.5c-0.7-3.4-0.9-7.6-0.5-12.4l0.5-5.4l-32.1,2.6c0.1,3.7,0.2,7.2,0.2,10.6
				c0,3.4-0.1,6.8-0.4,10c-0.5,6.5-1.8,12.6-3.7,18.2c-1.9,5.6-4.8,10.3-8.4,14.2c-3.7,3.9-8.3,6.8-14,8.8c-5.6,2-12.4,2.6-20.5,2
				l-5.4-0.5L-208.8,6348.5z M-127.3,6358.9c-1.8-0.2-3.2-0.8-4.2-2c-1-1.2-1.4-2.9-1.2-5.1c0.2-2.3,0.9-3.9,2-4.8s2.6-1.3,4.4-1.2
				l1.4,0.1c1.8,0.2,3.2,0.8,4.2,1.9c1,1.1,1.4,2.8,1.2,5c-0.2,2.3-0.9,3.9-2,4.9c-1.2,1-2.7,1.4-4.5,1.2L-127.3,6358.9z"/>
			<path fill="#FFA900" d="M-100.9,6320.1l3.1-2.2l3.2,0.5c6.4,1.1,11.3,0.4,14.7-2c3.4-2.4,5.6-6.7,6.7-13l16.2-95.7l8.9,1.5
				l-16.2,95.7c-1.7,9.8-5,16.6-10.1,20.4c-5.1,3.8-12.4,4.9-21.9,3.3l-5.9-1L-100.9,6320.1z"/>
			<path fill="#FFA900" d="M-16.6,6215.5l8.8,1.9l-27,122.9l-8.8-1.9L-16.6,6215.5z"/>
		</g>
		<g>
			<path fill="none" stroke="#FFFFFF" stroke-width="4" stroke-miterlimit="10" d="M-416.6,4384.1c-43.6-52.4-69.9-119.8-69.9-193.3
				c0-88.7,38.2-168.4,99-223.7c53.7-48.8,125-78.6,203.3-78.6c83.5,0,159.1,33.8,213.8,88.6c54.7,54.7,88.6,130.3,88.6,213.8
				c0,83.1-33.6,158.4-87.9,213.1c-54.8,55.1-130.6,89.2-214.5,89.2C-277.6,4493.1-361.1,4450.7-416.6,4384.1z"/>
			<path fill="none" stroke="#FFFFFF" stroke-width="4" stroke-miterlimit="10" d="M708.1,4334.9c63,55.4,102.7,136.6,102.7,227
				c0,90.5-39.7,171.6-102.7,227c-53.3,46.9-123.1,75.3-199.6,75.3c-83.5,0-159.1-33.8-213.8-88.6s-88.6-130.3-88.6-213.8
				c0-83.4,33.7-158.8,88.3-213.5c54.7-54.9,130.4-88.8,214-88.8C585,4259.6,654.9,4288,708.1,4334.9z"/>
			<path fill="none" stroke="#FFFFFF" stroke-width="4" stroke-miterlimit="10" d="M-402.8,4775.7c55.1-58.1,133-94.3,219.4-94.3
				c83.5,0,159.1,33.8,213.8,88.6s88.6,130.3,88.6,213.8c0,91.4-40.6,173.4-104.7,228.8c-53,45.8-122.1,73.5-197.6,73.5
				c-86.4,0-164.3-36.2-219.4-94.3c-51.4-54.2-83-127.4-83-208C-485.8,4903.1-454.2,4829.9-402.8,4775.7z"/>
			<path fill="none" stroke="#FFFFFF" stroke-width="4" stroke-miterlimit="10" d="M-428.7,5835.8c-40.4-51.4-64.5-116.2-64.5-186.7
				c0-77.2,29-147.7,76.6-201.2c55.4-62.1,136-101.2,225.7-101.2c79.1,0,151.2,30.4,205.1,80.2c59.8,55.2,97.3,134.3,97.3,222.2
				c0,79.6-30.8,152.1-81.1,206.1c-55.2,59.2-133.9,96.3-221.2,96.3C-287.4,5951.4-373.3,5906.2-428.7,5835.8z"/>
			<path fill="none" stroke="#FFFFFF" stroke-width="4" stroke-miterlimit="10" d="M-1524.2,6207.5
				c-55.2-54.8-89.4-130.7-89.4-214.6c0-78.4,29.8-149.8,78.7-203.5c55.3-60.7,135-98.8,223.6-98.8c71.7,0,137.6,25,189.5,66.7
				c68.8,55.4,112.9,140.4,112.9,235.6c0,62-18.7,119.7-50.7,167.6c-54.2,81.2-146.7,134.7-251.6,134.7
				C-1394.3,6295.2-1469.5,6261.7-1524.2,6207.5z"/>
			<path fill="none" stroke="#FFFFFF" stroke-width="4" stroke-miterlimit="10" d="M91.8,8237.4c54.7,54.7,88.6,130.3,88.6,213.8
				c0,86.9-36.7,165.3-95.4,220.4c-54.1,50.8-126.9,81.9-206.9,81.9c-86.9,0-165.2-36.6-220.3-95.3c-50.9-54.1-82-126.9-82-207
				c0-74.4,26.9-142.6,71.5-195.2c55.5-65.5,138.3-107.1,230.8-107.1C-38.5,8148.9,37.1,8182.7,91.8,8237.4z"/>
			<path fill="none" stroke="#FFFFFF" stroke-width="4" stroke-miterlimit="10" d="M-87.4,6357.3
				c214.1,34.8,399.4,155.6,519.1,325.9c90.3,128.5,143.4,285.1,143.4,454c0,224.9-93.9,427.8-244.7,571.7
				C188.5,7844.3-3.5,7927.4-215,7927.4c-260.3,0-491.2-125.8-635.1-320c-97.4-131.4-155-294-155-470.1
				c0-169.3,53.2-326.1,143.9-454.7c114.5-162.5,288.7-279.8,490.7-320.1"/>
			<path fill="none" stroke="#FFFFFF" stroke-width="4" stroke-miterlimit="10" d="M-992.9,6516.2
				c182.4-228.1,463.1-374.3,777.9-374.3c285,0,542.1,119.8,723.5,311.8C677,6632,780.3,6872.5,780.3,7137.2
				c0,287.8-122.1,547-317.3,728.7c-177.7,165.4-416.1,266.6-678,266.6c-289,0-549.2-123.1-731-319.8
				c-164.1-177.5-264.3-414.8-264.3-675.5C-1210.4,6902.3-1129,6686.4-992.9,6516.2z"/>
			<path fill="none" stroke="#FFFFFF" stroke-width="4" stroke-miterlimit="10" d="M647,6186.6c-42.8-52.2-68.6-119-68.6-191.7
				c0-87.2,37-165.9,96.1-221c54-50.4,126.5-81.3,206.3-81.3c83.5,0,159.1,33.8,213.8,88.6c54.7,54.7,88.6,130.3,88.6,213.8
				c0,67.4-22.1,129.7-59.4,180c-55.1,74.2-143.4,122.3-242.9,122.3C786.6,6297.2,702.5,6254.1,647,6186.6z"/>
			<path fill="none" stroke="#FFFFFF" stroke-width="4" stroke-miterlimit="10" d="M1396.3,4761.6c-55.5,66.5-139,108.9-232.4,108.9
				c-82,0-156.4-32.7-210.9-85.7c-56.4-54.9-91.4-131.7-91.4-216.6c0-86.6,36.4-164.7,94.7-219.8c54.2-51.2,127.2-82.5,207.6-82.5
				c78.5,0,150.1,30,203.8,79.1c60.5,55.3,98.5,134.8,98.5,223.3C1466.3,4641.8,1440,4709.2,1396.3,4761.6z"/>
			<path fill="none" stroke="#FFFFFF" stroke-width="4" stroke-miterlimit="10" d="M-1121.8,4361.4c55.3-60.1,134.5-97.7,222.5-97.7
				c74.2,0,142.2,26.8,194.8,71.1c65.7,55.5,107.5,138.4,107.5,231.2c0,86-35.9,163.7-93.6,218.7c-54.3,51.8-127.8,83.6-208.7,83.6
				c-98,0-185.2-46.7-240.4-119c-38.8-50.9-61.9-114.4-61.9-183.3C-1201.5,4487.1-1171.3,4415.3-1121.8,4361.4z"/>
			<path fill="none" stroke="#FFFFFF" stroke-width="4" stroke-miterlimit="10" d="M-1819.3,4310.4c54.7-54.7,130.3-88.6,213.8-88.6
				s159.1,33.8,213.8,88.6s88.6,130.3,88.6,213.8c0,83.4-33.8,159-88.5,213.7c-54.7,54.8-130.3,88.6-213.9,88.6
				c-97.7,0-184.6-46.3-239.8-118.2c-39.2-51-62.5-114.8-62.5-184.1C-1907.8,4440.7-1874,4365.2-1819.3,4310.4z"/>
		</g>
	</g>
	<circle fill="none" stroke="#FFAA00" stroke-miterlimit="10" cx="0" cy="2" r="0.7"/>
	<g>
		<path fill="none" stroke="#FFFFFF" stroke-width="3" stroke-miterlimit="10" d="M944.3,8830.8c52.3,54.3,84.4,128.2,84.4,209.6
			c0,74.8-27.2,143.2-72.1,196c-55.5,65.1-138,106.3-230.2,106.3c-84.9,0-161.5-35-216.5-91.3c-53.1-54.5-85.9-129-85.9-211.1
			c0-76.5,28.4-146.3,75.2-199.5c55.4-63,136.6-102.8,227.1-102.8C812,8738,889.2,8773.6,944.3,8830.8z"/>
	</g>
</g>
<g>
	<path fill="none" stroke="#FFFFFF" stroke-width="3" stroke-miterlimit="10" d="M-1170.6,9194.3c1.2,83.5,36.1,158.5,91.5,212.4
		c55.5,54,131.6,86.7,215.1,85.6c83.1-1.2,157.9-35.8,211.8-90.9c54.3-55.5,87.4-131.9,86.2-215.7c-1.2-83.5-36.1-158.6-91.6-212.6
		c-55.5-53.9-131.5-86.6-215-85.4c-83.8,1.2-159.2,36.4-213.2,92.3C-1139.3,9035.4-1171.8,9111.2-1170.6,9194.3z"/>
</g>
</svg>
