<?xml version="1.0" encoding="utf-8"?>
<!-- Generator: Adobe Illustrator 26.2.1, SVG Export Plug-In . SVG Version: 6.00 Build 0)  -->
<svg version="1.1" id="Layer_1" xmlns="http://www.w3.org/2000/svg" xmlns:xlink="http://www.w3.org/1999/xlink" x="0px" y="0px"
	 viewBox="0 0 329.6 329.6" enable-background="new 0 0 329.6 329.6" xml:space="preserve">
<path fill="none" stroke="#FFFFFF" stroke-width="1.6" stroke-miterlimit="10" d="M-302.3,4.3c1.2,83.5,36.1,158.5,91.5,212.4
	c55.5,54,131.6,86.7,215.1,85.6c83.1-1.2,157.9-35.8,211.8-90.9c54.3-55.5,87.4-131.9,86.2-215.7c-1.2-83.5-36.1-158.6-91.6-212.6
	c-55.5-53.9-131.5-86.6-215-85.4c-83.8,1.2-159.2,36.4-213.2,92.3C-271-154.6-303.5-78.8-302.3,4.3z"/>
<g>
	<path fill="none" stroke="#FFFFFF" stroke-width="1.6" stroke-miterlimit="10" d="M-109.2,1.5c0.4,30.1,13,57.2,33,76.7
		c20,19.5,47.5,31.3,77.7,30.9c30-0.4,57-12.9,76.5-32.8c19.6-20.1,31.5-47.6,31.1-77.9c-0.4-30.2-13-57.3-33.1-76.8
		c-20-19.5-47.5-31.3-77.6-30.9c-30.3,0.4-57.5,13.1-77,33.3C-97.9-55.8-109.6-28.5-109.2,1.5z"/>
	<line fill="none" stroke="#FFFFFF" stroke-width="1.6" stroke-miterlimit="10" x1="215.8" y1="-211.8" x2="76.1" y2="-78.3"/>
	<line fill="none" stroke="#FFFFFF" stroke-width="1.6" stroke-miterlimit="10" x1="-72.4" y1="-81.7" x2="-206.1" y2="-221.2"/>
	<line fill="none" stroke="#FFFFFF" stroke-width="1.6" stroke-miterlimit="10" x1="78" y1="76.3" x2="210.7" y2="216.9"/>
	<line fill="none" stroke="#FFFFFF" stroke-width="1.6" stroke-miterlimit="10" x1="-80.6" y1="73.6" x2="-219.8" y2="207.6"/>
	<path fill="none" stroke="#FFFFFF" stroke-width="1.6" stroke-miterlimit="10" d="M-238-90l92.5,0.8c0,0-23.6,41.5-23,80.9
		c0.7,46.5,19.9,85.8,19.9,85.8l-94.6-1.7c0,0,25.2-46.1,24.7-81.7S-226.7-71.4-238-90z"/>
	<polyline fill="none" stroke="#FFFFFF" stroke-width="1.6" stroke-miterlimit="10" points="249,-126.1 247.8,2.4 151.9,0.4 
		151.4,-33.5 183.7,-31.9 184.1,-64.5 217.9,-63.3 217.4,-96.4 248.7,-94.7 	"/>
	<path fill="none" stroke="#FFFFFF" stroke-width="1.6" stroke-miterlimit="10" d="M109.3-150.2l3.1-100.5c0,0,9.3-5.2,9.2-11.4
		c-0.1-9.6-19.1-8.5-19.2-19.1c-1,8.2-19.4,10.1-19.3,20.5c0.1,6.6,6.5,8.3,6.5,8.3l-2.8,100"/>
	<path fill="none" stroke="#FFFFFF" stroke-width="1.6" stroke-miterlimit="10" d="M-79.5-160.5l0.8-94.4c0,0,9.3-2.9,9.2-9.9
		c-0.1-9.6-18.8-5.4-19-18.6c-1.4,10.9-18.8,7.6-19.6,18.5c-0.5,6.6,6.5,8.3,6.5,8.3l-0.8,98.2"/>
	<line fill="none" stroke="#FFFFFF" stroke-width="1.6" stroke-miterlimit="10" x1="88.8" y1="-225.4" x2="-78.9" y2="-230.7"/>
	<line fill="none" stroke="#FFFFFF" stroke-width="1.6" stroke-miterlimit="10" x1="87.8" y1="-185.6" x2="-79.9" y2="-190.9"/>
	<line fill="none" stroke="#FFFFFF" stroke-width="1.6" stroke-miterlimit="10" x1="112.1" y1="208.2" x2="-114.2" y2="201.2"/>
</g>
<g>
	<g>
		<path fill="#FFAA00" d="M-34.8-8.6c-2.8,0-5.2-0.1-7.1-0.4c-1.9-0.3-3.4-0.8-4.6-1.4c-1.2-0.6-2-1.5-2.5-2.5
			c-0.5-1.1-0.8-2.3-0.8-3.9c0-1.1,0.1-2.2,0.4-3.3c0.3-1.1,0.7-2.4,1.3-3.7l2.5,0.8c-1.1,2.3-1.6,4.2-1.6,5.8
			c0,1.6,0.8,2.8,2.3,3.6c1.5,0.8,4,1.1,7.3,1.1h5.6c1.9,0,3.5-0.1,4.7-0.2s2.2-0.3,2.9-0.6c0.7-0.3,1.2-0.6,1.5-1.1
			s0.4-1.1,0.4-1.8c0-0.5,0-1-0.1-1.7c-0.1-0.7-0.2-1.6-0.4-2.7l-0.6-3.3l2.8-0.4l0.5,3.3c0.2,1.2,0.3,2.2,0.4,2.9
			c0.1,0.8,0.1,1.4,0.1,1.9c0,1.4-0.3,2.6-0.8,3.5c-0.5,1-1.4,1.7-2.6,2.3c-1.2,0.6-2.7,1-4.6,1.3C-29.6-8.7-32-8.6-34.8-8.6z
			 M-37.7-23.8c-0.5,0-1-0.2-1.3-0.5c-0.3-0.3-0.5-0.8-0.5-1.5s0.2-1.2,0.5-1.5c0.3-0.3,0.7-0.5,1.3-0.5h0.4c0.5,0,1,0.2,1.3,0.5
			c0.3,0.3,0.5,0.8,0.5,1.5s-0.2,1.2-0.5,1.5c-0.3,0.3-0.7,0.5-1.3,0.5H-37.7z M-32.5-23.8c-0.5,0-1-0.2-1.3-0.5
			c-0.3-0.3-0.5-0.8-0.5-1.5s0.2-1.2,0.5-1.5c0.3-0.3,0.7-0.5,1.3-0.5h0.4c0.5,0,1,0.2,1.3,0.5c0.3,0.3,0.5,0.8,0.5,1.5
			s-0.2,1.2-0.5,1.5c-0.3,0.3-0.7,0.5-1.3,0.5H-32.5z"/>
		<path fill="#FFAA00" d="M-8-9.1c-1.3,0-2.4-0.1-3.3-0.3c-0.9-0.2-1.6-0.6-2.2-1.1s-0.9-1.1-1.2-1.9c-0.2-0.8-0.4-1.8-0.4-2.9
			v-23.4h3v23.4c0,1,0.3,1.7,0.8,2.2c0.6,0.4,1.4,0.6,2.6,0.6h1.4v2.6L-8-9.1L-8-9.1z"/>
		<path fill="#FFAA00" d="M-7.9-11.7l0.8-0.8h1.4c2.3,0,3.4-1.1,3.4-3.4v-6.3h2.8v6.3c0,2.3,1.1,3.4,3.4,3.4h1.4v2.6L4.5-9.1
			C0.8-9.1-1.4-10.4-2-13h-0.2c-0.3,1.5-0.9,2.5-1.7,3.1c-0.9,0.6-2.2,0.9-4,0.9V-11.7z M-1.2-27c-0.5,0-1-0.2-1.3-0.5
			s-0.5-0.8-0.5-1.5s0.2-1.2,0.5-1.5s0.7-0.5,1.3-0.5h0.4c0.5,0,1,0.2,1.3,0.5S1-29.7,1-29s-0.2,1.2-0.5,1.5S-0.2-27-0.7-27H-1.2z"
			/>
		<path fill="#FFAA00" d="M4.5-11.7l0.8-0.8h1.4c1.2,0,2.3,0,3.3-0.1c1-0.1,2-0.2,3.1-0.5s2.1-0.6,3.3-1c1.2-0.4,2.5-1,3.9-1.7
			l3.7-1.8v-0.2L17.9-19l-8.3-2v3.4H6.9v-3.1c0-1.1,0.3-2,0.9-2.5c0.6-0.6,1.4-0.9,2.4-0.9c0.3,0,0.6,0,1.1,0.1
			c0.4,0.1,1.1,0.2,1.9,0.4l9.8,2.5c1.5,0.4,2.7,0.6,3.7,0.8c1,0.1,1.8,0.2,2.6,0.2h0.6v3.4h-3v0.5c0,1.3,0.3,2.3,0.9,2.8
			c0.6,0.5,1.5,0.8,2.7,0.8h1.4v2.6L31-9.1c-1.2,0-2.2-0.1-3-0.3c-0.8-0.2-1.5-0.6-2-1.1c-0.5-0.5-0.9-1.1-1.2-1.9
			c-0.3-0.8-0.4-1.7-0.4-2.8l-3.1,1.9c-1.7,1-3.1,1.8-4.4,2.3c-1.3,0.6-2.5,1-3.6,1.3S11.1-9.2,10-9.2C8.9-9.1,7.8-9.1,6.6-9.1H4.5
			V-11.7z M17.2-1.1c-0.5,0-1-0.2-1.3-0.5c-0.3-0.3-0.5-0.8-0.5-1.5s0.2-1.2,0.5-1.5C16.3-4.8,16.7-5,17.2-5h0.4
			c0.5,0,1,0.2,1.3,0.5c0.3,0.3,0.5,0.8,0.5,1.5s-0.2,1.2-0.5,1.5c-0.3,0.3-0.7,0.5-1.3,0.5H17.2z"/>
		<path fill="#FFAA00" d="M31-11.7l0.8-0.8h1.2c1.3,0,2.2-0.3,2.8-0.9c0.6-0.6,0.9-1.5,0.9-2.8v-22.5h3v22.5c0,2.5-0.5,4.3-1.6,5.4
			c-1.1,1.1-2.7,1.7-5,1.7h-2V-11.7z"/>
		<path fill="#FFAA00" d="M45.5-38.7h3v29.6h-3V-38.7z"/>
		<path fill="#FFAA00" d="M-27.5,35.9c-1.2,0-2.3-0.1-3.1-0.3s-1.5-0.5-2-1c-0.5-0.5-0.9-1.1-1.1-1.8s-0.4-1.6-0.4-2.7v-0.7h-0.2
			c-0.4,1.2-1,2.1-1.9,2.7c-0.9,0.6-2,0.9-3.2,0.9c-1.8,0-3.2-0.5-4.2-1.4s-1.5-2.3-1.5-4.1c0-0.7,0.1-1.4,0.4-2.1s0.6-1.3,1.2-1.9
			c0.5-0.6,1.2-1.3,2.1-1.9c0.9-0.6,1.9-1.3,3.1-2l4-2.3v-2h2.8v14.4c0,1.1,0.3,1.8,0.8,2.2c0.6,0.4,1.4,0.6,2.6,0.6h1.4v2.6
			L-27.5,35.9z M-38.9,29.6c1.6,0,2.8-0.2,3.5-0.7s1-1.3,1-2.5v-5.8l-4,2.2c-1.4,0.8-2.4,1.5-3,2.1c-0.6,0.7-0.9,1.4-0.9,2.2
			c0,0.8,0.3,1.5,0.8,1.9C-41,29.4-40.1,29.6-38.9,29.6z M-38.2,12c-0.5,0-1-0.2-1.3-0.5c-0.3-0.3-0.5-0.8-0.5-1.5s0.2-1.2,0.5-1.5
			c0.3-0.3,0.7-0.5,1.3-0.5h0.4c0.5,0,1,0.2,1.3,0.5C-36.2,8.8-36,9.3-36,10s-0.2,1.2-0.5,1.5c-0.3,0.3-0.7,0.5-1.3,0.5H-38.2z
			 M-33.1,12c-0.5,0-1-0.2-1.3-0.5c-0.3-0.3-0.5-0.8-0.5-1.5s0.2-1.2,0.5-1.5c0.3-0.3,0.7-0.5,1.3-0.5h0.4c0.5,0,1,0.2,1.3,0.5
			c0.3,0.3,0.5,0.8,0.5,1.5s-0.2,1.2-0.5,1.5c-0.3,0.3-0.7,0.5-1.3,0.5H-33.1z"/>
		<path fill="#FFAA00" d="M-27.5,33.3l0.8-0.8h1.4c2.3,0,3.4-1.1,3.4-3.4v-6.3h2.8v6.3c0,2.3,1.1,3.4,3.4,3.4h1.4v2.6l-0.8,0.8
			c-3.7,0-5.8-1.3-6.5-3.9h-0.2c-0.3,1.5-0.9,2.5-1.7,3.1c-0.9,0.6-2.2,0.9-4,0.9V33.3z M-23.3,43.9c-0.5,0-1-0.2-1.3-0.5
			c-0.3-0.3-0.5-0.8-0.5-1.5s0.2-1.2,0.5-1.5c0.3-0.3,0.7-0.5,1.3-0.5h0.4c0.5,0,1,0.2,1.3,0.5c0.3,0.3,0.5,0.8,0.5,1.5
			s-0.2,1.2-0.5,1.5c-0.3,0.3-0.7,0.5-1.3,0.5H-23.3z M-18.1,43.9c-0.5,0-1-0.2-1.3-0.5c-0.3-0.3-0.5-0.8-0.5-1.5s0.2-1.2,0.5-1.5
			c0.3-0.3,0.7-0.5,1.3-0.5h0.4c0.5,0,1,0.2,1.3,0.5c0.3,0.3,0.5,0.8,0.5,1.5s-0.2,1.2-0.5,1.5c-0.3,0.3-0.7,0.5-1.3,0.5H-18.1z"/>
		<path fill="#FFAA00" d="M-15.1,33.3l0.8-0.8h0.6c1.8,0,3-0.2,3.8-0.7c0.8-0.4,1.2-1.3,1.2-2.5c0-0.5,0-1.1-0.1-1.8
			c-0.1-0.7-0.2-1.7-0.4-3l-0.6-3.3l2.8-0.4l0.5,3.3c0.2,1.3,0.3,2.4,0.4,3.2s0.1,1.5,0.1,2c0,2.2-0.7,3.9-2,5
			c-1.3,1.1-3.2,1.6-5.7,1.6h-1.4V33.3z M-11.7,15.9c-0.5,0-1-0.2-1.3-0.5s-0.5-0.8-0.5-1.5s0.2-1.2,0.5-1.5s0.7-0.5,1.3-0.5h0.4
			c0.5,0,1,0.2,1.3,0.5s0.5,0.8,0.5,1.5s-0.2,1.2-0.5,1.5s-0.7,0.5-1.3,0.5H-11.7z M-6.6,15.9c-0.5,0-1-0.2-1.3-0.5
			c-0.3-0.3-0.5-0.8-0.5-1.5s0.2-1.2,0.5-1.5c0.3-0.3,0.7-0.5,1.3-0.5h0.4c0.5,0,1,0.2,1.3,0.5c0.3,0.3,0.5,0.8,0.5,1.5
			s-0.2,1.2-0.5,1.5c-0.3,0.3-0.7,0.5-1.3,0.5H-6.6z"/>
		<path fill="#FFAA00" d="M-1.2,6.3h3v29.6h-3V6.3z"/>
		<path fill="#FFAA00" d="M9.3,35.9c-1,0-1.8-0.3-2.4-0.9C6.3,34.5,6,33.7,6,32.5v-3.1h2.8v3h5.4c0.9,0,1.7,0,2.2-0.1
			c0.6-0.1,1.1-0.1,1.4-0.3c0.3-0.1,0.6-0.3,0.7-0.5c0.1-0.2,0.2-0.5,0.2-0.8c0-0.3-0.1-0.7-0.2-1.2c-0.1-0.5-0.4-1.1-0.7-2.1L14,17
			l2.8-1l4.1,11.2c0.4,1.1,0.8,1.9,1.1,2.6c0.3,0.7,0.6,1.2,0.9,1.6c0.3,0.4,0.6,0.7,1,0.8c0.3,0.2,0.7,0.2,1.1,0.2h1v2.6l-0.8,0.8
			c-0.7,0-1.4-0.1-1.9-0.2c-0.5-0.1-1-0.3-1.5-0.6c-0.4-0.3-0.8-0.6-1.2-1.1c-0.3-0.5-0.7-1-1-1.7h-0.2c-0.2,1.3-0.7,2.2-1.5,2.8
			c-0.9,0.5-2.1,0.8-3.8,0.8H9.3z M14.7,11.7c-0.5,0-1-0.2-1.3-0.5c-0.3-0.3-0.5-0.8-0.5-1.5c0-0.7,0.2-1.2,0.5-1.5
			c0.3-0.3,0.7-0.5,1.3-0.5h0.4c0.5,0,1,0.2,1.3,0.5c0.3,0.3,0.5,0.8,0.5,1.5c0,0.7-0.2,1.2-0.5,1.5c-0.3,0.3-0.7,0.5-1.3,0.5H14.7z
			"/>
		<path fill="#FFAA00" d="M25.2,33.3l0.8-0.8h1.2c1.3,0,2.2-0.3,2.8-0.9c0.6-0.6,0.9-1.5,0.9-2.8V6.3h3v22.5c0,2.5-0.5,4.3-1.6,5.4
			c-1.1,1.1-2.7,1.7-5,1.7h-2V33.3z"/>
		<path fill="#FFAA00" d="M39.8,6.3h3v29.6h-3V6.3z"/>
	</g>
</g>
<g>
	<g>
		<path fill="#FFAA00" d="M-226.5-106.1h1.7l0.1-0.1c-0.3-0.4-0.5-0.8-0.6-1.3c-0.1-0.5-0.2-1-0.2-1.5c0-0.6,0.1-1.2,0.3-1.8
			c0.2-0.5,0.5-1,0.9-1.4s0.9-0.7,1.4-0.9c0.5-0.2,1.1-0.3,1.8-0.3c0.9,0,1.7,0.2,2.3,0.5c0.6,0.3,1.2,0.8,1.6,1.4l-1.6,1.8
			c-0.3-0.5-0.7-0.8-1.2-0.9c-0.4-0.2-0.9-0.2-1.4-0.2c-0.7,0-1.3,0.2-1.8,0.6c-0.5,0.4-0.7,0.9-0.7,1.6c0,0.8,0.3,1.5,1,1.9
			c0.6,0.5,1.5,0.7,2.6,0.7h3.6v2.5h-9.8V-106.1z"/>
		<path fill="#FFAA00" d="M-208.2-103.8c-1,0-1.8-0.1-2.4-0.2c-0.7-0.2-1.2-0.4-1.6-0.8c-0.4-0.4-0.7-0.9-0.9-1.5
			c-0.2-0.6-0.3-1.3-0.3-2.2V-126h2.2v17.5c0,0.8,0.2,1.3,0.6,1.6c0.4,0.3,1.1,0.5,1.9,0.5h1.1v2L-208.2-103.8L-208.2-103.8z"/>
		<path fill="#FFAA00" d="M-208.2-105.8l0.6-0.6h1c1.7,0,2.6-0.8,2.6-2.5v-4.7h2.1v4.7c0,1.7,0.8,2.5,2.5,2.5h1v2l-0.6,0.6
			c-2.8,0-4.4-1-4.9-2.9h-0.1c-0.2,1.1-0.6,1.9-1.3,2.3c-0.6,0.4-1.6,0.6-3,0.6V-105.8z M-205.1-97.8c-0.4,0-0.7-0.1-1-0.3
			c-0.2-0.2-0.4-0.6-0.4-1.1c0-0.5,0.1-0.9,0.4-1.1c0.2-0.2,0.6-0.3,1-0.3h0.3c0.4,0,0.7,0.1,1,0.3c0.2,0.2,0.4,0.6,0.4,1.1
			c0,0.5-0.1,0.9-0.4,1.1c-0.2,0.2-0.6,0.3-1,0.3H-205.1z M-201.2-97.8c-0.4,0-0.7-0.1-1-0.3c-0.2-0.2-0.4-0.6-0.4-1.1
			c0-0.5,0.1-0.9,0.4-1.1c0.2-0.2,0.6-0.3,1-0.3h0.3c0.4,0,0.7,0.1,1,0.3c0.2,0.2,0.4,0.6,0.4,1.1c0,0.5-0.1,0.9-0.4,1.1
			c-0.2,0.2-0.6,0.3-1,0.3H-201.2z"/>
		<path fill="#FFAA00" d="M-198.9-105.8l0.6-0.6h0.9c1,0,1.7-0.2,2.1-0.7c0.4-0.4,0.6-1.1,0.6-2.1V-126h2.2v16.9
			c0,1.8-0.4,3.2-1.2,4c-0.8,0.9-2,1.3-3.8,1.3h-1.5V-105.8z"/>
		<path fill="#FFAA00" d="M-189.2-99.2h2.1c2.4,0,4.2-0.5,5.4-1.6c1.2-1.1,1.7-2.5,1.7-4.4v-0.7h-0.2c-0.3,0.7-0.7,1.2-1.4,1.6
			s-1.4,0.6-2.3,0.6c-1.6,0-2.8-0.4-3.7-1.3c-0.9-0.8-1.3-2-1.3-3.6c0-0.9,0.1-1.8,0.4-2.5s0.6-1.5,1.1-2.1s1.1-1.1,1.7-1.4
			c0.7-0.3,1.4-0.5,2.2-0.5c1.7,0,3.1,0.7,4.1,2.2c1,1.5,1.5,3.6,1.5,6.2c0,3.2-0.8,5.7-2.3,7.4c-1.5,1.8-3.8,2.7-6.9,2.7h-2.1
			V-99.2z M-183.3-106.4c0.9,0,1.5-0.1,2.1-0.2c0.5-0.2,0.9-0.4,1.2-0.7c0-1.6-0.3-2.9-1-3.9c-0.6-0.9-1.5-1.4-2.6-1.4
			c-1,0-1.8,0.3-2.4,1c-0.6,0.7-0.8,1.6-0.8,2.7c0,0.9,0.2,1.5,0.7,1.9c0.5,0.4,1.2,0.6,2.2,0.6H-183.3z"/>
		<path fill="#FFAA00" d="M-174.6-106.2l5.6-5.5l-7.7-8.8l1.6-1.4l7.6,8.7l0.1-0.1c0.4-0.4,0.7-0.7,1-1.1c0.3-0.3,0.5-0.7,0.6-1.1
			c0.2-0.4,0.3-0.8,0.3-1.2c0.1-0.4,0.1-0.9,0.1-1.5v-7.7h2.2v7.7c0,0.7,0,1.3-0.1,1.9c-0.1,0.5-0.2,1-0.4,1.5
			c-0.2,0.5-0.5,0.9-0.8,1.4c-0.4,0.5-0.8,0.9-1.3,1.5l-0.3,0.3l1.8,2.1c0.7,0.8,1.1,1.4,1.4,1.9c0.3,0.5,0.4,1,0.4,1.4
			c0,0.7-0.2,1.3-0.7,1.8c-0.5,0.5-1.2,0.8-2.1,0.8h-9.3V-106.2z M-175.1-125.2h1.1l0-0.1c-0.2-0.2-0.3-0.4-0.4-0.7
			c-0.1-0.3-0.1-0.5-0.1-0.8c0-0.8,0.3-1.4,0.8-1.9c0.5-0.5,1.2-0.8,2-0.8c0.5,0,0.9,0.1,1.4,0.3c0.5,0.2,0.8,0.5,1.1,0.9l-1.1,1.3
			c-0.4-0.5-0.9-0.7-1.4-0.7c-0.4,0-0.7,0.1-0.9,0.3c-0.2,0.2-0.4,0.4-0.4,0.7c0,0.4,0.2,0.8,0.6,1c0.4,0.2,0.9,0.4,1.6,0.4h1.9v1.9
			h-6.1V-125.2z M-167.6-110.2l-3.9,3.7l0,0.1h7.3L-167.6-110.2z"/>
		<path fill="#FFAA00" d="M-158.8-126h2.2v22.2h-2.2V-126z"/>
	</g>
</g>
<g>
	<g>
		<path fill="#FFAA00" d="M-28.3-244.7h1.7l0.1-0.1c-0.3-0.4-0.5-0.8-0.6-1.3c-0.2-0.5-0.2-1-0.2-1.5c0-0.6,0.1-1.2,0.3-1.8
			c0.2-0.5,0.5-1,0.9-1.4c0.4-0.4,0.9-0.7,1.4-0.9c0.5-0.2,1.1-0.3,1.8-0.3c0.9,0,1.7,0.2,2.3,0.5s1.2,0.8,1.6,1.4l-1.6,1.8
			c-0.3-0.5-0.7-0.8-1.2-0.9c-0.4-0.2-0.9-0.2-1.4-0.2c-0.7,0-1.3,0.2-1.8,0.6c-0.5,0.4-0.7,0.9-0.7,1.6c0,0.8,0.3,1.5,1,1.9
			c0.6,0.5,1.5,0.7,2.6,0.7h3.6v2.5h-9.8V-244.7z"/>
		<path fill="#FFAA00" d="M-10.1-242.4c-1,0-1.8-0.1-2.4-0.2c-0.7-0.2-1.2-0.4-1.6-0.8s-0.7-0.9-0.9-1.5c-0.2-0.6-0.3-1.3-0.3-2.2
			v-17.5h2.2v17.5c0,0.8,0.2,1.3,0.6,1.6c0.4,0.3,1.1,0.5,2,0.5h1v2L-10.1-242.4L-10.1-242.4z"/>
		<path fill="#FFAA00" d="M-10.1-244.4l0.6-0.6h1c1.7,0,2.5-0.8,2.5-2.5v-4.7h2.1v4.7c0,1.7,0.8,2.5,2.5,2.5h1v2l-0.6,0.6
			c-2.8,0-4.4-1-4.9-2.9h-0.2c-0.2,1.1-0.6,1.9-1.3,2.3c-0.6,0.4-1.6,0.6-3,0.6V-244.4z M-6.9-236.4c-0.4,0-0.7-0.1-1-0.3
			c-0.2-0.2-0.4-0.6-0.4-1.1c0-0.5,0.1-0.9,0.4-1.1c0.2-0.2,0.6-0.3,1-0.3h0.3c0.4,0,0.7,0.1,1,0.3c0.2,0.2,0.4,0.6,0.4,1.1
			c0,0.5-0.1,0.9-0.4,1.1c-0.2,0.2-0.6,0.3-1,0.3H-6.9z M-3-236.4c-0.4,0-0.7-0.1-1-0.3c-0.2-0.2-0.4-0.6-0.4-1.1
			c0-0.5,0.1-0.9,0.4-1.1c0.2-0.2,0.6-0.3,1-0.3h0.3c0.4,0,0.7,0.1,1,0.3c0.2,0.2,0.4,0.6,0.4,1.1c0,0.5-0.1,0.9-0.4,1.1
			c-0.2,0.2-0.6,0.3-1,0.3H-3z"/>
		<path fill="#FFAA00" d="M-0.8-244.4l0.6-0.6h1c1.7,0,2.6-0.8,2.6-2.5v-4.7h2.1v4.7c0,1.7,0.8,2.5,2.5,2.5h1v2l-0.6,0.6
			c-2.8,0-4.4-1-4.9-2.9H3.5c-0.2,1.1-0.7,1.9-1.3,2.3c-0.6,0.4-1.6,0.6-3,0.6V-244.4z M4.3-236.4c-0.4,0-0.7-0.1-1-0.3
			C3.1-237,3-237.4,3-237.9c0-0.5,0.1-0.9,0.4-1.1c0.2-0.2,0.6-0.3,1-0.3h0.3c0.4,0,0.7,0.1,1,0.3c0.2,0.2,0.4,0.6,0.4,1.1
			c0,0.5-0.1,0.9-0.4,1.1c-0.2,0.2-0.6,0.3-1,0.3H4.3z"/>
		<path fill="#FFAA00" d="M8.5-244.4l0.6-0.6h0.5c1.3,0,2.3-0.2,2.9-0.5s0.9-1,0.9-1.9c0-0.4,0-0.8-0.1-1.4
			c-0.1-0.6-0.2-1.3-0.3-2.2l-0.4-2.5l2.1-0.3l0.4,2.5c0.1,1,0.2,1.8,0.3,2.4c0.1,0.6,0.1,1.1,0.1,1.5c0,1.7-0.5,2.9-1.5,3.8
			c-1,0.8-2.4,1.2-4.3,1.2h-1V-244.4z M13.1-257.4c-0.4,0-0.7-0.1-1-0.3c-0.2-0.2-0.4-0.6-0.4-1.1s0.1-0.9,0.4-1.1
			c0.2-0.2,0.6-0.3,1-0.3h0.3c0.4,0,0.7,0.1,1,0.3c0.2,0.2,0.4,0.6,0.4,1.1s-0.1,0.9-0.4,1.1c-0.2,0.2-0.6,0.3-1,0.3H13.1z"/>
		<path fill="#FFAA00" d="M18.7-244.9l5.6-5.5l-7.7-8.8l1.6-1.4l7.6,8.7l0.1-0.1c0.4-0.4,0.7-0.7,1-1.1s0.5-0.7,0.6-1.1
			s0.3-0.8,0.3-1.2c0.1-0.4,0.1-0.9,0.1-1.5v-7.7h2.2v7.7c0,0.7,0,1.3-0.1,1.9c-0.1,0.5-0.2,1-0.4,1.5c-0.2,0.5-0.5,0.9-0.8,1.4
			s-0.8,0.9-1.3,1.5l-0.3,0.3l1.8,2.1c0.7,0.8,1.1,1.4,1.4,1.9c0.3,0.5,0.4,1,0.4,1.4c0,0.7-0.2,1.3-0.7,1.8
			c-0.5,0.5-1.2,0.8-2.1,0.8h-9.3V-244.9z M18.2-263.8h1.1l0-0.1c-0.2-0.2-0.3-0.4-0.4-0.7c-0.1-0.3-0.1-0.5-0.1-0.8
			c0-0.8,0.3-1.4,0.8-1.9c0.5-0.5,1.2-0.8,2-0.8c0.5,0,0.9,0.1,1.4,0.3c0.5,0.2,0.8,0.5,1.1,0.9l-1.1,1.3c-0.4-0.5-0.9-0.7-1.4-0.7
			c-0.4,0-0.7,0.1-0.9,0.3s-0.4,0.4-0.4,0.7c0,0.4,0.2,0.8,0.6,1c0.4,0.2,0.9,0.4,1.6,0.4h1.9v1.9h-6.1V-263.8z M25.7-248.8
			l-3.9,3.7l0,0.1h7.3L25.7-248.8z"/>
		<path fill="#FFAA00" d="M34.5-264.6h2.2v22.2h-2.2V-264.6z"/>
	</g>
</g>
<g>
	<g>
		<path fill="#FFAA00" d="M-38.7,193.9c-2.6,0-4.7-0.7-6.1-2c-1.5-1.3-2.2-3.2-2.2-5.5c0-0.9,0.1-1.9,0.4-2.9s0.6-2.1,1-3.1l1.9,0.6
			c-0.4,0.8-0.7,1.6-0.9,2.4c-0.2,0.8-0.4,1.7-0.4,2.4c0,1.7,0.5,3,1.4,4c1,0.9,2.3,1.4,4,1.4h1.8c2.1,0,3.7-0.4,4.7-1.3
			s1.5-2.2,1.5-4c0-0.3,0-0.6,0-1c0-0.3-0.1-0.7-0.1-1.1s-0.1-0.8-0.2-1.3c-0.1-0.5-0.2-1-0.3-1.6l-0.5-2.5l2.1-0.4l0.5,2.5
			c0.1,0.7,0.2,1.2,0.3,1.8c0.1,0.5,0.2,1,0.2,1.4s0.1,0.8,0.1,1.2c0,0.4,0,0.7,0,1c0,2.7-0.7,4.8-2.2,6S-35.6,193.9-38.7,193.9z
			 M-38.3,177.3c-0.4,0-0.7-0.1-1-0.3c-0.2-0.2-0.4-0.6-0.4-1.1c0-0.5,0.1-0.9,0.4-1.1c0.2-0.2,0.6-0.3,1-0.3h0.3
			c0.4,0,0.7,0.1,1,0.3c0.2,0.2,0.4,0.6,0.4,1.1c0,0.5-0.1,0.9-0.4,1.1c-0.2,0.2-0.6,0.3-1,0.3H-38.3z"/>
		<path fill="#FFAA00" d="M-27.5,193.7h1.6c2.2,0,3.9-0.4,5.1-1.2c1.2-0.8,1.9-1.9,2.2-3.4h-3.5c-1.6,0-2.8-0.4-3.7-1.3
			c-0.9-0.8-1.3-2-1.3-3.5c0-0.9,0.1-1.8,0.4-2.5c0.3-0.8,0.6-1.5,1.1-2.1c0.5-0.6,1.1-1.1,1.7-1.4s1.4-0.5,2.2-0.5
			c1.7,0,3,0.7,3.9,2.2c0.9,1.5,1.4,3.6,1.4,6.2v0.3h1.4v2l-0.6,0.6h-1c-0.4,2.3-1.4,4.1-3,5.3c-1.5,1.2-3.6,1.9-6.3,1.9h-1.6V193.7
			z M-25.1,184c0,0.9,0.2,1.5,0.7,1.9s1.2,0.6,2.2,0.6h3.7v-0.9c0-1.6-0.3-2.9-0.9-3.9c-0.6-0.9-1.4-1.4-2.5-1.4c-1,0-1.8,0.3-2.4,1
			S-25.1,182.9-25.1,184z"/>
		<path fill="#FFAA00" d="M-15.6,187.1l0.6-0.6h1c1.7,0,2.6-0.8,2.6-2.5v-4.7h2.1v4.7c0,1.7,0.8,2.5,2.5,2.5h1v2l-0.6,0.6
			c-2.8,0-4.4-1-4.9-2.9h-0.1c-0.2,1.1-0.7,1.9-1.3,2.3c-0.6,0.4-1.6,0.6-3,0.6V187.1z M-10.6,175.6c-0.4,0-0.7-0.1-1-0.3
			c-0.2-0.2-0.4-0.6-0.4-1.1c0-0.5,0.1-0.9,0.4-1.1c0.2-0.2,0.6-0.3,1-0.3h0.3c0.4,0,0.7,0.1,1,0.3c0.2,0.2,0.4,0.6,0.4,1.1
			c0,0.5-0.1,0.9-0.4,1.1c-0.2,0.2-0.6,0.3-1,0.3H-10.6z"/>
		<path fill="#FFAA00" d="M-2.4,187.3c-0.5,0.6-1,1.1-1.6,1.3c-0.6,0.3-1.4,0.4-2.3,0.4v-2l0.6-0.6c0.4,0,0.7,0,1-0.2
			c0.3-0.1,0.5-0.3,0.7-0.5s0.4-0.5,0.6-0.8c0.2-0.3,0.3-0.8,0.5-1.2l0.8-2.2c0.5-1.2,1.1-2.1,1.8-2.8c0.8-0.6,1.8-1,3-1
			c1.5,0,2.6,0.7,3.4,2c0.8,1.3,1.2,3.2,1.2,5.6v1.4l-1.8,2.6L-2.4,187.3z M-1.2,185l6.5,1.7v-1.3c0-1.6-0.3-2.8-0.8-3.7
			s-1.2-1.3-2.1-1.3c-0.8,0-1.3,0.2-1.8,0.7c-0.4,0.5-0.8,1-1,1.7L-1.2,185z"/>
		<path fill="#FFAA00" d="M9.8,193.7h1.6c2.2,0,3.9-0.4,5.1-1.2c1.2-0.8,1.9-1.9,2.2-3.4h-3.5c-1.6,0-2.8-0.4-3.7-1.3
			s-1.3-2-1.3-3.5c0-0.9,0.1-1.8,0.4-2.5c0.3-0.8,0.6-1.5,1.1-2.1c0.5-0.6,1.1-1.1,1.7-1.4c0.7-0.3,1.4-0.5,2.2-0.5
			c1.7,0,3,0.7,3.9,2.2c1,1.5,1.4,3.6,1.4,6.2v0.3h1.4v2l-0.6,0.6h-1c-0.4,2.3-1.4,4.1-3,5.3c-1.5,1.2-3.6,1.9-6.3,1.9H9.8V193.7z
			 M12.2,184c0,0.9,0.2,1.5,0.7,1.9c0.5,0.4,1.2,0.6,2.2,0.6h3.7v-0.9c0-1.6-0.3-2.9-0.9-3.9c-0.6-0.9-1.4-1.4-2.5-1.4
			c-1,0-1.8,0.3-2.4,1C12.5,182,12.2,182.9,12.2,184z M12.4,173.5h1.1l0-0.1c-0.2-0.2-0.3-0.4-0.4-0.7c-0.1-0.3-0.2-0.5-0.2-0.8
			c0-0.8,0.3-1.4,0.8-2c0.5-0.5,1.2-0.8,2-0.8c0.5,0,0.9,0.1,1.4,0.3c0.5,0.2,0.8,0.5,1.1,0.9l-1.1,1.4c-0.4-0.5-0.9-0.7-1.4-0.7
			c-0.4,0-0.7,0.1-0.9,0.3c-0.2,0.2-0.4,0.4-0.4,0.7c0,0.4,0.2,0.8,0.6,1s0.9,0.4,1.6,0.4h1.9v1.9h-6.1V173.5z"/>
		<path fill="#FFAA00" d="M28.1,190.1c-0.6-0.4-1.2-0.6-1.8-0.8c-0.5-0.1-1.2-0.2-2-0.3h-2.7v-2l0.6-0.6h2.2v-19.6h2.2v19.9
			c0.4,0.1,0.9,0.2,1.3,0.4c0.4,0.2,0.9,0.4,1.3,0.7l1.5,0.9l-1.3,2.2L28.1,190.1z"/>
		<path fill="#FFAA00" d="M32,166.9h2.2v22.2H32V166.9z"/>
	</g>
</g>
<g>
	<g>
		<path fill="#FFAA00" d="M179.9-104c-2.5,0-4.5-0.7-5.9-2c-1.4-1.3-2.1-3.2-2.1-5.5c0-0.9,0.1-1.9,0.4-2.9c0.2-1,0.6-2.1,1-3.1
			l1.9,0.6c-0.4,0.8-0.7,1.7-0.9,2.6c-0.2,0.9-0.4,1.8-0.4,2.5c0,1.6,0.5,2.9,1.3,3.8c0.9,0.9,2.2,1.3,3.8,1.3h1.8
			c0.9,0,1.7-0.1,2.4-0.3s1.2-0.6,1.6-1c0.4-0.5,0.7-1.1,0.9-1.9s0.3-1.8,0.3-2.9v-20.5h2.2v19.6h3.7v2l-0.6,0.6H188
			c-0.2,2.5-1,4.3-2.3,5.5S182.4-104,179.9-104z"/>
		<path fill="#FFAA00" d="M191.2-113.1l0.6-0.6h1c0.4,0,0.7,0,1-0.1c0.3-0.1,0.6-0.2,0.8-0.4c0.2-0.2,0.5-0.4,0.7-0.7
			s0.4-0.7,0.7-1.2l1.3-2.5l1.7,0.9l-1.6,3l0.4,0.3c0.6,0.4,1.3,0.7,1.9,0.9s1.2,0.2,1.8,0.2c0.9,0,1.6-0.2,2.1-0.7
			c0.5-0.4,0.7-1.2,0.7-2.2v-2.3h2.1v2.3c0,1.1,0.2,1.8,0.5,2.3c0.3,0.4,0.8,0.6,1.6,0.6h0.6c1.3,0,1.9-0.6,1.9-1.9
			c0-0.3,0-0.7,0-1.2c0-0.5-0.1-1.1-0.2-1.6l-0.2-1.7l2.1-0.3l0.2,1.6c0.1,0.6,0.1,1.2,0.2,1.8c0,0.6,0.1,1,0.1,1.4
			c0,1.4-0.4,2.5-1.1,3.3c-0.7,0.8-1.8,1.2-3.2,1.2c-2.4,0-3.7-1-4.1-3h-0.2c-0.2,1-0.6,1.7-1.2,2.2c-0.6,0.5-1.3,0.8-2.2,0.8
			c-1.2,0-2.5-0.5-4-1.4l-0.9-0.6c-0.6,0.6-1.2,1.1-2,1.3s-1.7,0.3-2.9,0.3V-113.1z"/>
		<path fill="#FFAA00" d="M212.4-106.5h1.1c1.1,0,2-0.2,2.7-0.5c0.7-0.3,1.2-0.7,1.7-1.3c0.4-0.5,0.7-1.2,0.8-1.9s0.2-1.5,0.2-2.2
			c0-0.6,0-1.2-0.1-1.8s-0.1-1.2-0.2-1.8l-0.6-3.4l2.1-0.4l0.4,2.3c0.1,0.7,0.2,1.4,0.3,2c0.1,0.6,0.1,1.2,0.2,1.8h2.8v2l-0.6,0.6
			h-2.3c-0.1,1-0.3,1.9-0.6,2.8c-0.3,0.9-0.7,1.6-1.3,2.3s-1.3,1.2-2.2,1.6s-2,0.6-3.3,0.6h-1.1V-106.5z"/>
		<path fill="#FFAA00" d="M223.2-113.1l0.6-0.6h0.9c1,0,1.7-0.2,2.1-0.7c0.4-0.4,0.6-1.1,0.6-2.1v-16.9h2.2v16.9
			c0,1.8-0.4,3.2-1.2,4c-0.8,0.9-2,1.3-3.8,1.3h-1.5V-113.1z"/>
		<path fill="#FFAA00" d="M234.1-133.4h2.2v22.2h-2.2V-133.4z"/>
	</g>
</g>
<g>
	<g>
		<path fill="#FFAA00" d="M-242-210.5c-1.8,2.1-3.5,3.8-5,5c-1.5,1.2-2.8,2.1-4.1,2.6s-2.4,0.5-3.6,0.2c-1.1-0.3-2.3-1-3.4-2
			c-0.8-0.7-1.5-1.5-2.2-2.5c-0.7-0.9-1.3-2.1-1.9-3.4l2.2-1.4c1,2.3,2.1,4,3.3,5.1c1.3,1.1,2.8,1.4,4.4,0.8
			c1.6-0.6,3.5-2.2,5.7-4.7l3.7-4.2c1.3-1.4,2.3-2.7,3-3.7c0.7-1,1.2-1.9,1.5-2.6c0.3-0.7,0.3-1.4,0.1-1.9c-0.2-0.5-0.5-1-1.1-1.5
			l-4.8-4.2l1.8-2.1l4.8,4.2c1.7,1.5,3.3,1.4,4.8-0.3l0.9-1.1l2,1.7l0.1,1.1c-2.4,2.8-4.9,3.5-7.3,2.2l-0.1,0.2
			c0.6,0.7,0.9,1.4,1.1,2.2c0.1,0.7,0,1.6-0.3,2.5c-0.4,0.9-1,2-1.9,3.3C-239.2-213.8-240.4-212.3-242-210.5z M-236.5-205.4
			c-0.4,0.4-0.7,0.6-1.2,0.7s-0.9-0.2-1.4-0.6c-0.5-0.5-0.8-0.9-0.8-1.3c0-0.4,0.1-0.9,0.5-1.3l0.3-0.3c0.4-0.4,0.7-0.6,1.2-0.7
			c0.4,0,0.9,0.2,1.4,0.6c0.5,0.5,0.8,0.9,0.8,1.3c0,0.4-0.1,0.9-0.5,1.3L-236.5-205.4z"/>
		<path fill="#FFAA00" d="M-231.6-226.6l0-1.1l1-1c1.6-1.6,1.6-3.2,0-4.8l-4.4-4.5l2-2l4.4,4.5c1.6,1.6,3.2,1.6,4.8,0l1-1l1.9,1.9
			l0,1.1c-2.6,2.6-5.1,3.2-7.4,1.8l-0.1,0.1c0.8,1.3,1.1,2.4,0.9,3.4c-0.2,1-1,2.1-2.2,3.4L-231.6-226.6z M-221.1-221.9
			c-0.4,0.4-0.8,0.6-1.2,0.6c-0.4,0-0.9-0.2-1.4-0.7s-0.7-1-0.7-1.4c0-0.4,0.2-0.9,0.6-1.2l0.3-0.3c0.4-0.4,0.8-0.6,1.2-0.6
			c0.4,0,0.9,0.2,1.4,0.7c0.5,0.5,0.7,1,0.7,1.4c0,0.4-0.2,0.9-0.6,1.2L-221.1-221.9z M-217.5-225.5c-0.4,0.4-0.8,0.6-1.2,0.6
			c-0.4,0-0.9-0.2-1.4-0.7c-0.5-0.5-0.7-1-0.7-1.4c0-0.4,0.2-0.9,0.6-1.2l0.3-0.3c0.4-0.4,0.8-0.6,1.2-0.6c0.4,0,0.9,0.2,1.4,0.7
			s0.7,1,0.7,1.4c0,0.4-0.2,0.9-0.6,1.2L-217.5-225.5z"/>
		<path fill="#FFAA00" d="M-231.5-254.6c-0.4,0.3-0.8,0.5-1.2,0.5s-0.9-0.3-1.3-0.7s-0.6-0.9-0.6-1.4c0-0.4,0.2-0.8,0.6-1.2l0.4-0.3
			c0.4-0.3,0.8-0.5,1.2-0.5c0.4,0,0.9,0.3,1.3,0.7c0.4,0.5,0.6,0.9,0.6,1.4c0,0.4-0.2,0.8-0.6,1.2L-231.5-254.6z M-230.1-249.3
			c-0.4,0.4-0.8,0.5-1.3,0.5c-0.4,0-0.9-0.3-1.4-0.8s-0.7-1-0.7-1.4c0-0.4,0.2-0.8,0.6-1.2l0.3-0.3c0.4-0.4,0.8-0.5,1.3-0.5
			c0.4,0,0.9,0.3,1.4,0.8c0.5,0.5,0.7,1,0.7,1.4c0,0.4-0.2,0.8-0.6,1.2L-230.1-249.3z M-226.3-252.8c-0.4,0.4-0.8,0.5-1.3,0.5
			c-0.4,0-0.9-0.3-1.4-0.8c-0.5-0.5-0.7-1-0.7-1.4s0.2-0.8,0.6-1.2l0.3-0.3c0.4-0.4,0.8-0.5,1.3-0.5c0.4,0,0.9,0.3,1.4,0.8
			c0.5,0.5,0.7,1,0.7,1.4c0,0.4-0.2,0.8-0.6,1.2L-226.3-252.8z M-222.9-235.2l0.1-1.1l1-0.9c1.7-1.5,1.7-3.1,0.2-4.8l-4.3-4.7
			l2.1-1.9l4.3,4.7c1.5,1.7,3.1,1.7,4.8,0.2l1-0.9l1.8,2l-0.1,1.1c-2.7,2.5-5.2,3-7.4,1.5l-0.1,0.1c0.8,1.3,1,2.4,0.8,3.4
			c-0.2,1-1,2.1-2.4,3.3L-222.9-235.2z"/>
		<path fill="#FFAA00" d="M-213.9-243.5l0.1-1.1l2.8-2.4c1-0.9,1.7-1.6,1.9-2.2c0.2-0.6,0.1-1.1-0.3-1.6c-0.1-0.2-0.3-0.3-0.5-0.4
			c-0.2-0.1-0.4-0.3-0.7-0.4c-0.3-0.1-0.7-0.2-1.1-0.3c-0.4-0.1-1-0.2-1.7-0.4l-7.6-1.6l-4.4-5.4l8.2-17.2l2.3,2.8l-7.5,15.8
			l0.1,0.2l13.9,2.8c1.1,0.2,2,0.4,2.8,0.4c0.8,0.1,1.5,0,2.1-0.1c0.6-0.1,1.2-0.3,1.8-0.6s1.1-0.7,1.7-1.2l1.7,2l-0.1,1.1
			c-0.7,0.6-1.4,1.1-2.1,1.4s-1.3,0.6-2,0.7c-0.7,0.1-1.4,0.1-2.3,0c-0.8-0.1-1.8-0.3-2.9-0.6l-1.1-0.3l-0.1,0.2
			c0.1,0.1,0.3,0.3,0.4,0.4c0.1,0.1,0.2,0.2,0.3,0.4c0.9,1.1,1.3,2.2,1.1,3.4c-0.2,1.2-0.8,2.2-1.9,3.2l-3.4,2.9L-213.9-243.5z"/>
		<path fill="#FFAA00" d="M-200.2-254.9l0.2-1.1l0.9-0.7c1-0.8,1.6-1.6,1.7-2.4c0.1-0.8-0.2-1.7-1-2.8l-13.6-17.9l2.4-1.8l13.6,17.9
			c1.5,2,2.2,3.7,2,5.3c-0.1,1.6-1.1,3-3,4.4l-1.6,1.2L-200.2-254.9z"/>
		<path fill="#FFAA00" d="M-204.2-285.5l2.4-1.7l17.2,24.1l-2.4,1.7L-204.2-285.5z"/>
	</g>
</g>
</svg>
