<?xml version="1.0" encoding="utf-8"?>
<!-- Generator: Adobe Illustrator 26.2.1, SVG Export Plug-In . SVG Version: 6.00 Build 0)  -->
<svg version="1.1" id="Layer_1" xmlns="http://www.w3.org/2000/svg" xmlns:xlink="http://www.w3.org/1999/xlink" x="0px" y="0px"
	 viewBox="0 0 329.6 329.6" enable-background="new 0 0 329.6 329.6" xml:space="preserve">
<path fill="none" stroke="#FFFFFF" stroke-width="1.6" stroke-miterlimit="10" d="M-302.3,4.3c1.2,83.5,36.1,158.5,91.5,212.4
	c55.5,54,131.6,86.7,215.1,85.6c83.1-1.2,157.9-35.8,211.8-90.9c54.3-55.5,87.4-131.9,86.2-215.7c-1.2-83.5-36.1-158.6-91.6-212.6
	c-55.5-53.9-131.5-86.6-215-85.4c-83.8,1.2-159.2,36.4-213.2,92.3C-271-154.6-303.5-78.8-302.3,4.3z"/>
<g>
	<path fill="none" stroke="#FFFFFF" stroke-width="1.6" stroke-miterlimit="10" d="M-109.2,1.5c0.4,30.1,13,57.2,33,76.7
		c20,19.5,47.5,31.3,77.7,30.9c30-0.4,57-12.9,76.5-32.8c19.6-20.1,31.5-47.6,31.1-77.9c-0.4-30.2-13-57.3-33.1-76.8
		c-20-19.5-47.5-31.3-77.6-30.9c-30.3,0.4-57.5,13.1-77,33.3C-97.9-55.8-109.6-28.5-109.2,1.5z"/>
	<line fill="none" stroke="#FFFFFF" stroke-width="1.6" stroke-miterlimit="10" x1="215.8" y1="-211.8" x2="76.1" y2="-78.3"/>
	<line fill="none" stroke="#FFFFFF" stroke-width="1.6" stroke-miterlimit="10" x1="-72.4" y1="-81.7" x2="-206.1" y2="-221.2"/>
	<line fill="none" stroke="#FFFFFF" stroke-width="1.6" stroke-miterlimit="10" x1="78" y1="76.3" x2="210.7" y2="216.9"/>
	<line fill="none" stroke="#FFFFFF" stroke-width="1.6" stroke-miterlimit="10" x1="-80.6" y1="73.6" x2="-219.8" y2="207.6"/>
	<path fill="none" stroke="#FFFFFF" stroke-width="1.6" stroke-miterlimit="10" d="M-238-90l92.5,0.8c0,0-23.6,41.5-23,80.9
		c0.7,46.5,19.9,85.8,19.9,85.8l-94.6-1.7c0,0,25.2-46.1,24.7-81.7S-226.7-71.4-238-90z"/>
	<polyline fill="none" stroke="#FFFFFF" stroke-width="1.6" stroke-miterlimit="10" points="249,-126.1 247.8,2.4 151.9,0.4 
		151.4,-33.5 183.7,-31.9 184.1,-64.5 217.9,-63.3 217.4,-96.4 248.7,-94.7 	"/>
	<path fill="none" stroke="#FFFFFF" stroke-width="1.6" stroke-miterlimit="10" d="M109.3-150.2l3.1-100.5c0,0,9.3-5.2,9.2-11.4
		c-0.1-9.6-19.1-8.5-19.2-19.1c-1,8.2-19.4,10.1-19.3,20.5c0.1,6.6,6.5,8.3,6.5,8.3l-2.8,100"/>
	<path fill="none" stroke="#FFFFFF" stroke-width="1.6" stroke-miterlimit="10" d="M-79.5-160.5l0.8-94.4c0,0,9.3-2.9,9.2-9.9
		c-0.1-9.6-18.8-5.4-19-18.6c-1.4,10.9-18.8,7.6-19.6,18.5c-0.5,6.6,6.5,8.3,6.5,8.3l-0.8,98.2"/>
	<line fill="none" stroke="#FFFFFF" stroke-width="1.6" stroke-miterlimit="10" x1="88.8" y1="-225.4" x2="-78.9" y2="-230.7"/>
	<line fill="none" stroke="#FFFFFF" stroke-width="1.6" stroke-miterlimit="10" x1="87.8" y1="-185.6" x2="-79.9" y2="-190.9"/>
	<line fill="none" stroke="#FFFFFF" stroke-width="1.6" stroke-miterlimit="10" x1="112.1" y1="208.2" x2="-114.2" y2="201.2"/>
</g>
</svg>
