<?xml version="1.0" encoding="utf-8"?>
<!-- Generator: Adobe Illustrator 26.2.1, SVG Export Plug-In . SVG Version: 6.00 Build 0)  -->
<svg version="1.1" id="Layer_1" xmlns="http://www.w3.org/2000/svg" xmlns:xlink="http://www.w3.org/1999/xlink" x="0px" y="0px"
	 viewBox="0 0 48.4 48.4" enable-background="new 0 0 48.4 48.4" xml:space="preserve">
<g>
	<path fill="none" stroke="#FFFFFF" stroke-width="1.6" stroke-miterlimit="10" d="M-302.3,4.3c1.2,83.5,36.1,158.5,91.5,212.4
		c55.5,54,131.6,86.7,215.1,85.6c83.1-1.2,157.9-35.8,211.8-90.9c54.3-55.5,87.4-131.9,86.2-215.7c-1.2-83.5-36.1-158.6-91.6-212.6
		c-55.5-53.9-131.5-86.6-215-85.4c-83.8,1.2-159.2,36.4-213.2,92.3C-271-154.6-303.5-78.8-302.3,4.3z"/>
	<g>
		<path fill="none" stroke="#FFFFFF" stroke-width="1.6" stroke-miterlimit="10" d="M-109.2,1.5c0.4,30.1,13,57.2,33,76.7
			c20,19.5,47.5,31.3,77.7,30.9c30-0.4,57-12.9,76.5-32.8c19.6-20.1,31.5-47.6,31.1-77.9c-0.4-30.2-13-57.3-33.1-76.8
			c-20-19.5-47.5-31.3-77.6-30.9c-30.3,0.4-57.5,13.1-77,33.3C-97.9-55.8-109.6-28.5-109.2,1.5z"/>
		<line fill="none" stroke="#FFFFFF" stroke-width="1.6" stroke-miterlimit="10" x1="215.8" y1="-211.8" x2="76.1" y2="-78.3"/>
		<line fill="none" stroke="#FFFFFF" stroke-width="1.6" stroke-miterlimit="10" x1="-72.4" y1="-81.7" x2="-206.1" y2="-221.2"/>
		<line fill="none" stroke="#FFFFFF" stroke-width="1.6" stroke-miterlimit="10" x1="78" y1="76.3" x2="210.7" y2="216.9"/>
		<line fill="none" stroke="#FFFFFF" stroke-width="1.6" stroke-miterlimit="10" x1="-80.6" y1="73.6" x2="-219.8" y2="207.6"/>
		<path fill="none" stroke="#FFFFFF" stroke-width="1.6" stroke-miterlimit="10" d="M-238-90l92.5,0.8c0,0-23.6,41.5-23,80.9
			c0.7,46.5,19.9,85.8,19.9,85.8l-94.6-1.7c0,0,25.2-46.1,24.7-81.7C-219.1-41.4-226.7-71.4-238-90z"/>
		<polyline fill="none" stroke="#FFFFFF" stroke-width="1.6" stroke-miterlimit="10" points="249,-126.1 247.8,2.4 151.9,0.4 
			151.4,-33.5 183.7,-31.9 184.1,-64.5 217.9,-63.3 217.4,-96.4 248.7,-94.7 		"/>
		<path fill="none" stroke="#FFFFFF" stroke-width="1.6" stroke-miterlimit="10" d="M109.3-150.2l3.1-100.5c0,0,9.3-5.2,9.2-11.4
			c-0.1-9.6-19.1-8.5-19.2-19.1c-1,8.2-19.4,10.1-19.3,20.5c0.1,6.6,6.5,8.3,6.5,8.3l-2.8,100"/>
		<path fill="none" stroke="#FFFFFF" stroke-width="1.6" stroke-miterlimit="10" d="M-79.5-160.5l0.8-94.4c0,0,9.3-2.9,9.2-9.9
			c-0.1-9.6-18.8-5.4-19-18.6c-1.4,10.9-18.8,7.6-19.6,18.5c-0.5,6.6,6.5,8.3,6.5,8.3l-0.8,98.2"/>
		<line fill="none" stroke="#FFFFFF" stroke-width="1.6" stroke-miterlimit="10" x1="88.8" y1="-225.4" x2="-78.9" y2="-230.7"/>
		<line fill="none" stroke="#FFFFFF" stroke-width="1.6" stroke-miterlimit="10" x1="87.8" y1="-185.6" x2="-79.9" y2="-190.9"/>
		<line fill="none" stroke="#FFFFFF" stroke-width="1.6" stroke-miterlimit="10" x1="112.1" y1="208.2" x2="-114.2" y2="201.2"/>
	</g>
	<g>
		<g>
			<path fill="#FFAA00" d="M-78.9-21.7v17.6h-2.2v-17.6h-5.5v-2h13.3v2H-78.9z"/>
			<path fill="#FFAA00" d="M-70.6-24.8h2.1v8.6h0.3c0.3-0.9,0.7-1.6,1.3-2c0.6-0.4,1.4-0.7,2.4-0.7c1.3,0,2.3,0.4,3,1.3
				s1.1,2.2,1.1,4.1v9.4h-2.1v-9.3c0-1.2-0.2-2-0.7-2.7c-0.5-0.6-1.2-0.9-2.2-0.9c-0.9,0-1.6,0.3-2.2,0.8c-0.6,0.5-0.9,1.3-0.9,2.2
				v9.9h-2.1V-24.8z"/>
			<path fill="#FFAA00" d="M-51.3-3.8c-0.8,0-1.6-0.1-2.4-0.4c-0.7-0.3-1.4-0.7-1.9-1.3s-0.9-1.4-1.2-2.4c-0.3-1-0.4-2.1-0.4-3.4
				c0-1.3,0.1-2.5,0.4-3.4c0.3-1,0.7-1.7,1.2-2.4c0.5-0.6,1.1-1.1,1.9-1.3c0.7-0.3,1.5-0.4,2.4-0.4c0.8,0,1.6,0.1,2.3,0.4
				c0.7,0.3,1.3,0.7,1.8,1.3c0.5,0.6,0.9,1.4,1.1,2.4s0.4,2.1,0.4,3.4v0.5H-55v0.9c0,1.4,0.3,2.5,1,3.2c0.6,0.7,1.5,1,2.7,1
				c1,0,1.8-0.2,2.4-0.6c0.6-0.4,1.1-1,1.5-1.9l1.5,1.1c-0.4,1-1.1,1.8-2,2.4S-50-3.8-51.3-3.8z M-51.3-17.1c-1.2,0-2.1,0.4-2.7,1.1
				c-0.6,0.7-1,1.8-1,3.2v0.4h7v-0.4C-48-15.7-49.1-17.1-51.3-17.1z"/>
			<path fill="#FFAA00" d="M-24.9-6.8h-0.3c-0.2,0.9-0.7,1.6-1.5,2.2s-1.9,0.9-3.3,0.9c-1.1,0-2-0.2-2.9-0.6c-0.9-0.4-1.6-1-2.2-1.8
				s-1.1-1.9-1.4-3.2c-0.3-1.3-0.5-2.8-0.5-4.5c0-3.5,0.7-6,2-7.7S-32-24-29.7-24c1.7,0,3.1,0.4,4.1,1.1c1,0.7,1.8,1.8,2.4,3
				l-1.8,1.1c-0.4-1-0.9-1.8-1.7-2.4c-0.8-0.6-1.8-0.9-3-0.9c-1.6,0-2.9,0.5-3.8,1.6c-0.9,1.1-1.3,2.5-1.3,4.3v4.4
				c0,1.8,0.4,3.3,1.3,4.3c0.9,1.1,2.1,1.6,3.8,1.6c0.6,0,1.2-0.1,1.8-0.3s1.1-0.5,1.5-0.8c0.4-0.4,0.8-0.8,1-1.3
				C-25.1-8.7-25-9.3-25-10v-2.1h-3.9v-2h6v10h-2.1V-6.8z"/>
			<path fill="#FFAA00" d="M-9.8-4.1c-1.4,0-2.1-0.7-2.1-2.1v-0.3h-0.3c-0.2,0.9-0.7,1.6-1.3,2s-1.4,0.7-2.3,0.7
				c-1.4,0-2.4-0.4-3.1-1.1c-0.7-0.7-1-1.8-1-3.1c0-1.3,0.4-2.4,1.3-3.2c0.9-0.8,2.3-1.2,4.2-1.2h2.6v-1.6c0-1.1-0.2-1.8-0.7-2.4
				c-0.5-0.5-1.2-0.8-2.3-0.8c-0.8,0-1.5,0.2-2,0.5c-0.5,0.4-1,0.9-1.3,1.6l-1.3-1.2c0.4-0.8,1-1.4,1.8-2c0.8-0.5,1.8-0.8,2.9-0.8
				c1.6,0,2.9,0.4,3.7,1.2c0.8,0.8,1.3,2,1.3,3.5V-6h1.5v1.9H-9.8z M-15.3-5.7c0.5,0,0.9-0.1,1.4-0.3s0.8-0.4,1.1-0.7
				c0.3-0.3,0.5-0.6,0.7-0.9c0.2-0.3,0.3-0.7,0.3-1.1v-2.2h-2.7c-1.1,0-1.9,0.2-2.5,0.6s-0.8,0.9-0.8,1.6v0.8c0,0.7,0.2,1.3,0.7,1.6
				C-16.6-5.8-16-5.7-15.3-5.7z"/>
			<path fill="#FFAA00" d="M-5.4-4.1v-14.4h2.1v2.7H-3c0.2-0.8,0.7-1.5,1.2-2c0.6-0.5,1.4-0.7,2.3-0.7h0.8v2.2h-1.4
				c-1,0-1.8,0.2-2.4,0.7s-0.9,1.1-0.9,2v9.6H-5.4z"/>
			<path fill="#FFAA00" d="M12.1-6.4h-0.3c-0.3,0.9-0.7,1.6-1.4,2C9.9-4,9.1-3.8,8.2-3.8C7.4-3.8,6.6-4,5.9-4.3S4.7-5.2,4.3-5.8
				c-0.4-0.7-0.8-1.4-1-2.4c-0.2-0.9-0.3-2-0.3-3.1s0.1-2.2,0.3-3.1c0.2-0.9,0.6-1.7,1-2.4c0.4-0.7,1-1.2,1.7-1.5s1.4-0.5,2.3-0.5
				c0.9,0,1.7,0.2,2.3,0.6c0.6,0.4,1.1,1.1,1.4,2h0.3v-8.6h2.1v20.7h-2.1V-6.4z M8.9-5.7c0.4,0,0.9-0.1,1.3-0.2
				c0.4-0.1,0.7-0.3,1-0.6c0.3-0.2,0.5-0.5,0.7-0.9s0.3-0.7,0.3-1.1v-5.9c0-0.4-0.1-0.8-0.3-1.1s-0.4-0.6-0.7-0.9
				c-0.3-0.2-0.6-0.4-1-0.6C9.7-17,9.3-17,8.9-17c-1.2,0-2.1,0.4-2.7,1.1c-0.6,0.7-0.9,1.8-0.9,3.1v2.9c0,1.3,0.3,2.4,0.9,3.1
				C6.8-6,7.7-5.7,8.9-5.7z"/>
			<path fill="#FFAA00" d="M23.4-3.8c-0.8,0-1.6-0.1-2.4-0.4c-0.7-0.3-1.4-0.7-1.9-1.3c-0.5-0.6-0.9-1.4-1.2-2.4s-0.4-2.1-0.4-3.4
				c0-1.3,0.1-2.5,0.4-3.4s0.7-1.7,1.2-2.4c0.5-0.6,1.1-1.1,1.9-1.3c0.7-0.3,1.5-0.4,2.4-0.4s1.6,0.1,2.3,0.4
				c0.7,0.3,1.3,0.7,1.8,1.3c0.5,0.6,0.9,1.4,1.1,2.4s0.4,2.1,0.4,3.4v0.5h-9.3v0.9c0,1.4,0.3,2.5,1,3.2c0.6,0.7,1.5,1,2.7,1
				c1,0,1.8-0.2,2.4-0.6s1.1-1,1.5-1.9l1.5,1.1c-0.4,1-1.1,1.8-2,2.4S24.8-3.8,23.4-3.8z M23.4-17.1c-1.2,0-2.1,0.4-2.7,1.1
				c-0.6,0.7-1,1.8-1,3.2v0.4h7v-0.4C26.8-15.7,25.7-17.1,23.4-17.1z"/>
			<path fill="#FFAA00" d="M32.4-4.1v-14.4h2.1v2.4h0.3c0.3-0.9,0.7-1.6,1.3-2c0.6-0.4,1.4-0.7,2.4-0.7c1.3,0,2.3,0.4,3,1.3
				s1.1,2.2,1.1,4.1v9.4h-2.1v-9.3c0-1.2-0.2-2-0.7-2.7c-0.5-0.6-1.2-0.9-2.2-0.9c-0.9,0-1.6,0.3-2.2,0.8c-0.6,0.5-0.9,1.3-0.9,2.2
				v9.9H32.4z"/>
			<path fill="#FFAA00" d="M50.7-3.8c-1.2,0-2.2-0.2-3.1-0.7c-0.8-0.5-1.6-1.2-2.2-2L47-7.8C47.5-7,48-6.5,48.6-6.1
				c0.6,0.4,1.3,0.6,2.1,0.6c0.8,0,1.5-0.2,2-0.6c0.5-0.4,0.7-1,0.7-1.8c0-0.6-0.2-1.1-0.5-1.5c-0.3-0.4-0.9-0.7-1.8-0.8l-1.1-0.2
				c-1.4-0.3-2.4-0.7-3.1-1.3s-1-1.5-1-2.8c0-0.7,0.1-1.4,0.3-1.9c0.2-0.5,0.5-1,1-1.3c0.4-0.3,0.9-0.6,1.5-0.8
				c0.6-0.2,1.2-0.2,1.9-0.2c1.1,0,2,0.2,2.7,0.6s1.4,0.9,1.9,1.7l-1.4,1.3c-0.3-0.4-0.7-0.8-1.3-1.2c-0.5-0.3-1.2-0.5-2-0.5
				c-1.7,0-2.5,0.8-2.5,2.3c0,0.7,0.2,1.2,0.5,1.6c0.4,0.3,1,0.6,1.8,0.7l1.1,0.2c1.5,0.3,2.5,0.7,3.1,1.4s0.9,1.5,0.9,2.7
				c0,1.4-0.4,2.5-1.2,3.3C53.5-4.2,52.3-3.8,50.7-3.8z"/>
			<path fill="#FFAA00" d="M69.9-3.8c-0.8,0-1.6-0.1-2.4-0.4c-0.7-0.3-1.4-0.7-1.9-1.3s-0.9-1.4-1.2-2.4c-0.3-1-0.4-2.1-0.4-3.4
				c0-1.3,0.1-2.5,0.4-3.4c0.3-1,0.7-1.7,1.2-2.4c0.5-0.6,1.1-1.1,1.9-1.3c0.7-0.3,1.5-0.4,2.4-0.4c0.8,0,1.6,0.1,2.4,0.4
				c0.7,0.3,1.4,0.7,1.9,1.3c0.5,0.6,0.9,1.4,1.2,2.4c0.3,1,0.4,2.1,0.4,3.4c0,1.3-0.1,2.5-0.4,3.4c-0.3,1-0.7,1.7-1.2,2.4
				S73-4.5,72.2-4.2C71.5-3.9,70.7-3.8,69.9-3.8z M69.9-5.7c1.2,0,2-0.3,2.7-1c0.6-0.7,0.9-1.8,0.9-3.2v-2.9c0-1.4-0.3-2.5-0.9-3.2
				c-0.6-0.7-1.5-1-2.7-1c-1.2,0-2,0.3-2.7,1c-0.6,0.7-0.9,1.8-0.9,3.2v2.9c0,1.4,0.3,2.5,0.9,3.2C67.8-6,68.7-5.7,69.9-5.7z"/>
			<path fill="#FFAA00" d="M79.7-16.7h-2.1v-1.9h2.1v-3.5c0-1,0.2-1.6,0.7-2.1s1.1-0.7,2.1-0.7h2.2v1.9h-2.8v4.4h2.8v1.9h-2.8v12.6
				h-2.1V-16.7z"/>
			<path fill="#FFAA00" d="M-64.4,25.9c-0.8,0-1.3-0.2-1.7-0.5c-0.3-0.3-0.5-0.9-0.5-1.7V13.3h-2.1v-1.9h1.3c0.4,0,0.7-0.1,0.9-0.3
				c0.1-0.2,0.2-0.5,0.2-1V7.5h1.9v4h2.8v1.9h-2.8V24h2.7v1.9H-64.4z"/>
			<path fill="#FFAA00" d="M-58.4,5.2h2.1v8.6h0.3c0.3-0.9,0.7-1.6,1.3-2c0.6-0.4,1.4-0.7,2.4-0.7c1.3,0,2.3,0.4,3,1.3
				c0.7,0.9,1.1,2.2,1.1,4.1v9.4h-2.1v-9.3c0-1.2-0.2-2-0.7-2.7s-1.2-0.9-2.2-0.9c-0.9,0-1.6,0.3-2.2,0.8c-0.6,0.5-0.9,1.3-0.9,2.2
				v9.9h-2.1V5.2z"/>
			<path fill="#FFAA00" d="M-39.1,26.2c-0.8,0-1.6-0.1-2.4-0.4c-0.7-0.3-1.4-0.7-1.9-1.3s-0.9-1.4-1.2-2.4c-0.3-1-0.4-2.1-0.4-3.4
				c0-1.3,0.1-2.5,0.4-3.4c0.3-1,0.7-1.7,1.2-2.4c0.5-0.6,1.1-1.1,1.9-1.3c0.7-0.3,1.5-0.4,2.4-0.4c0.8,0,1.6,0.1,2.3,0.4
				c0.7,0.3,1.3,0.7,1.8,1.3c0.5,0.6,0.9,1.4,1.1,2.4s0.4,2.1,0.4,3.4v0.5h-9.3v0.9c0,1.4,0.3,2.5,1,3.2c0.6,0.7,1.5,1,2.7,1
				c1,0,1.8-0.2,2.4-0.6c0.6-0.4,1.1-1,1.5-1.9l1.5,1.1c-0.4,1-1.1,1.8-2,2.4S-37.8,26.2-39.1,26.2z M-39.1,12.9
				c-1.2,0-2.1,0.4-2.7,1.1c-0.6,0.7-1,1.8-1,3.2v0.4h7v-0.4C-35.7,14.3-36.9,12.9-39.1,12.9z"/>
			<path fill="#FFAA00" d="M-24,25.9V6.3h10.8v2h-8.6V15h8v2h-8v6.9h8.6v2H-24z"/>
			<path fill="#FFAA00" d="M-5.5,26.2c-1.2,0-2.2-0.2-3.1-0.7c-0.8-0.5-1.6-1.2-2.2-2l1.5-1.2c0.5,0.7,1.1,1.2,1.6,1.6
				c0.6,0.4,1.3,0.6,2.1,0.6c0.8,0,1.5-0.2,2-0.6c0.5-0.4,0.7-1,0.7-1.8c0-0.6-0.2-1.1-0.5-1.5c-0.3-0.4-0.9-0.7-1.8-0.8l-1.1-0.2
				c-1.4-0.3-2.4-0.7-3.1-1.3s-1-1.5-1-2.8c0-0.7,0.1-1.4,0.3-1.9c0.2-0.5,0.5-1,1-1.3c0.4-0.3,0.9-0.6,1.5-0.8
				c0.6-0.2,1.2-0.2,1.9-0.2c1.1,0,2,0.2,2.7,0.6s1.4,0.9,1.9,1.7l-1.4,1.3c-0.3-0.4-0.7-0.8-1.3-1.2c-0.5-0.3-1.2-0.5-2-0.5
				c-1.7,0-2.5,0.8-2.5,2.3c0,0.7,0.2,1.2,0.5,1.6c0.4,0.3,1,0.6,1.8,0.7l1.1,0.2c1.5,0.3,2.5,0.7,3.1,1.4s0.9,1.5,0.9,2.7
				c0,1.4-0.4,2.5-1.2,3.3C-2.7,25.8-3.9,26.2-5.5,26.2z"/>
			<path fill="#FFAA00" d="M6.5,26.2c-1.2,0-2.2-0.2-3.1-0.7c-0.8-0.5-1.6-1.2-2.2-2l1.5-1.2c0.5,0.7,1.1,1.2,1.6,1.6
				c0.6,0.4,1.3,0.6,2.1,0.6c0.8,0,1.5-0.2,2-0.6c0.5-0.4,0.7-1,0.7-1.8c0-0.6-0.2-1.1-0.5-1.5c-0.3-0.4-0.9-0.7-1.8-0.8L6,19.4
				c-1.4-0.3-2.4-0.7-3.1-1.3s-1-1.5-1-2.8c0-0.7,0.1-1.4,0.3-1.9c0.2-0.5,0.5-1,1-1.3c0.4-0.3,0.9-0.6,1.5-0.8
				c0.6-0.2,1.2-0.2,1.9-0.2c1.1,0,2,0.2,2.7,0.6s1.4,0.9,1.9,1.7l-1.4,1.3c-0.3-0.4-0.7-0.8-1.3-1.2c-0.5-0.3-1.2-0.5-2-0.5
				c-1.7,0-2.5,0.8-2.5,2.3c0,0.7,0.2,1.2,0.5,1.6c0.4,0.3,1,0.6,1.8,0.7l1.1,0.2c1.5,0.3,2.5,0.7,3.1,1.4s0.9,1.5,0.9,2.7
				c0,1.4-0.4,2.5-1.2,3.3C9.3,25.8,8.1,26.2,6.5,26.2z"/>
			<path fill="#FFAA00" d="M19.8,26.2c-0.8,0-1.6-0.1-2.4-0.4c-0.7-0.3-1.4-0.7-1.9-1.3c-0.5-0.6-0.9-1.4-1.2-2.4
				c-0.3-1-0.4-2.1-0.4-3.4c0-1.3,0.1-2.5,0.4-3.4c0.3-1,0.7-1.7,1.2-2.4c0.5-0.6,1.1-1.1,1.9-1.3c0.7-0.3,1.5-0.4,2.4-0.4
				c0.8,0,1.6,0.1,2.3,0.4c0.7,0.3,1.3,0.7,1.8,1.3c0.5,0.6,0.9,1.4,1.1,2.4s0.4,2.1,0.4,3.4v0.5h-9.3v0.9c0,1.4,0.3,2.5,1,3.2
				c0.6,0.7,1.5,1,2.7,1c1,0,1.8-0.2,2.4-0.6c0.6-0.4,1.1-1,1.5-1.9l1.5,1.1c-0.4,1-1.1,1.8-2,2.4S21.1,26.2,19.8,26.2z M19.8,12.9
				c-1.2,0-2.1,0.4-2.7,1.1c-0.6,0.7-1,1.8-1,3.2v0.4h7v-0.4C23.1,14.3,22,12.9,19.8,12.9z"/>
			<path fill="#FFAA00" d="M28.7,25.9V11.4h2.1v2.4h0.3c0.3-0.9,0.7-1.6,1.3-2c0.6-0.4,1.4-0.7,2.4-0.7c1.3,0,2.3,0.4,3,1.3
				c0.7,0.9,1.1,2.2,1.1,4.1v9.4h-2.1v-9.3c0-1.2-0.2-2-0.7-2.7S34.9,13,33.9,13c-0.9,0-1.6,0.3-2.2,0.8c-0.6,0.5-0.9,1.3-0.9,2.2
				v9.9H28.7z"/>
			<path fill="#FFAA00" d="M47.8,26.2c-1.8,0-3.2-0.6-4.2-1.8s-1.5-3.1-1.5-5.8c0-2.7,0.5-4.6,1.5-5.8c1-1.2,2.4-1.8,4.2-1.8
				c1.4,0,2.5,0.3,3.3,0.9c0.8,0.6,1.4,1.4,1.8,2.4l-1.8,0.9c-0.2-0.7-0.6-1.3-1.1-1.7S48.7,13,47.8,13c-1.2,0-2,0.3-2.6,1
				c-0.6,0.7-0.8,1.8-0.8,3.2v2.9c0,1.4,0.3,2.5,0.8,3.2c0.6,0.7,1.4,1,2.6,1c0.9,0,1.7-0.2,2.3-0.6c0.6-0.4,1-1,1.4-1.9l1.6,1.1
				c-0.4,1-1.1,1.8-1.9,2.4S49.1,26.2,47.8,26.2z"/>
			<path fill="#FFAA00" d="M60.5,26.2c-0.8,0-1.6-0.1-2.4-0.4c-0.7-0.3-1.4-0.7-1.9-1.3s-0.9-1.4-1.2-2.4c-0.3-1-0.4-2.1-0.4-3.4
				c0-1.3,0.1-2.5,0.4-3.4c0.3-1,0.7-1.7,1.2-2.4c0.5-0.6,1.1-1.1,1.9-1.3c0.7-0.3,1.5-0.4,2.4-0.4c0.8,0,1.6,0.1,2.3,0.4
				c0.7,0.3,1.3,0.7,1.8,1.3c0.5,0.6,0.9,1.4,1.1,2.4s0.4,2.1,0.4,3.4v0.5h-9.3v0.9c0,1.4,0.3,2.5,1,3.2c0.6,0.7,1.5,1,2.7,1
				c1,0,1.8-0.2,2.4-0.6c0.6-0.4,1.1-1,1.5-1.9l1.5,1.1c-0.4,1-1.1,1.8-2,2.4S61.8,26.2,60.5,26.2z M60.5,12.9
				c-1.2,0-2.1,0.4-2.7,1.1c-0.6,0.7-1,1.8-1,3.2v0.4h7v-0.4C63.9,14.3,62.7,12.9,60.5,12.9z"/>
		</g>
	</g>
	<g>
		<g>
			<path fill="#FFAA00" d="M-240.6-115.3v13.8h-1.8v-13.8h-4.3v-1.6h10.4v1.6H-240.6z"/>
			<path fill="#FFAA00" d="M-234.1-117.8h1.7v6.8h0.2c0.2-0.7,0.6-1.2,1-1.6c0.5-0.4,1.1-0.5,1.9-0.5c1,0,1.8,0.3,2.4,1
				c0.6,0.7,0.9,1.8,0.9,3.2v7.4h-1.7v-7.3c0-0.9-0.2-1.6-0.6-2.1s-1-0.7-1.7-0.7c-0.7,0-1.2,0.2-1.7,0.6c-0.5,0.4-0.7,1-0.7,1.7
				v7.7h-1.7V-117.8z"/>
			<path fill="#FFAA00" d="M-218.9-101.2c-0.7,0-1.3-0.1-1.8-0.3c-0.6-0.2-1.1-0.6-1.5-1.1c-0.4-0.5-0.7-1.1-1-1.8
				c-0.2-0.7-0.4-1.7-0.4-2.7c0-1.1,0.1-2,0.4-2.7c0.2-0.7,0.6-1.4,1-1.8c0.4-0.5,0.9-0.8,1.5-1.1c0.6-0.2,1.2-0.3,1.8-0.3
				s1.3,0.1,1.8,0.3c0.6,0.2,1,0.6,1.4,1.1c0.4,0.5,0.7,1.1,0.9,1.8c0.2,0.7,0.3,1.6,0.3,2.7v0.4h-7.3v0.7c0,1.1,0.3,1.9,0.8,2.5
				c0.5,0.5,1.2,0.8,2.1,0.8c0.8,0,1.4-0.2,1.9-0.5s0.9-0.8,1.1-1.5l1.1,0.8c-0.4,0.8-0.9,1.4-1.6,1.9
				C-217-101.5-217.9-101.2-218.9-101.2z M-218.9-111.7c-0.9,0-1.6,0.3-2.1,0.9c-0.5,0.6-0.7,1.4-0.7,2.5v0.3h5.5v-0.3
				C-216.3-110.6-217.2-111.7-218.9-111.7z"/>
			<path fill="#FFAA00" d="M-207.1-101.5v-15.4h8.3v1.6h-6.5v5.2h5.9v1.6h-5.9v7H-207.1z"/>
			<path fill="#FFAA00" d="M-196.6-101.5v-11.4h1.7v2.1h0.2c0.2-0.7,0.5-1.2,1-1.6s1.1-0.6,1.8-0.6h0.6v1.7h-1.1
				c-0.8,0-1.4,0.2-1.9,0.5c-0.4,0.4-0.7,0.9-0.7,1.6v7.5H-196.6z"/>
			<path fill="#FFAA00" d="M-188.4-115.6c-0.7,0-1-0.3-1-0.9v-0.4c0-0.6,0.3-0.9,1-0.9s1,0.3,1,0.9v0.4
				C-187.4-115.9-187.8-115.6-188.4-115.6z M-189.3-112.8h1.7v11.4h-1.7V-112.8z"/>
			<path fill="#FFAA00" d="M-180.4-101.2c-0.7,0-1.3-0.1-1.8-0.3c-0.6-0.2-1.1-0.6-1.5-1.1c-0.4-0.5-0.7-1.1-1-1.8
				c-0.2-0.7-0.4-1.7-0.4-2.7c0-1.1,0.1-2,0.4-2.7c0.2-0.7,0.6-1.4,1-1.8c0.4-0.5,0.9-0.8,1.5-1.1c0.6-0.2,1.2-0.3,1.8-0.3
				s1.3,0.1,1.8,0.3c0.6,0.2,1,0.6,1.4,1.1c0.4,0.5,0.7,1.1,0.9,1.8c0.2,0.7,0.3,1.6,0.3,2.7v0.4h-7.3v0.7c0,1.1,0.3,1.9,0.8,2.5
				c0.5,0.5,1.2,0.8,2.1,0.8c0.8,0,1.4-0.2,1.9-0.5s0.9-0.8,1.1-1.5l1.1,0.8c-0.4,0.8-0.9,1.4-1.6,1.9
				C-178.5-101.5-179.3-101.2-180.4-101.2z M-180.4-111.7c-0.9,0-1.6,0.3-2.1,0.9c-0.5,0.6-0.7,1.4-0.7,2.5v0.3h5.5v-0.3
				C-177.7-110.6-178.6-111.7-180.4-111.7z"/>
			<path fill="#FFAA00" d="M-173.4-101.5v-11.4h1.7v1.8h0.2c0.2-0.7,0.6-1.2,1-1.6c0.5-0.4,1.1-0.5,1.9-0.5c1,0,1.8,0.3,2.4,1
				c0.6,0.7,0.9,1.8,0.9,3.2v7.4h-1.7v-7.3c0-0.9-0.2-1.6-0.6-2.1s-1-0.7-1.7-0.7c-0.7,0-1.2,0.2-1.7,0.6c-0.5,0.4-0.7,1-0.7,1.7
				v7.7H-173.4z"/>
			<path fill="#FFAA00" d="M-155.6-103.3h-0.2c-0.2,0.7-0.6,1.3-1.1,1.6c-0.5,0.3-1.1,0.5-1.8,0.5c-0.7,0-1.3-0.1-1.8-0.4
				c-0.5-0.3-0.9-0.7-1.3-1.2s-0.6-1.1-0.8-1.9c-0.2-0.7-0.3-1.6-0.3-2.5s0.1-1.7,0.3-2.5c0.2-0.7,0.4-1.4,0.8-1.9s0.8-0.9,1.3-1.2
				c0.5-0.3,1.1-0.4,1.8-0.4c0.7,0,1.3,0.2,1.8,0.5c0.5,0.3,0.8,0.9,1.1,1.6h0.2v-6.8h1.7v16.3h-1.7V-103.3z M-158.1-102.7
				c0.4,0,0.7-0.1,1-0.2c0.3-0.1,0.6-0.3,0.8-0.4c0.2-0.2,0.4-0.4,0.6-0.7c0.1-0.3,0.2-0.6,0.2-0.9v-4.6c0-0.3-0.1-0.6-0.2-0.9
				c-0.1-0.3-0.3-0.5-0.6-0.7s-0.5-0.3-0.8-0.4s-0.6-0.2-1-0.2c-0.9,0-1.6,0.3-2.1,0.9s-0.7,1.4-0.7,2.4v2.3c0,1,0.2,1.9,0.7,2.4
				S-159.1-102.7-158.1-102.7z"/>
			<path fill="#FFAA00" d="M-147.4-101.2c-0.9,0-1.7-0.2-2.4-0.6c-0.7-0.4-1.2-0.9-1.7-1.6l1.2-1c0.4,0.6,0.8,1,1.3,1.3
				c0.5,0.3,1,0.4,1.7,0.4c0.7,0,1.2-0.2,1.6-0.5s0.6-0.8,0.6-1.4c0-0.5-0.1-0.9-0.4-1.2c-0.2-0.3-0.7-0.5-1.4-0.6l-0.9-0.2
				c-1.1-0.2-1.9-0.6-2.5-1c-0.5-0.5-0.8-1.2-0.8-2.2c0-0.6,0.1-1.1,0.3-1.5c0.2-0.4,0.4-0.8,0.7-1c0.3-0.3,0.7-0.5,1.2-0.6
				c0.4-0.1,0.9-0.2,1.5-0.2c0.9,0,1.6,0.2,2.1,0.5c0.6,0.3,1.1,0.7,1.5,1.3l-1.1,1c-0.2-0.4-0.6-0.7-1-0.9
				c-0.4-0.3-0.9-0.4-1.6-0.4c-1.3,0-2,0.6-2,1.8c0,0.6,0.1,1,0.4,1.2c0.3,0.3,0.8,0.4,1.4,0.6l0.9,0.2c1.2,0.2,2,0.6,2.5,1.1
				c0.5,0.5,0.7,1.2,0.7,2.1c0,1.1-0.3,2-1,2.6C-145.2-101.5-146.2-101.2-147.4-101.2z"/>
		</g>
	</g>
	<g>
		<g>
			<path fill="#FFAA00" d="M-50.2-252v13.8H-52V-252h-4.3v-1.6h10.4v1.6H-50.2z"/>
			<path fill="#FFAA00" d="M-43.8-254.5h1.7v6.8h0.2c0.2-0.7,0.6-1.2,1-1.6c0.5-0.4,1.1-0.5,1.9-0.5c1,0,1.8,0.3,2.4,1
				c0.6,0.7,0.9,1.8,0.9,3.2v7.4h-1.7v-7.3c0-0.9-0.2-1.6-0.6-2.1s-1-0.7-1.7-0.7c-0.7,0-1.2,0.2-1.7,0.6c-0.5,0.4-0.7,1-0.7,1.7
				v7.7h-1.7V-254.5z"/>
			<path fill="#FFAA00" d="M-28.6-238c-0.7,0-1.3-0.1-1.8-0.3c-0.6-0.2-1.1-0.6-1.5-1.1c-0.4-0.5-0.7-1.1-1-1.8s-0.4-1.7-0.4-2.7
				c0-1.1,0.1-2,0.4-2.7s0.6-1.4,1-1.8c0.4-0.5,0.9-0.8,1.5-1.1s1.2-0.3,1.8-0.3s1.3,0.1,1.8,0.3s1,0.6,1.4,1.1
				c0.4,0.5,0.7,1.1,0.9,1.8c0.2,0.7,0.3,1.6,0.3,2.7v0.4h-7.3v0.7c0,1.1,0.3,1.9,0.8,2.5s1.2,0.8,2.1,0.8c0.8,0,1.4-0.2,1.9-0.5
				c0.5-0.3,0.9-0.8,1.1-1.5l1.1,0.8c-0.4,0.8-0.9,1.4-1.6,1.9S-27.6-238-28.6-238z M-28.6-248.4c-0.9,0-1.6,0.3-2.1,0.9
				c-0.5,0.6-0.7,1.4-0.7,2.5v0.3h5.5v-0.3C-26-247.3-26.9-248.4-28.6-248.4z"/>
			<path fill="#FFAA00" d="M-16.8-238.2v-15.4h5.7c2.5,0,3.8,1.5,3.8,4.4c0,2.9-1.3,4.4-3.8,4.4H-15v6.6H-16.8z M-15-246.4h3.9
				c1.3,0,2-0.7,2-2.1v-1.4c0-1.4-0.7-2.1-2-2.1H-15V-246.4z"/>
			<path fill="#FFAA00" d="M-5.1-238.2v-11.4h1.7v2.1h0.2c0.2-0.7,0.5-1.2,1-1.6s1.1-0.6,1.8-0.6h0.6v1.7h-1.1
				c-0.8,0-1.4,0.2-1.9,0.5c-0.4,0.4-0.7,0.9-0.7,1.6v7.5H-5.1z"/>
			<path fill="#FFAA00" d="M6-238c-0.7,0-1.3-0.1-1.8-0.3c-0.6-0.2-1.1-0.6-1.5-1.1c-0.4-0.5-0.7-1.1-1-1.8s-0.4-1.7-0.4-2.7
				c0-1.1,0.1-2,0.4-2.7s0.6-1.4,1-1.8c0.4-0.5,0.9-0.8,1.5-1.1s1.2-0.3,1.8-0.3s1.3,0.1,1.8,0.3c0.6,0.2,1.1,0.6,1.5,1.1
				c0.4,0.5,0.7,1.1,1,1.8s0.4,1.6,0.4,2.7c0,1.1-0.1,2-0.4,2.7s-0.6,1.4-1,1.8c-0.4,0.5-0.9,0.8-1.5,1.1C7.3-238.1,6.7-238,6-238z
				 M6-239.4c0.9,0,1.6-0.3,2.1-0.8c0.5-0.5,0.7-1.4,0.7-2.5v-2.3c0-1.1-0.2-2-0.7-2.5c-0.5-0.5-1.2-0.8-2.1-0.8s-1.6,0.3-2.1,0.8
				c-0.5,0.5-0.7,1.4-0.7,2.5v2.3c0,1.1,0.2,2,0.7,2.5C4.4-239.7,5.1-239.4,6-239.4z"/>
			<path fill="#FFAA00" d="M13.3-249.6h1.7v1.8h0.2c0.2-0.7,0.6-1.3,1.1-1.6c0.5-0.3,1.1-0.5,1.8-0.5c0.7,0,1.3,0.1,1.8,0.4
				c0.5,0.3,0.9,0.7,1.3,1.2c0.4,0.5,0.6,1.1,0.8,1.9s0.3,1.6,0.3,2.5s-0.1,1.7-0.3,2.5s-0.4,1.4-0.8,1.9c-0.4,0.5-0.8,0.9-1.3,1.2
				c-0.5,0.3-1.1,0.4-1.8,0.4c-0.7,0-1.3-0.2-1.8-0.5c-0.5-0.3-0.8-0.9-1.1-1.6h-0.2v6.2h-1.7V-249.6z M17.5-239.4
				c0.9,0,1.6-0.3,2.1-0.9c0.5-0.6,0.7-1.4,0.7-2.4v-2.3c0-1-0.2-1.9-0.7-2.4c-0.5-0.6-1.2-0.9-2.1-0.9c-0.4,0-0.7,0.1-1,0.2
				s-0.6,0.3-0.8,0.4s-0.4,0.4-0.5,0.7s-0.2,0.6-0.2,0.9v4.6c0,0.3,0.1,0.6,0.2,0.9s0.3,0.5,0.5,0.7c0.2,0.2,0.5,0.3,0.8,0.4
				C16.8-239.5,17.1-239.4,17.5-239.4z"/>
			<path fill="#FFAA00" d="M24.8-254.5h1.7v6.8h0.2c0.2-0.7,0.6-1.2,1-1.6c0.5-0.4,1.1-0.5,1.9-0.5c1,0,1.8,0.3,2.4,1
				c0.6,0.7,0.9,1.8,0.9,3.2v7.4h-1.7v-7.3c0-0.9-0.2-1.6-0.6-2.1s-1-0.7-1.7-0.7c-0.7,0-1.2,0.2-1.7,0.6c-0.5,0.4-0.7,1-0.7,1.7
				v7.7h-1.7V-254.5z"/>
			<path fill="#FFAA00" d="M39.9-238c-0.7,0-1.3-0.1-1.8-0.3c-0.6-0.2-1.1-0.6-1.5-1.1c-0.4-0.5-0.7-1.1-1-1.8s-0.4-1.7-0.4-2.7
				c0-1.1,0.1-2,0.4-2.7s0.6-1.4,1-1.8c0.4-0.5,0.9-0.8,1.5-1.1s1.2-0.3,1.8-0.3s1.3,0.1,1.8,0.3s1,0.6,1.4,1.1
				c0.4,0.5,0.7,1.1,0.9,1.8c0.2,0.7,0.3,1.6,0.3,2.7v0.4h-7.3v0.7c0,1.1,0.3,1.9,0.8,2.5s1.2,0.8,2.1,0.8c0.8,0,1.4-0.2,1.9-0.5
				c0.5-0.3,0.9-0.8,1.1-1.5l1.1,0.8c-0.4,0.8-0.9,1.4-1.6,1.9S41-238,39.9-238z M39.9-248.4c-0.9,0-1.6,0.3-2.1,0.9
				c-0.5,0.6-0.7,1.4-0.7,2.5v0.3h5.5v-0.3C42.6-247.3,41.7-248.4,39.9-248.4z"/>
			<path fill="#FFAA00" d="M49.2-238.2c-0.6,0-1-0.1-1.3-0.4c-0.3-0.3-0.4-0.7-0.4-1.3v-8.2h-1.7v-1.5h1c0.3,0,0.6-0.1,0.7-0.3
				c0.1-0.2,0.2-0.4,0.2-0.8v-2.1h1.5v3.1h2.2v1.5h-2.2v8.4h2.1v1.5H49.2z"/>
			<path fill="#FFAA00" d="M57.1-238c-0.9,0-1.7-0.2-2.4-0.6c-0.7-0.4-1.2-0.9-1.7-1.6l1.2-1c0.4,0.6,0.8,1,1.3,1.3
				c0.5,0.3,1,0.4,1.7,0.4c0.7,0,1.2-0.2,1.6-0.5c0.4-0.3,0.6-0.8,0.6-1.4c0-0.5-0.1-0.9-0.4-1.2c-0.2-0.3-0.7-0.5-1.4-0.6l-0.9-0.2
				c-1.1-0.2-1.9-0.6-2.5-1c-0.5-0.5-0.8-1.2-0.8-2.2c0-0.6,0.1-1.1,0.3-1.5s0.4-0.8,0.7-1c0.3-0.3,0.7-0.5,1.2-0.6
				c0.4-0.1,0.9-0.2,1.5-0.2c0.9,0,1.6,0.2,2.1,0.5s1.1,0.7,1.5,1.3l-1.1,1c-0.2-0.4-0.6-0.7-1-0.9c-0.4-0.3-0.9-0.4-1.6-0.4
				c-1.3,0-2,0.6-2,1.8c0,0.6,0.1,1,0.4,1.2s0.8,0.4,1.4,0.6l0.9,0.2c1.2,0.2,2,0.6,2.5,1.1c0.5,0.5,0.7,1.2,0.7,2.1
				c0,1.1-0.3,2-1,2.6C59.3-238.3,58.3-238,57.1-238z"/>
		</g>
	</g>
	<g>
		<g>
			<path fill="#FFAA00" d="M-50.7,180.1v13.8h-1.8v-13.8h-4.3v-1.6h10.4v1.6H-50.7z"/>
			<path fill="#FFAA00" d="M-44.2,177.6h1.7v6.8h0.2c0.2-0.7,0.6-1.2,1-1.6c0.5-0.4,1.1-0.5,1.9-0.5c1,0,1.8,0.3,2.4,1
				c0.6,0.7,0.9,1.8,0.9,3.2v7.4h-1.7v-7.3c0-0.9-0.2-1.6-0.6-2.1s-1-0.7-1.7-0.7c-0.7,0-1.2,0.2-1.7,0.6c-0.5,0.4-0.7,1-0.7,1.7
				v7.7h-1.7V177.6z"/>
			<path fill="#FFAA00" d="M-29.1,194.2c-0.7,0-1.3-0.1-1.8-0.3c-0.6-0.2-1.1-0.6-1.5-1.1c-0.4-0.5-0.7-1.1-1-1.8s-0.4-1.7-0.4-2.7
				c0-1.1,0.1-2,0.4-2.7s0.6-1.4,1-1.8c0.4-0.5,0.9-0.8,1.5-1.1s1.2-0.3,1.8-0.3s1.3,0.1,1.8,0.3s1,0.6,1.4,1.1
				c0.4,0.5,0.7,1.1,0.9,1.8c0.2,0.7,0.3,1.6,0.3,2.7v0.4h-7.3v0.7c0,1.1,0.3,1.9,0.8,2.5s1.2,0.8,2.1,0.8c0.8,0,1.4-0.2,1.9-0.5
				c0.5-0.3,0.9-0.8,1.1-1.5l1.1,0.8c-0.4,0.8-0.9,1.4-1.6,1.9S-28,194.2-29.1,194.2z M-29.1,183.7c-0.9,0-1.6,0.3-2.1,0.9
				c-0.5,0.6-0.7,1.4-0.7,2.5v0.3h5.5v-0.3C-26.4,184.8-27.3,183.7-29.1,183.7z"/>
			<path fill="#FFAA00" d="M-17.2,193.9v-15.4H-9v1.6h-6.5v5.2h5.9v1.6h-5.9v7H-17.2z"/>
			<path fill="#FFAA00" d="M0.1,193.9c-1.1,0-1.6-0.5-1.6-1.6V192h-0.2c-0.2,0.7-0.5,1.2-1,1.6c-0.5,0.4-1.1,0.5-1.8,0.5
				c-1.1,0-1.9-0.3-2.5-0.8c-0.5-0.6-0.8-1.4-0.8-2.5c0-1.1,0.3-1.9,1-2.5c0.7-0.6,1.8-0.9,3.3-0.9h2v-1.3c0-0.8-0.2-1.5-0.6-1.8
				c-0.4-0.4-1-0.6-1.8-0.6c-0.7,0-1.2,0.1-1.6,0.4s-0.8,0.7-1,1.2l-1-0.9c0.3-0.6,0.8-1.1,1.4-1.6s1.4-0.6,2.3-0.6
				c1.3,0,2.3,0.3,2.9,0.9c0.7,0.6,1,1.5,1,2.8v6.4h1.1v1.5H0.1z M-4.2,192.7c0.4,0,0.7-0.1,1.1-0.2c0.3-0.1,0.6-0.3,0.8-0.5
				c0.2-0.2,0.4-0.5,0.6-0.7s0.2-0.6,0.2-0.8v-1.7h-2.1c-0.9,0-1.5,0.1-1.9,0.4c-0.4,0.3-0.6,0.7-0.6,1.3v0.6c0,0.6,0.2,1,0.5,1.3
				C-5.3,192.6-4.8,192.7-4.2,192.7z"/>
			<path fill="#FFAA00" d="M4.4,179.8c-0.7,0-1-0.3-1-0.9v-0.4c0-0.6,0.3-0.9,1-0.9s1,0.3,1,0.9v0.4C5.4,179.5,5.1,179.8,4.4,179.8z
				 M3.6,182.6h1.7v11.4H3.6V182.6z"/>
			<path fill="#FFAA00" d="M10.9,193.9c-0.6,0-1-0.1-1.3-0.4c-0.3-0.3-0.4-0.7-0.4-1.3V184H7.5v-1.5h1c0.3,0,0.6-0.1,0.7-0.3
				c0.1-0.2,0.2-0.4,0.2-0.8v-2.1h1.5v3.1H13v1.5h-2.2v8.4h2.1v1.5H10.9z"/>
			<path fill="#FFAA00" d="M15.6,177.6h1.7v6.8h0.2c0.2-0.7,0.6-1.2,1-1.6c0.5-0.4,1.1-0.5,1.9-0.5c1,0,1.8,0.3,2.4,1
				s0.9,1.8,0.9,3.2v7.4H22v-7.3c0-0.9-0.2-1.6-0.6-2.1s-1-0.7-1.7-0.7c-0.7,0-1.2,0.2-1.7,0.6c-0.5,0.4-0.7,1-0.7,1.7v7.7h-1.7
				V177.6z"/>
			<path fill="#FFAA00" d="M27.4,184h-1.7v-1.5h1.7v-2.8c0-0.7,0.2-1.3,0.5-1.6s0.9-0.5,1.6-0.5h1.7v1.5h-2.2v3.5h2.2v1.5h-2.2v9.9
				h-1.7V184z"/>
			<path fill="#FFAA00" d="M39.6,192.1h-0.2c-0.2,0.7-0.6,1.2-1,1.6c-0.5,0.4-1.1,0.5-1.9,0.5c-1,0-1.8-0.3-2.4-1s-0.9-1.8-0.9-3.2
				v-7.4h1.7v7.3c0,0.9,0.2,1.6,0.6,2.1c0.4,0.5,0.9,0.7,1.7,0.7c0.7,0,1.2-0.2,1.7-0.6c0.5-0.4,0.7-1,0.7-1.7v-7.7h1.7v11.4h-1.7
				V192.1z"/>
			<path fill="#FFAA00" d="M46.3,193.9c-0.6,0-1-0.1-1.3-0.4c-0.3-0.3-0.4-0.7-0.4-1.3v-14.6h1.7v14.8h1.4v1.5H46.3z"/>
		</g>
	</g>
	<g>
		<g>
			<path fill="#FFAA00" d="M210.1-139.9v13.8h-1.8v-13.8h-4.3v-1.6h10.4v1.6H210.1z"/>
			<path fill="#FFAA00" d="M216.6-142.4h1.7v6.8h0.2c0.2-0.7,0.6-1.2,1-1.6c0.5-0.4,1.1-0.5,1.9-0.5c1,0,1.8,0.3,2.4,1
				c0.6,0.7,0.9,1.8,0.9,3.2v7.4H223v-7.3c0-0.9-0.2-1.6-0.6-2.1s-1-0.7-1.7-0.7c-0.7,0-1.2,0.2-1.7,0.6c-0.5,0.4-0.7,1-0.7,1.7v7.7
				h-1.7V-142.4z"/>
			<path fill="#FFAA00" d="M231.8-125.9c-0.7,0-1.3-0.1-1.8-0.3c-0.6-0.2-1.1-0.6-1.5-1.1c-0.4-0.5-0.7-1.1-1-1.8s-0.4-1.7-0.4-2.7
				c0-1.1,0.1-2,0.4-2.7s0.6-1.4,1-1.8c0.4-0.5,0.9-0.8,1.5-1.1s1.2-0.3,1.8-0.3s1.3,0.1,1.8,0.3s1,0.6,1.4,1.1
				c0.4,0.5,0.7,1.1,0.9,1.8c0.2,0.7,0.3,1.6,0.3,2.7v0.4h-7.3v0.7c0,1.1,0.3,1.9,0.8,2.5s1.2,0.8,2.1,0.8c0.8,0,1.4-0.2,1.9-0.5
				c0.5-0.3,0.9-0.8,1.1-1.5l1.1,0.8c-0.4,0.8-0.9,1.4-1.6,1.9S232.8-125.9,231.8-125.9z M231.8-136.3c-0.9,0-1.6,0.3-2.1,0.9
				c-0.5,0.6-0.7,1.4-0.7,2.5v0.3h5.5v-0.3C234.4-135.2,233.5-136.3,231.8-136.3z"/>
			<path fill="#FFAA00" d="M147.8-116.7l0.2-2.6h-0.2l-1.1,2.6l-3.3,6.8l-3.3-6.8l-1.1-2.6h-0.2l0.2,2.6v10.5h-1.7v-15.4h2.3l2.8,6
				l1,2.8h0.2l1-2.8l2.8-6h2.3v15.4h-1.7V-116.7z"/>
			<path fill="#FFAA00" d="M156.9-105.9c-0.7,0-1.3-0.1-1.8-0.3c-0.6-0.2-1.1-0.6-1.5-1.1c-0.4-0.5-0.7-1.1-1-1.8s-0.4-1.7-0.4-2.7
				c0-1.1,0.1-2,0.4-2.7s0.6-1.4,1-1.8c0.4-0.5,0.9-0.8,1.5-1.1s1.2-0.3,1.8-0.3s1.3,0.1,1.8,0.3s1,0.6,1.4,1.1
				c0.4,0.5,0.7,1.1,0.9,1.8c0.2,0.7,0.3,1.6,0.3,2.7v0.4H154v0.7c0,1.1,0.3,1.9,0.8,2.5s1.2,0.8,2.1,0.8c0.8,0,1.4-0.2,1.9-0.5
				c0.5-0.3,0.9-0.8,1.1-1.5l1.1,0.8c-0.4,0.8-0.9,1.4-1.6,1.9S158-105.9,156.9-105.9z M156.9-116.3c-0.9,0-1.6,0.3-2.1,0.9
				c-0.5,0.6-0.7,1.4-0.7,2.5v0.3h5.5v-0.3C159.5-115.2,158.7-116.3,156.9-116.3z"/>
			<path fill="#FFAA00" d="M167.1-105.9c-0.9,0-1.7-0.2-2.4-0.6c-0.7-0.4-1.2-0.9-1.7-1.6l1.2-1c0.4,0.6,0.8,1,1.3,1.3
				c0.5,0.3,1,0.4,1.7,0.4c0.7,0,1.2-0.2,1.6-0.5s0.6-0.8,0.6-1.4c0-0.5-0.1-0.9-0.4-1.2c-0.2-0.3-0.7-0.5-1.4-0.6l-0.9-0.2
				c-1.1-0.2-1.9-0.6-2.5-1c-0.5-0.5-0.8-1.2-0.8-2.2c0-0.6,0.1-1.1,0.3-1.5c0.2-0.4,0.4-0.8,0.7-1c0.3-0.3,0.7-0.5,1.2-0.6
				c0.4-0.1,0.9-0.2,1.5-0.2c0.9,0,1.6,0.2,2.1,0.5c0.6,0.3,1.1,0.7,1.5,1.3l-1.1,1c-0.2-0.4-0.6-0.7-1-0.9
				c-0.4-0.3-0.9-0.4-1.6-0.4c-1.3,0-2,0.6-2,1.8c0,0.6,0.1,1,0.4,1.2c0.3,0.3,0.8,0.4,1.4,0.6l0.9,0.2c1.2,0.2,2,0.6,2.5,1.1
				c0.5,0.5,0.7,1.2,0.7,2.1c0,1.1-0.3,2-1,2.6C169.3-106.2,168.3-105.9,167.1-105.9z"/>
			<path fill="#FFAA00" d="M176.5-105.9c-0.9,0-1.7-0.2-2.4-0.6c-0.7-0.4-1.2-0.9-1.7-1.6l1.2-1c0.4,0.6,0.8,1,1.3,1.3
				c0.5,0.3,1,0.4,1.7,0.4c0.7,0,1.2-0.2,1.6-0.5s0.6-0.8,0.6-1.4c0-0.5-0.1-0.9-0.4-1.2c-0.2-0.3-0.7-0.5-1.4-0.6l-0.9-0.2
				c-1.1-0.2-1.9-0.6-2.5-1c-0.5-0.5-0.8-1.2-0.8-2.2c0-0.6,0.1-1.1,0.3-1.5c0.2-0.4,0.4-0.8,0.7-1c0.3-0.3,0.7-0.5,1.2-0.6
				c0.4-0.1,0.9-0.2,1.5-0.2c0.9,0,1.6,0.2,2.1,0.5c0.6,0.3,1.1,0.7,1.5,1.3l-1.1,1c-0.2-0.4-0.6-0.7-1-0.9
				c-0.4-0.3-0.9-0.4-1.6-0.4c-1.3,0-2,0.6-2,1.8c0,0.6,0.1,1,0.4,1.2c0.3,0.3,0.8,0.4,1.4,0.6l0.9,0.2c1.2,0.2,2,0.6,2.5,1.1
				c0.5,0.5,0.7,1.2,0.7,2.1c0,1.1-0.3,2-1,2.6C178.7-106.2,177.8-105.9,176.5-105.9z"/>
			<path fill="#FFAA00" d="M186.9-105.9c-0.7,0-1.3-0.1-1.8-0.3c-0.6-0.2-1.1-0.6-1.5-1.1c-0.4-0.5-0.7-1.1-1-1.8s-0.4-1.7-0.4-2.7
				c0-1.1,0.1-2,0.4-2.7s0.6-1.4,1-1.8c0.4-0.5,0.9-0.8,1.5-1.1s1.2-0.3,1.8-0.3s1.3,0.1,1.8,0.3s1,0.6,1.4,1.1
				c0.4,0.5,0.7,1.1,0.9,1.8c0.2,0.7,0.3,1.6,0.3,2.7v0.4h-7.3v0.7c0,1.1,0.3,1.9,0.8,2.5s1.2,0.8,2.1,0.8c0.8,0,1.4-0.2,1.9-0.5
				c0.5-0.3,0.9-0.8,1.1-1.5l1.1,0.8c-0.4,0.8-0.9,1.4-1.6,1.9S188-105.9,186.9-105.9z M186.9-116.3c-0.9,0-1.6,0.3-2.1,0.9
				c-0.5,0.6-0.7,1.4-0.7,2.5v0.3h5.5v-0.3C189.6-115.2,188.7-116.3,186.9-116.3z"/>
			<path fill="#FFAA00" d="M193.9-106.1v-11.4h1.7v1.8h0.2c0.2-0.7,0.6-1.2,1-1.6c0.5-0.4,1.1-0.5,1.9-0.5c1,0,1.8,0.3,2.4,1
				s0.9,1.8,0.9,3.2v7.4h-1.7v-7.3c0-0.9-0.2-1.6-0.6-2.1s-1-0.7-1.7-0.7c-0.7,0-1.2,0.2-1.7,0.6c-0.5,0.4-0.7,1-0.7,1.7v7.7H193.9z
				"/>
			<path fill="#FFAA00" d="M213.9-104.9c0,1.2-0.4,2.1-1.2,2.6c-0.8,0.5-2.1,0.8-3.8,0.8c-1.6,0-2.8-0.2-3.5-0.7
				c-0.7-0.5-1-1.2-1-2.1c0-0.6,0.2-1.1,0.5-1.5c0.3-0.4,0.7-0.6,1.2-0.7v-0.3c-0.3-0.2-0.5-0.4-0.7-0.6c-0.2-0.3-0.3-0.6-0.3-0.9
				c0-0.5,0.1-0.9,0.4-1.2s0.7-0.5,1.3-0.6v-0.2c-0.6-0.3-1-0.7-1.4-1.3s-0.5-1.3-0.5-2.2c0-1.3,0.4-2.3,1.1-2.9s1.7-1,2.8-1
				c0.7,0,1.3,0.1,1.9,0.4v-0.4c0-0.4,0.1-0.7,0.3-0.9s0.5-0.3,0.9-0.3h1.5v1.5h-2v0.6c0.4,0.3,0.7,0.8,0.9,1.3s0.3,1.1,0.3,1.8
				c0,1.3-0.4,2.3-1.1,2.9c-0.7,0.7-1.7,1-2.8,1c-0.4,0-0.7,0-1.1-0.1c-0.4,0.1-0.7,0.2-0.9,0.5c-0.2,0.3-0.3,0.5-0.3,0.8
				c0,0.3,0.1,0.5,0.3,0.7c0.2,0.1,0.5,0.2,1,0.2h2.5c1.3,0,2.2,0.3,2.8,0.8C213.6-106.6,213.9-105.8,213.9-104.9z M212.3-104.8
				c0-0.5-0.2-0.9-0.5-1.1c-0.3-0.3-0.8-0.4-1.6-0.4h-3.5c-0.3,0.2-0.6,0.4-0.7,0.6c-0.1,0.2-0.2,0.6-0.2,0.9c0,0.6,0.2,1,0.5,1.4
				c0.4,0.3,0.9,0.5,1.7,0.5h1.5c0.9,0,1.6-0.2,2.1-0.5C212.1-103.6,212.3-104.1,212.3-104.8z M208.8-111.2c0.7,0,1.2-0.2,1.6-0.5
				c0.4-0.4,0.6-0.9,0.6-1.6v-0.8c0-0.7-0.2-1.3-0.6-1.6c-0.4-0.4-0.9-0.5-1.6-0.5s-1.2,0.2-1.6,0.5c-0.4,0.4-0.6,0.9-0.6,1.6v0.8
				c0,0.7,0.2,1.3,0.6,1.6C207.6-111.4,208.1-111.2,208.8-111.2z"/>
			<path fill="#FFAA00" d="M219.5-105.9c-0.7,0-1.3-0.1-1.8-0.3c-0.6-0.2-1.1-0.6-1.5-1.1c-0.4-0.5-0.7-1.1-1-1.8
				c-0.2-0.7-0.4-1.7-0.4-2.7c0-1.1,0.1-2,0.4-2.7c0.2-0.7,0.6-1.4,1-1.8c0.4-0.5,0.9-0.8,1.5-1.1c0.6-0.2,1.2-0.3,1.8-0.3
				s1.3,0.1,1.8,0.3c0.6,0.2,1,0.6,1.4,1.1c0.4,0.5,0.7,1.1,0.9,1.8s0.3,1.6,0.3,2.7v0.4h-7.3v0.7c0,1.1,0.3,1.9,0.8,2.5
				c0.5,0.5,1.2,0.8,2.1,0.8c0.8,0,1.4-0.2,1.9-0.5c0.5-0.3,0.9-0.8,1.1-1.5l1.1,0.8c-0.4,0.8-0.9,1.4-1.6,1.9
				C221.4-106.1,220.5-105.9,219.5-105.9z M219.5-116.3c-0.9,0-1.6,0.3-2.1,0.9c-0.5,0.6-0.7,1.4-0.7,2.5v0.3h5.5v-0.3
				C222.1-115.2,221.2-116.3,219.5-116.3z"/>
			<path fill="#FFAA00" d="M226.5-106.1v-11.4h1.7v2.1h0.2c0.2-0.7,0.5-1.2,1-1.6s1.1-0.6,1.8-0.6h0.6v1.7h-1.1
				c-0.8,0-1.4,0.2-1.9,0.5c-0.4,0.4-0.7,0.9-0.7,1.6v7.5H226.5z"/>
			<path fill="#FFAA00" d="M236.9-105.9c-0.9,0-1.7-0.2-2.4-0.6c-0.7-0.4-1.2-0.9-1.7-1.6l1.2-1c0.4,0.6,0.8,1,1.3,1.3
				c0.5,0.3,1,0.4,1.7,0.4c0.7,0,1.2-0.2,1.6-0.5c0.4-0.3,0.6-0.8,0.6-1.4c0-0.5-0.1-0.9-0.4-1.2c-0.2-0.3-0.7-0.5-1.4-0.6l-0.9-0.2
				c-1.1-0.2-1.9-0.6-2.5-1c-0.5-0.5-0.8-1.2-0.8-2.2c0-0.6,0.1-1.1,0.3-1.5s0.4-0.8,0.7-1c0.3-0.3,0.7-0.5,1.2-0.6
				c0.4-0.1,0.9-0.2,1.5-0.2c0.9,0,1.6,0.2,2.1,0.5s1.1,0.7,1.5,1.3l-1.1,1c-0.2-0.4-0.6-0.7-1-0.9c-0.4-0.3-0.9-0.4-1.6-0.4
				c-1.3,0-2,0.6-2,1.8c0,0.6,0.1,1,0.4,1.2s0.8,0.4,1.4,0.6l0.9,0.2c1.2,0.2,2,0.6,2.5,1.1c0.5,0.5,0.7,1.2,0.7,2.1
				c0,1.1-0.3,2-1,2.6C239.1-106.2,238.2-105.9,236.9-105.9z"/>
		</g>
	</g>
</g>
<g>
	<g>
		<g>
			<path fill="#FFAA00" d="M-262.2-199.7l14,10.6l-1.4,1.8l-14-10.6l-3.3,4.4l-1.6-1.2l8-10.6l1.6,1.2L-262.2-199.7z"/>
			<path fill="#FFAA00" d="M-259.2-208.7l1.4-1.6l6.6,5.5l0.2-0.2c-0.5-0.8-0.8-1.6-0.7-2.3c0-0.7,0.4-1.5,1-2.3
				c0.8-1,1.8-1.5,3-1.5c1.1,0,2.4,0.6,3.8,1.7l7.2,6l-1.4,1.6l-7.1-5.9c-0.9-0.7-1.7-1.1-2.5-1.2c-0.8,0-1.5,0.3-2.1,1.1
				c-0.5,0.7-0.8,1.4-0.8,2.2c0,0.8,0.4,1.5,1.1,2.1l7.6,6.3l-1.4,1.6L-259.2-208.7z"/>
			<path fill="#FFAA00" d="M-230.7-209.6c-0.6,0.6-1.2,1.1-1.9,1.5s-1.4,0.5-2.3,0.5c-0.8,0-1.7-0.2-2.6-0.7c-0.9-0.4-1.9-1.1-2.9-2
				s-1.7-1.8-2.2-2.6c-0.5-0.9-0.8-1.7-0.9-2.5c-0.1-0.8,0-1.6,0.3-2.3c0.3-0.7,0.7-1.4,1.3-2c0.6-0.6,1.2-1.1,1.9-1.4
				c0.7-0.3,1.4-0.5,2.2-0.4c0.8,0.1,1.6,0.3,2.5,0.7c0.9,0.4,1.8,1.1,2.8,2l0.4,0.4l-6.2,6.9l0.7,0.6c1.1,1,2.1,1.4,3,1.4
				s1.8-0.4,2.6-1.3c0.7-0.7,1-1.4,1.1-2.2c0.1-0.7,0-1.5-0.4-2.3l1.8-0.4c0.4,1,0.6,2,0.5,3.1S-229.8-210.6-230.7-209.6z
				 M-240.5-218.6c-0.8,0.9-1.1,1.8-1,2.7c0.1,1,0.7,1.9,1.7,2.9l0.3,0.2l4.7-5.2l-0.3-0.2C-237.2-220.1-239-220.3-240.5-218.6z"/>
			<path fill="#FFAA00" d="M-234.3-234.7l4.4-4.3c1.6-1.6,3.4-2.2,5.4-1.9c2,0.3,4.1,1.6,6.5,4.1s3.6,4.7,3.8,6.6
				c0.2,2-0.5,3.8-2.2,5.3l-4.4,4.3L-234.3-234.7z M-217.7-226.3c1-1,1.5-2.1,1.4-3.4c-0.1-1.3-0.7-2.6-2-3.9l-3-3.1
				c-1.3-1.3-2.5-2-3.8-2.1s-2.4,0.3-3.4,1.3l-2.8,2.7l10.8,11.2L-217.7-226.3z"/>
			<path fill="#FFAA00" d="M-204.3-239l-0.2,0.2c0.4,0.9,0.5,1.7,0.3,2.4c-0.1,0.7-0.6,1.4-1.4,2.1c-1,0.8-2,1.2-3.2,1
				s-2.3-1-3.5-2.3l-6.2-7.1l1.6-1.4l6.1,7c0.8,0.9,1.5,1.4,2.3,1.5s1.5-0.1,2.3-0.7c0.6-0.6,1-1.2,1.1-2c0.1-0.8-0.2-1.5-0.8-2.3
				l-6.5-7.4l1.6-1.4l9.5,10.9l-1.6,1.4L-204.3-239z"/>
			<path fill="#FFAA00" d="M-198-241.2l-9-11.3l1.7-1.3l1.5,1.8l0.2-0.2c-0.3-0.9-0.4-1.7-0.2-2.4c0.2-0.7,0.7-1.4,1.5-2
				c1-0.8,2.1-1.1,3.2-0.9c1.1,0.2,2.3,1.1,3.4,2.5l5.9,7.4l-1.7,1.3l-5.8-7.3c-0.7-0.9-1.5-1.5-2.2-1.6c-0.8-0.2-1.5,0-2.3,0.6
				c-0.7,0.5-1.1,1.2-1.2,2c-0.1,0.8,0.1,1.5,0.7,2.3l6.1,7.7L-198-241.2z"/>
			<path fill="#FFAA00" d="M-182.7-252.6c-0.7,0.5-1.4,0.8-2.2,1c-0.8,0.2-1.5,0.2-2.3,0c-0.8-0.2-1.6-0.6-2.4-1.2
				c-0.8-0.6-1.6-1.4-2.4-2.5c-0.8-1.1-1.3-2.1-1.7-3.1c-0.3-0.9-0.4-1.8-0.4-2.6c0.1-0.8,0.3-1.5,0.7-2.2s1-1.2,1.7-1.7
				c0.7-0.5,1.4-0.8,2.1-1c0.7-0.2,1.5-0.2,2.2,0c0.8,0.2,1.5,0.6,2.3,1.2c0.8,0.6,1.6,1.5,2.4,2.5l0.3,0.4l-7.5,5.4l0.5,0.7
				c0.8,1.1,1.7,1.8,2.6,2s1.9-0.1,2.8-0.7c0.8-0.6,1.3-1.2,1.6-1.9c0.3-0.7,0.3-1.5,0.1-2.4l1.8,0c0.2,1.1,0.2,2.1-0.2,3.1
				C-180.9-254.3-181.6-253.4-182.7-252.6z M-190.5-263.4c-0.9,0.7-1.4,1.5-1.5,2.5c-0.1,1,0.3,2,1.1,3.2l0.2,0.3l5.7-4.1l-0.2-0.3
				C-187-264.2-188.7-264.7-190.5-263.4z"/>
		</g>
	</g>
</g>
</svg>
