<?xml version="1.0" encoding="utf-8"?>
<!-- Generator: Adobe Illustrator 26.2.1, SVG Export Plug-In . SVG Version: 6.00 Build 0)  -->
<svg version="1.1" id="Layer_1" xmlns="http://www.w3.org/2000/svg" xmlns:xlink="http://www.w3.org/1999/xlink" x="0px" y="0px"
	 viewBox="0 0 329.6 329.6" enable-background="new 0 0 329.6 329.6" xml:space="preserve">
<g>
	<path fill="none" stroke="#FFFFFF" stroke-width="1.6" stroke-miterlimit="10" d="M-302.3,4.3c1.2,83.5,36.1,158.5,91.5,212.4
		c55.5,54,131.6,86.7,215.1,85.6c83.1-1.2,157.9-35.8,211.8-90.9c54.3-55.5,87.4-131.9,86.2-215.7c-1.2-83.5-36.1-158.6-91.6-212.6
		c-55.5-53.9-131.5-86.6-215-85.4c-83.8,1.2-159.2,36.4-213.2,92.3C-271-154.6-303.5-78.8-302.3,4.3z"/>
	<g>
		<path fill="none" stroke="#FFFFFF" stroke-width="1.6" stroke-miterlimit="10" d="M-109.2,1.5c0.4,30.1,13,57.2,33,76.7
			c20,19.5,47.5,31.3,77.7,30.9c30-0.4,57-12.9,76.5-32.8c19.6-20.1,31.5-47.6,31.1-77.9c-0.4-30.2-13-57.3-33.1-76.8
			c-20-19.5-47.5-31.3-77.6-30.9c-30.3,0.4-57.5,13.1-77,33.3C-97.9-55.8-109.6-28.5-109.2,1.5z"/>
		<line fill="none" stroke="#FFFFFF" stroke-width="1.6" stroke-miterlimit="10" x1="215.8" y1="-211.8" x2="76.1" y2="-78.3"/>
		<line fill="none" stroke="#FFFFFF" stroke-width="1.6" stroke-miterlimit="10" x1="-72.4" y1="-81.7" x2="-206.1" y2="-221.2"/>
		<line fill="none" stroke="#FFFFFF" stroke-width="1.6" stroke-miterlimit="10" x1="78" y1="76.3" x2="210.7" y2="216.9"/>
		<line fill="none" stroke="#FFFFFF" stroke-width="1.6" stroke-miterlimit="10" x1="-80.6" y1="73.6" x2="-219.8" y2="207.6"/>
	</g>
</g>
<g>
	<g>
		<path fill="none" stroke="#FFFFFF" stroke-width="1.6" stroke-miterlimit="10" d="M0,759.2c0,0-1.8,0-2.7,0
			c-48.1-0.2-96.5-4.9-143.8-14.2c-47.9-9.4-95.1-23.5-140.2-41.9c-94-38.3-178.2-94.2-250.2-166.3
			c-72.4-72.4-128.5-157-166.8-251.5c-18.4-45.4-32.4-92.8-41.8-140.9c-9.2-47.5-13.8-96.2-13.8-144.7c0-48.4,4.7-97,13.9-144.5
			c9.3-48.1,23.4-95.5,41.8-140.8c38.3-94.4,94.4-179,166.7-251.3c72-72,156.2-128,250.2-166.3c45.1-18.4,92.3-32.5,140.2-41.9
			c47.3-9.3,95.7-14.1,143.9-14.2c0.9,0,1.8,0,2.6,0c48.4,0,97.1,4.7,144.6,13.9c48.1,9.3,95.5,23.4,140.9,41.8
			c94.5,38.3,179,94.4,251.4,166.7c72.3,72.3,128.4,156.9,166.7,251.3c18.4,45.3,32.4,92.7,41.8,140.8
			c9.2,47.5,13.9,96.1,13.9,144.5c0,48.5-4.6,97.1-13.8,144.7c-9.3,48.1-23.4,95.6-41.8,140.9c-38.3,94.5-94.4,179.1-166.8,251.5
			C464.5,609.2,380,665.3,285.5,703.6c-45.4,18.4-92.8,32.5-140.9,41.8C97.1,754.6,48.4,759.2,0,759.2z"/>
		<path fill="none" stroke="#FFFFFF" stroke-width="1.6" stroke-miterlimit="10" d="M0,738.5c0,0-1.8,0-2.6,0
			c-46.8-0.2-93.9-4.8-139.9-13.8c-46.6-9.1-92.5-22.8-136.4-40.7c-91.4-37.3-173.3-91.7-243.4-161.7
			c-70.4-70.4-125-152.7-162.2-244.6c-17.9-44.1-31.6-90.3-40.6-137.1c-8.9-46.2-13.5-93.6-13.5-140.7c0-47.1,4.6-94.4,13.5-140.6
			c9.1-46.8,22.7-92.9,40.6-137c37.3-91.9,91.8-174.1,162.2-244.4c70-70,151.9-124.5,243.4-161.7c43.9-17.9,89.8-31.6,136.3-40.7
			c46-9,93.1-13.7,139.9-13.9c0.9,0,1.7,0,2.5,0c47.1,0,94.4,4.5,140.7,13.5c46.8,9.1,92.9,22.7,137,40.6
			c91.9,37.3,174.1,91.8,244.5,162.2c70.3,70.3,124.9,152.6,162.2,244.4c17.9,44.1,31.6,90.2,40.6,137c9,46.2,13.5,93.5,13.5,140.6
			c0,47.1-4.5,94.5-13.5,140.7c-9.1,46.8-22.7,92.9-40.6,137.1c-37.3,91.9-91.8,174.2-162.2,244.6
			c-70.4,70.4-152.6,124.9-244.5,162.2c-44.1,17.9-90.2,31.6-137,40.6C94.4,733.9,47.1,738.5,0,738.5z"/>
		<path fill="none" stroke="#FFFFFF" stroke-width="1.6" stroke-miterlimit="10" d="M0,717.7c0,0-1.7,0-2.5,0
			c-45.5-0.2-91.2-4.7-135.9-13.4c-45.3-8.9-89.9-22.2-132.5-39.6c-88.9-36.2-168.4-89.1-236.5-157.2
			c-68.4-68.4-121.5-148.4-157.7-237.7c-17.4-42.9-30.7-87.7-39.5-133.2c-8.7-44.9-13.1-91-13.1-136.8c0-45.8,4.4-91.7,13.1-136.6
			c8.8-45.5,22.1-90.2,39.5-133.1c36.2-89.3,89.2-169.2,157.6-237.5c68.1-68.1,147.7-121,236.5-157.2
			c42.7-17.4,87.2-30.7,132.5-39.6c44.7-8.8,90.4-13.3,136-13.5c0.9,0,1.7,0,2.5,0c45.8,0,91.8,4.4,136.7,13.1
			c45.5,8.8,90.3,22.1,133.2,39.5c89.3,36.2,169.2,89.2,237.6,157.6c68.4,68.4,121.4,148.3,157.6,237.5
			c17.4,42.9,30.7,87.6,39.5,133.1C713.3-92,717.7-46,717.7-0.2c0,45.8-4.4,91.8-13.1,136.8c-8.8,45.5-22.1,90.3-39.5,133.2
			c-36.2,89.3-89.3,169.3-157.7,237.7c-68.4,68.4-148.3,121.4-237.6,157.6c-42.9,17.4-87.7,30.7-133.2,39.5
			C91.8,713.3,45.8,717.7,0,717.7z"/>
		<path fill="none" stroke="#FFFFFF" stroke-width="1.6" stroke-miterlimit="10" d="M0,697c0,0-1.6,0-2.4,0
			c-44.2-0.1-88.6-4.5-132-13.1c-44-8.6-87.3-21.6-128.7-38.4c-86.3-35.2-163.6-86.5-229.7-152.6
			c-66.4-66.4-117.9-144.1-153.1-230.8c-16.9-41.7-29.8-85.2-38.3-129.4C-692.7,89-697,44.3-697-0.2c0-44.4,4.3-89.1,12.8-132.7
			c8.6-44.1,21.5-87.6,38.3-129.3c35.2-86.7,86.7-164.3,153-230.7c66.1-66.1,143.4-117.5,229.7-152.6
			c41.4-16.9,84.7-29.8,128.7-38.4c43.4-8.5,87.8-12.9,132.1-13.1c0.8,0,1.6,0,2.4,0c44.5,0,89.1,4.3,132.8,12.7
			c44.2,8.6,87.7,21.4,129.3,38.3c86.7,35.2,164.3,86.7,230.7,153.1c66.4,66.4,117.9,144,153,230.7c16.9,41.6,29.8,85.1,38.3,129.2
			c8.5,43.6,12.7,88.3,12.8,132.7c0,44.5-4.3,89.2-12.7,132.8c-8.5,44.2-21.4,87.7-38.3,129.4c-35.2,86.7-86.7,164.4-153.1,230.8
			c-66.4,66.4-144,117.9-230.7,153.1c-41.6,16.9-85.2,29.8-129.3,38.3C89.1,692.7,44.5,697,0,697z"/>
		<path fill="none" stroke="#FFFFFF" stroke-width="1.6" stroke-miterlimit="10" d="M0,676.2c0,0-1.6,0-2.3,0
			c-42.9-0.1-86-4.4-128.1-12.7c-42.6-8.4-84.7-20.9-124.9-37.3C-339,592.1-414,542.3-478.1,478.2c-64.5-64.5-114.4-139.8-148.5-224
			c-16.4-40.4-28.9-82.6-37.2-125.5c-8.2-42.4-12.3-85.7-12.3-128.9c0-43.1,4.2-86.4,12.4-128.7c8.3-42.8,20.8-85,37.2-125.4
			c34.1-84.1,84.1-159.4,148.5-223.8c64.2-64.2,139.1-114,222.8-148.1c40.2-16.4,82.2-28.9,124.8-37.3
			c42.1-8.3,85.2-12.5,128.2-12.7c0.8,0,1.6,0,2.3,0c43.1,0,86.5,4.2,128.8,12.4c42.8,8.3,85.1,20.8,125.5,37.2
			c84.1,34.1,159.4,84.1,223.9,148.5c64.4,64.4,114.4,139.7,148.5,223.8C643-214,655.5-171.8,663.8-129
			c8.2,42.3,12.4,85.6,12.4,128.8c0,43.2-4.1,86.5-12.3,128.9c-8.3,42.9-20.8,85.1-37.2,125.5c-34.1,84.2-84.1,159.5-148.5,224
			c-64.4,64.4-139.7,114.4-223.9,148.5c-40.4,16.4-82.6,28.9-125.5,37.2C86.5,672.1,43.2,676.2,0,676.2z"/>
		<path fill="none" stroke="#FFFFFF" stroke-width="1.6" stroke-miterlimit="10" d="M0,655.5c0,0-1.5,0-2.2,0
			c-41.6-0.1-83.4-4.3-124.2-12.3c-41.3-8.1-82.1-20.3-121-36.2c-81.1-33.1-153.8-81.4-216-143.5c-62.5-62.5-110.9-135.5-144-217.1
			c-15.9-39.2-28-80.1-36-121.7c-7.9-41.1-12-83.1-11.9-124.9c0-41.8,4.1-83.8,12-124.8c8-41.5,20.2-82.4,36.1-121.5
			c33.1-81.5,81.5-154.5,143.9-216.9c62.2-62.2,134.9-110.5,216-143.5c39-15.9,79.7-28,121-36.1c40.8-8,82.6-12.2,124.2-12.3
			c0.8,0,1.5,0,2.2,0c41.8,0,83.8,4,124.9,12c41.5,8,82.4,20.2,121.6,36.1c81.5,33.1,154.5,81.5,217,144
			c62.4,62.4,110.9,135.4,143.9,216.9c15.9,39.1,28,80,36.1,121.5c8,41,12,83,12,124.8c0,41.8-4,83.9-11.9,124.9
			c-8,41.6-20.2,82.5-36,121.7c-33.1,81.6-81.5,154.6-144,217.1c-62.5,62.5-135.5,110.9-217,144c-39.2,15.9-80.1,28-121.6,36.1
			C83.8,651.4,41.8,655.5,0,655.5z"/>
		<path fill="none" stroke="#FFFFFF" stroke-width="1.6" stroke-miterlimit="10" d="M0,634.7c0,0-1.4,0-2.1,0
			c-40.3-0.1-80.8-4.1-120.3-11.9c-40-7.9-79.5-19.6-117.2-35c-78.6-32-148.9-78.8-209.1-139c-60.5-60.5-107.4-131.2-139.4-210.2
			c-15.4-37.9-27.1-77.6-34.9-117.8c-7.7-39.8-11.6-80.5-11.6-121c0-40.5,3.9-81.1,11.6-120.9c7.8-40.2,19.5-79.8,34.9-117.7
			c32-78.9,78.9-149.6,139.4-210.1c60.2-60.2,130.6-107,209.1-139c37.7-15.4,77.1-27.1,117.2-35c39.5-7.8,80-11.8,120.3-11.9
			c0.8,0,1.5,0,2.2,0c40.5,0,81.2,3.9,120.9,11.6c40.2,7.8,79.8,19.5,117.7,34.9c78.9,32,149.6,78.9,210.1,139.4
			c60.5,60.5,107.4,131.1,139.4,210c15.4,37.9,27.1,77.5,34.9,117.7c7.7,39.7,11.6,80.4,11.6,120.9c0,40.5-3.9,81.2-11.6,121
			c-7.8,40.2-19.5,79.9-34.9,117.8c-32,79-78.9,149.7-139.4,210.2c-60.5,60.5-131.2,107.4-210.1,139.4
			c-37.9,15.4-77.5,27.1-117.8,34.9C81.2,630.8,40.5,634.7,0,634.7z"/>
		<path fill="none" stroke="#FFFFFF" stroke-width="1.6" stroke-miterlimit="10" d="M0,613.9c0,0-1.4,0-2.1,0
			c-39-0.1-78.1-4-116.4-11.5c-38.7-7.6-76.9-19-113.4-33.9c-76-31-144-76.2-202.3-134.5C-492.6,375.6-538,307.2-569,230.8
			c-14.9-36.7-26.2-75-33.8-113.9c-7.4-38.5-11.2-77.8-11.2-117c0-39.2,3.8-78.5,11.2-116.9c7.5-38.9,18.9-77.2,33.8-113.8
			c31-76.3,76.3-144.7,134.8-203.2c58.3-58.3,126.3-103.5,202.3-134.4c36.5-14.9,74.6-26.3,113.3-33.9
			c38.2-7.5,77.4-11.4,116.4-11.5c0.8,0,1.4,0,2.1,0c39.2,0,78.5,3.8,117,11.2c38.9,7.5,77.2,18.9,113.9,33.8
			c76.4,31,144.7,76.3,203.2,134.8c58.5,58.5,103.8,126.8,134.8,203.2c14.9,36.6,26.2,74.9,33.8,113.8
			c7.4,38.4,11.2,77.8,11.2,116.9c0,39.2-3.8,78.6-11.2,117c-7.5,38.9-18.9,77.3-33.8,113.9c-31,76.4-76.3,144.8-134.9,203.3
			C375.6,492.6,307.2,538,230.9,569c-36.7,14.9-75,26.2-113.9,33.8C78.5,610.2,39.2,613.9,0,613.9z"/>
		<path fill="none" stroke="#FFFFFF" stroke-width="1.6" stroke-miterlimit="10" d="M0,593.2c0,0-1.3,0-2,0
			c-37.7-0.1-75.5-3.9-112.5-11.1c-37.4-7.3-74.3-18.3-109.5-32.7c-73.4-29.9-139.2-73.6-195.5-129.9
			C-476,362.9-519.8,296.8-549.7,223c-14.4-35.4-25.3-72.5-32.6-110.1c-7.2-37.2-10.8-75.2-10.8-113.1c0-37.8,3.7-75.9,10.9-113
			c7.3-37.6,18.3-74.6,32.6-110c29.9-73.7,73.7-139.8,130.3-196.3c56.3-56.3,122-100,195.4-129.9c35.2-14.4,72.1-25.4,109.5-32.7
			c36.9-7.3,74.8-11,112.5-11.1c0.7,0,1.4,0,2,0c37.9,0,75.9,3.6,113,10.8c37.6,7.3,74.6,18.3,110,32.6
			c73.8,29.9,139.8,73.7,196.4,130.3c56.5,56.5,100.3,122.6,130.3,196.3c14.4,35.4,25.3,72.4,32.6,110c7.2,37.1,10.9,75.1,10.9,113
			c0,37.9-3.6,75.9-10.8,113.1c-7.3,37.6-18.2,74.6-32.6,110.1c-29.9,73.8-73.8,139.9-130.3,196.4
			C362.9,476,296.8,519.8,223.1,549.7c-35.4,14.4-72.5,25.3-110,32.6C75.9,589.5,37.9,593.2,0,593.2z"/>
		<path fill="none" stroke="#FFFFFF" stroke-width="1.6" stroke-miterlimit="10" d="M0,572.4c0,0-1.3,0-1.9,0
			c-36.4-0.1-72.9-3.7-108.6-10.7c-36.1-7.1-71.7-17.7-105.7-31.6c-70.8-28.9-134.3-71-188.6-125.4
			c-54.6-54.6-96.9-118.4-125.8-189.6C-544.4,181-555,145.3-562,109c-6.9-35.9-10.4-72.6-10.4-109.1c0-36.5,3.5-73.2,10.5-109
			c7-36.3,17.6-72,31.5-106.1c28.9-71.2,71.2-134.9,125.7-189.4c54.3-54.3,117.8-96.5,188.6-125.4c34-13.9,69.6-24.5,105.7-31.6
			c35.7-7,72.2-10.6,108.5-10.7c0.7,0,1.3,0,2,0c36.5,0,73.2,3.5,109.1,10.5c36.3,7,72,17.6,106.2,31.5
			c71.2,28.9,134.9,71.2,189.5,125.7c54.5,54.5,96.8,118.3,125.7,189.4c13.9,34.2,24.5,69.9,31.5,106.1c6.9,35.8,10.5,72.5,10.5,109
			c0,36.6-3.5,73.3-10.4,109.1c-7,36.3-17.6,72-31.5,106.2c-28.9,71.2-71.2,135-125.8,189.6c-54.6,54.6-118.3,96.9-189.5,125.7
			c-34.2,13.9-69.9,24.5-106.2,31.5C73.3,568.9,36.6,572.4,0,572.4z"/>
		<path fill="none" stroke="#FFFFFF" stroke-width="1.6" stroke-miterlimit="10" d="M0,551.7c0,0-1.2,0-1.8,0
			c-35-0.1-70.3-3.6-104.6-10.3c-34.8-6.8-69.1-17.1-101.8-30.4c-68.3-27.8-129.4-68.5-181.8-120.8
			c-52.6-52.6-93.4-114.1-121.2-182.7c-13.4-33-23.6-67.4-30.3-102.4c-6.7-34.6-10.1-70-10.1-105.2c0-35.2,3.4-70.6,10.1-105.1
			c6.8-34.9,17-69.4,30.3-102.3c27.8-68.6,68.6-130,121.1-182.6c52.4-52.4,113.5-93,181.8-120.8c32.8-13.4,67-23.6,101.8-30.4
			c34.4-6.7,69.6-10.2,104.6-10.4c0.7,0,1.3,0,1.9,0c35.2,0,70.6,3.4,105.1,10.1c35,6.8,69.4,17,102.3,30.3
			c68.6,27.8,130,68.6,182.6,121.2c52.6,52.6,93.3,114,121.1,182.5c13.4,32.9,23.6,67.3,30.3,102.3c6.7,34.5,10.1,69.9,10.1,105.1
			c0,35.2-3.4,70.6-10.1,105.2c-6.8,35-17,69.4-30.3,102.4c-27.8,68.6-68.6,130.1-121.2,182.7c-52.6,52.6-114,93.3-182.6,121.2
			c-32.9,13.4-67.4,23.6-102.3,30.3C70.6,548.3,35.2,551.7,0,551.7z"/>
		<path fill="none" stroke="#FFFFFF" stroke-width="1.6" stroke-miterlimit="10" d="M0,530.9c0,0-1.2,0-1.8,0
			c-33.7-0.1-67.6-3.5-100.7-10c-33.5-6.6-66.5-16.4-98-29.3c-65.7-26.8-124.5-65.9-174.9-116.3C-426,324.8-465.3,265.6-492,199.6
			c-12.9-31.7-22.7-64.9-29.2-98.5c-6.4-33.3-9.7-67.3-9.7-101.2c0-33.9,3.3-67.9,9.7-101.1c6.5-33.6,16.3-66.7,29.2-98.4
			c26.8-66,66-125.1,116.6-175.7c50.4-50.4,109.2-89.5,174.9-116.3c31.5-12.9,64.5-22.7,98-29.3c33.1-6.5,67-9.8,100.7-10
			c0.7,0,1.2,0,1.8,0c33.9,0,67.9,3.3,101.2,9.7c33.6,6.5,66.8,16.3,98.5,29.2c66,26.8,125.1,66,175.7,116.6
			C426-324.8,465.2-265.7,492-199.7c12.9,31.7,22.7,64.8,29.2,98.4c6.4,33.2,9.7,67.3,9.7,101.2c0,33.9-3.2,68-9.7,101.2
			c-6.5,33.7-16.3,66.8-29.2,98.5c-26.8,66-66,125.2-116.6,175.8C324.8,426,265.7,465.2,199.7,492c-31.7,12.9-64.8,22.7-98.5,29.2
			C68,527.6,33.9,530.9,0,530.9z"/>
		<path fill="none" stroke="#FFFFFF" stroke-width="1.6" stroke-miterlimit="10" d="M0,510.2c0,0-1.1,0-1.7,0
			c-32.4-0.1-65-3.3-96.8-9.6c-32.2-6.3-63.9-15.8-94.2-28.1c-63.1-25.7-119.7-63.3-168.1-111.7c-48.7-48.7-86.4-105.5-112.1-168.9
			c-12.4-30.5-21.8-62.3-28-94.7c-6.2-32-9.3-64.7-9.3-97.3c0-32.6,3.2-65.3,9.3-97.2c6.3-32.3,15.7-64.1,28.1-94.6
			c25.7-63.4,63.4-120.2,112-168.8c48.4-48.4,105-86,168.1-111.7c30.3-12.3,62-21.8,94.1-28.1c31.8-6.2,64.3-9.5,96.8-9.6
			c0.6,0,1.2,0,1.7,0c32.6,0,65.3,3.1,97.3,9.3c32.3,6.3,64.2,15.7,94.6,28.1c63.4,25.7,120.2,63.4,168.8,112
			c48.6,48.6,86.3,105.4,112,168.8c12.4,30.4,21.8,62.3,28.1,94.6c6.2,31.9,9.3,64.6,9.3,97.2c0,32.6-3.1,65.3-9.3,97.3
			c-6.3,32.3-15.7,64.2-28,94.7c-25.7,63.4-63.4,120.3-112.1,168.9c-48.6,48.6-105.4,86.3-168.8,112c-30.5,12.4-62.3,21.8-94.6,28.1
			C65.3,507,32.6,510.2,0,510.2z"/>
		<path fill="none" stroke="#FFFFFF" stroke-width="1.6" stroke-miterlimit="10" d="M0,489.4c0,0-1.1,0-1.6,0
			c-31.1-0.1-62.4-3.2-92.9-9.2c-30.9-6.1-61.3-15.1-90.3-27c-60.5-24.7-114.8-60.7-161.2-107.2c-46.7-46.7-82.9-101.2-107.5-162
			c-11.9-29.2-20.9-59.8-26.9-90.8c-5.9-30.7-8.9-62.1-8.9-93.3c0-31.2,3-62.6,9-93.3c6-31,15.1-61.5,26.9-90.7
			c24.7-60.8,60.8-115.3,107.5-161.9c46.5-46.5,100.7-82.5,161.2-107.2c29.1-11.8,59.5-20.9,90.3-27c30.5-6,61.7-9.1,92.8-9.2
			c0.6,0,1.1,0,1.7,0c31.3,0,62.6,3,93.3,8.9c31,6,61.5,15.1,90.8,26.9c60.8,24.7,115.3,60.8,162,107.5
			c46.6,46.6,82.8,101.1,107.5,161.9c11.8,29.2,20.9,59.7,26.9,90.7c5.9,30.6,9,62,9,93.3c0,31.3-3,62.7-8.9,93.3
			c-6,31-15.1,61.6-26.9,90.8c-24.7,60.8-60.8,115.4-107.5,162c-46.7,46.7-101.2,82.8-162,107.5c-29.2,11.9-59.8,20.9-90.8,26.9
			C62.7,486.4,31.3,489.4,0,489.4z"/>
		<path fill="none" stroke="#FFFFFF" stroke-width="1.6" stroke-miterlimit="10" d="M0,468.6c0,0-1,0-1.5,0
			c-29.8-0.1-59.7-3.1-89-8.8c-29.6-5.8-58.7-14.5-86.5-25.8c-58-23.6-109.9-58.1-154.4-102.6c-44.7-44.7-79.3-96.9-103-155.2
			c-11.3-28-20-57.2-25.8-86.9c-5.7-29.4-8.6-59.4-8.5-89.4c0-29.9,2.9-60,8.6-89.3c5.8-29.7,14.4-58.9,25.8-86.9
			c23.6-58.2,58.2-110.4,102.9-155.1c44.5-44.5,96.4-79,154.4-102.6c27.8-11.3,56.9-20,86.5-25.8c29.2-5.7,59.1-8.7,88.9-8.8
			c0.6,0,1.1,0,1.6,0c29.9,0,60,2.9,89.4,8.6c29.7,5.7,58.9,14.4,86.9,25.8c58.2,23.6,110.4,58.2,155.1,102.9
			c44.7,44.7,79.3,96.8,102.9,155.1c11.3,28,20,57.2,25.8,86.9c5.7,29.3,8.6,59.4,8.6,89.3c0,29.9-2.9,60-8.5,89.4
			c-5.7,29.7-14.4,59-25.8,86.9c-23.6,58.3-58.3,110.5-103,155.2c-44.7,44.7-96.9,79.3-155.1,102.9c-28,11.3-57.2,20-86.9,25.8
			C60,465.8,29.9,468.6,0,468.6z"/>
		<path fill="none" stroke="#FFFFFF" stroke-width="1.6" stroke-miterlimit="10" d="M0,447.9c0,0-1,0-1.5,0
			c-28.5-0.1-57.1-2.9-85-8.4c-28.2-5.5-56.1-13.8-82.7-24.7c-55.4-22.6-105-55.6-147.5-98.1c-42.7-42.7-75.8-92.6-98.4-148.3
			c-10.8-26.7-19.1-54.7-24.6-83.1c-5.4-28.1-8.2-56.8-8.2-85.4c0-28.6,2.8-57.3,8.2-85.4c5.5-28.4,13.8-56.3,24.6-83
			c22.6-55.6,55.7-105.5,98.4-148.2c42.5-42.5,92.2-75.5,147.5-98.1c26.6-10.8,54.4-19.1,82.6-24.7c27.9-5.5,56.5-8.3,85-8.4
			c0.5,0,1,0,1.5,0c28.6,0,57.4,2.8,85.4,8.2c28.4,5.5,56.3,13.8,83.1,24.6c55.6,22.6,105.5,55.7,148.2,98.4
			c42.7,42.7,75.8,92.5,98.4,148.2c10.8,26.7,19.1,54.7,24.6,83c5.4,28.1,8.2,56.8,8.2,85.4c0,28.6-2.7,57.4-8.2,85.4
			c-5.5,28.4-13.8,56.3-24.6,83.1c-22.6,55.7-55.7,105.6-98.4,148.3c-42.7,42.7-92.6,75.8-148.2,98.4
			c-26.7,10.8-54.7,19.1-83.1,24.6C57.4,445.1,28.6,447.9,0,447.9z"/>
		<path fill="none" stroke="#FFFFFF" stroke-width="1.6" stroke-miterlimit="10" d="M0,427.1c0,0-0.9,0-1.4,0
			c-27.2-0.1-54.5-2.8-81.1-8c-26.9-5.3-53.5-13.2-78.8-23.5c-52.8-21.5-100.1-53-140.7-93.5c-40.7-40.7-72.3-88.3-93.8-141.4
			c-10.3-25.5-18.2-52.2-23.5-79.2c-5.2-26.8-7.8-54.2-7.8-81.5c0-27.3,2.6-54.7,7.8-81.4c5.2-27,13.1-53.7,23.5-79.2
			c21.5-53,53.1-100.6,93.8-141.3c40.6-40.6,87.9-72,140.7-93.5c25.4-10.3,51.9-18.3,78.8-23.5c26.6-5.2,53.9-7.9,81.1-8
			c0.5,0,1,0,1.4,0c27.3,0,54.7,2.6,81.5,7.8c27.1,5.2,53.7,13.1,79.2,23.5c53.1,21.5,100.6,53.1,141.3,93.8
			c40.7,40.7,72.3,88.3,93.8,141.3c10.3,25.5,18.2,52.1,23.5,79.2c5.2,26.8,7.8,54.2,7.8,81.4c0,27.3-2.6,54.7-7.8,81.5
			c-5.2,27.1-13.1,53.7-23.5,79.2C374.3,213.7,342.8,261.3,302,302c-40.7,40.7-88.3,72.3-141.3,93.8c-25.5,10.3-52.1,18.2-79.2,23.5
			C54.7,424.5,27.3,427.1,0,427.1z"/>
		<path fill="none" stroke="#FFFFFF" stroke-width="1.6" stroke-miterlimit="10" d="M-1.3,406.4c-25.9-0.1-51.8-2.6-77.2-7.6
			c-25.6-5-50.9-12.6-75-22.4c-50.2-20.5-95.3-50.4-133.9-89c-38.8-38.8-68.8-84-89.3-134.5c-9.8-24.3-17.3-49.6-22.3-75.4
			c-4.9-25.5-7.4-51.6-7.4-77.6c0-26,2.5-52,7.4-77.5c5-25.7,12.5-51.1,22.3-75.3c20.5-50.5,50.5-95.7,89.2-134.4
			c38.6-38.6,83.6-68.5,133.8-89c24.1-9.8,49.4-17.4,75-22.4c25.3-5,51.3-7.5,77.2-7.6c0.5,0,0.9,0,1.4,0c26,0,52.1,2.5,77.5,7.4
			c25.7,5,51.1,12.5,75.3,22.3c50.5,20.5,95.7,50.5,134.5,89.3c38.7,38.7,68.8,84,89.2,134.4c9.8,24.2,17.4,49.6,22.3,75.3
			c4.9,25.5,7.4,51.5,7.5,77.5c0,26-2.5,52.1-7.4,77.6c-5,25.8-12.5,51.1-22.3,75.4c-20.5,50.5-50.5,95.8-89.3,134.5
			c-38.8,38.8-84,68.8-134.5,89.3c-24.3,9.8-49.6,17.4-75.3,22.3c-25.5,4.9-51.5,7.4-77.5,7.4C0,406.4-0.9,406.4-1.3,406.4z"/>
		<path fill="none" stroke="#FFFFFF" stroke-width="1.6" stroke-miterlimit="10" d="M-1.2,385.6c-24.6-0.1-49.2-2.5-73.3-7.2
			c-24.3-4.8-48.3-11.9-71.2-21.2c-47.7-19.4-90.4-47.8-127-84.5c-36.8-36.8-65.3-79.7-84.7-127.6c-9.3-23-16.5-47.1-21.2-71.5
			c-4.7-24.2-7-48.9-7-73.6c0-24.6,2.4-49.4,7.1-73.5c4.7-24.4,11.9-48.5,21.2-71.5c19.4-47.9,47.9-90.8,84.7-127.6
			c36.6-36.6,79.4-65,127-84.5c22.9-9.3,46.8-16.5,71.1-21.3c24-4.7,48.7-7.2,73.2-7.2c0.5,0,0.9,0,1.3,0c24.6,0,49.4,2.4,73.6,7.1
			c24.4,4.7,48.5,11.9,71.5,21.2c47.9,19.4,90.8,47.9,127.6,84.7c36.8,36.8,65.3,79.7,84.7,127.6c9.3,23,16.5,47,21.2,71.5
			c4.7,24.2,7.1,48.9,7.1,73.5c0,24.7-2.4,49.4-7,73.6c-4.7,24.4-11.9,48.5-21.2,71.5c-19.4,47.9-47.9,90.8-84.7,127.6
			c-36.8,36.8-79.7,65.3-127.6,84.7c-23,9.3-47.1,16.5-71.5,21.2c-24.2,4.7-48.9,7.1-73.6,7.1C0,385.6-0.8,385.6-1.2,385.6z"/>
		<path fill="none" stroke="#FFFFFF" stroke-width="1.6" stroke-miterlimit="10" d="M-1.2,364.8c-23.2-0.1-46.6-2.4-69.3-6.8
			c-23-4.5-45.7-11.3-67.3-20.1c-45.1-18.4-85.5-45.3-120.2-79.9c-34.8-34.8-61.8-75.5-80.2-120.8c-8.8-21.8-15.6-44.5-20-67.7
			c-4.4-22.9-6.7-46.3-6.7-69.7c0-23.3,2.3-46.7,6.7-69.6c4.5-23.1,11.2-45.8,20-67.6c18.4-45.3,45.3-85.9,80.1-120.7
			c34.7-34.7,75.1-61.5,120.2-79.9c21.7-8.8,44.3-15.6,67.3-20.1c22.8-4.5,46.1-6.8,69.3-6.9c0.4,0,0.8,0,1.2,0
			c23.3,0,46.8,2.2,69.6,6.7c23.1,4.5,45.9,11.2,67.6,20c45.3,18.4,85.9,45.3,120.7,80.1c34.8,34.8,61.8,75.4,80.1,120.7
			c8.8,21.8,15.6,44.5,20.1,67.6c4.4,22.9,6.7,46.3,6.7,69.6c0,23.3-2.2,46.8-6.7,69.7c-4.5,23.1-11.2,45.9-20,67.7
			c-18.4,45.3-45.3,85.9-80.2,120.8c-34.8,34.8-75.4,61.8-120.7,80.1c-21.8,8.8-44.5,15.6-67.6,20c-22.9,4.4-46.3,6.7-69.6,6.7
			C0,364.8-0.8,364.8-1.2,364.8z"/>
		<path fill="none" stroke="#FFFFFF" stroke-width="1.6" stroke-miterlimit="10" d="M-1.1,344.1c-21.9-0.1-43.9-2.2-65.4-6.5
			c-21.7-4.3-43.1-10.6-63.5-19c-42.5-17.3-80.6-42.7-113.3-75.4c-32.8-32.8-58.3-71.2-75.6-113.9c-8.3-20.5-14.7-42-18.9-63.8
			c-4.2-21.6-6.3-43.7-6.3-65.7c0-22,2.1-44.1,6.3-65.7c4.2-21.8,10.6-43.2,18.9-63.8c17.3-42.7,42.7-81,75.6-113.8
			c32.7-32.7,70.8-58,113.3-75.4c20.4-8.3,41.8-14.7,63.5-19c21.5-4.2,43.5-6.4,65.4-6.5c0.4,0,0.8,0,1.1,0c22,0,44.1,2.1,65.7,6.3
			c21.8,4.2,43.3,10.6,63.8,18.9c42.7,17.3,81,42.7,113.8,75.6c32.8,32.8,58.2,71.1,75.6,113.8c8.3,20.5,14.7,42,18.9,63.8
			c4.2,21.6,6.3,43.7,6.3,65.7c0,22-2.1,44.1-6.3,65.7c-4.2,21.8-10.6,43.3-18.9,63.8c-17.3,42.7-42.8,81-75.6,113.9
			c-32.8,32.8-71.1,58.3-113.8,75.6c-20.5,8.3-42,14.7-63.8,18.9C44.1,342,22,344.1,0,344.1C0,344.1-0.7,344.1-1.1,344.1z"/>
		<path fill="none" stroke="#FFFFFF" stroke-width="1.6" stroke-miterlimit="10" d="M-1,323.3c-20.6-0.1-41.3-2.1-61.5-6.1
			c-20.4-4-40.5-10-59.6-17.8c-39.9-16.3-75.8-40.1-106.5-70.8c-30.9-30.9-54.8-66.9-71-107c-7.8-19.3-13.8-39.5-17.8-59.9
			c-3.9-20.3-5.9-41.1-5.9-61.8c0-20.7,2-41.4,5.9-61.7c4-20.5,9.9-40.6,17.8-59.9c16.3-40.1,40.2-76.1,71-106.9
			c30.7-30.7,66.5-54.5,106.5-70.8c19.2-7.8,39.3-13.8,59.6-17.8c20.2-4,40.9-6,61.5-6.1c0.4,0,0.7,0,1.1,0c20.7,0,41.5,2,61.7,5.9
			c20.5,4,40.6,9.9,59.9,17.8c40.1,16.3,76.1,40.2,107,71c30.8,30.8,54.7,66.8,71,106.9c7.8,19.3,13.8,39.4,17.8,59.9
			c3.9,20.3,5.9,41,5.9,61.7c0,20.7-2,41.5-5.9,61.8c-4,20.5-9.9,40.7-17.8,59.9c-16.3,40.1-40.2,76.1-71,107
			c-30.9,30.9-66.8,54.8-107,71c-19.3,7.8-39.4,13.8-59.9,17.8c-20.3,3.9-41,5.9-61.7,5.9C0,323.3-0.7,323.3-1,323.3z"/>
		<path fill="none" stroke="#FFFFFF" stroke-width="1.6" stroke-miterlimit="10" d="M-213.9-213.9C-273-154.9-302.5-77.5-302.6-0.1
			c0,77.5,29.5,154.9,88.6,214c58.8,58.8,135.9,88.4,213,88.6c77.8,0.3,155.6-29.3,214.9-88.6c59.1-59.1,88.6-136.6,88.6-214
			c0-77.4-29.6-154.8-88.6-213.9C154.6-273.3,76.8-302.8-1-302.6C-78.1-302.3-155.1-272.8-213.9-213.9z"/>
	</g>
</g>
</svg>
