<?xml version="1.0" encoding="utf-8"?>
<!-- Generator: Adobe Illustrator 26.2.1, SVG Export Plug-In . SVG Version: 6.00 Build 0)  -->
<svg version="1.1" id="Layer_1" xmlns="http://www.w3.org/2000/svg" xmlns:xlink="http://www.w3.org/1999/xlink" x="0px" y="0px"
	 viewBox="0 0 329.6 329.6" enable-background="new 0 0 329.6 329.6" xml:space="preserve">
<g>
	<g>
		<g>
			<g>
				<path fill="#FFA900" d="M-251.2,4067.1v81.5h-10.4v-81.5h-25.6v-9.2h61.6v9.2H-251.2z"/>
				<path fill="#FFA900" d="M-213,4052.4h9.9v40h1.3c1.3-4.2,3.3-7.3,6-9.4c2.7-2.1,6.4-3.1,11.1-3.1c6,0,10.7,2,14.1,6.1
					c3.4,4.1,5.1,10.4,5.1,18.9v43.7h-9.9v-43c0-5.4-1.1-9.5-3.3-12.3s-5.6-4.3-10.2-4.3c-4,0-7.4,1.2-10.1,3.6
					c-2.8,2.4-4.2,5.9-4.2,10.3v45.8h-9.9V4052.4z"/>
				<path fill="#FFA900" d="M-123.4,4150.2c-3.9,0-7.5-0.6-10.9-1.9c-3.4-1.3-6.3-3.4-8.7-6.2c-2.4-2.9-4.3-6.5-5.7-10.9
					c-1.4-4.4-2.1-9.8-2.1-16s0.7-11.6,2.1-16c1.4-4.4,3.3-8.1,5.7-10.9c2.4-2.9,5.3-4.9,8.7-6.2c3.4-1.3,7-1.9,10.9-1.9
					c3.9,0,7.5,0.6,10.7,1.9c3.2,1.3,6,3.4,8.3,6.2c2.3,2.9,4,6.5,5.3,10.9c1.3,4.4,1.9,9.8,1.9,16v2.5h-43v4.3
					c0,6.6,1.5,11.5,4.5,14.8c3,3.2,7.1,4.9,12.4,4.9c4.5,0,8.2-1,11-2.9c2.9-2,5.1-4.9,6.8-8.8l6.8,4.9c-2.1,4.6-5.1,8.3-9.2,11.2
					C-112,4148.7-117.2,4150.2-123.4,4150.2z M-123.4,4088.3c-5.4,0-9.5,1.7-12.5,5.1c-2.9,3.4-4.4,8.4-4.4,15v1.7h32.5v-1.7
					C-107.8,4095-113,4088.3-123.4,4088.3z"/>
				<path fill="#FFA900" d="M-332.5,4263.9v-90.7h10.4v81.5h34.5v9.2H-332.5z"/>
				<path fill="#FFA900" d="M-269.5,4180.6c-4.1,0-6.1-1.8-6.1-5.3v-2.1c0-3.6,2-5.3,6.1-5.3c4.1,0,6.1,1.8,6.1,5.3v2.1
					C-263.4,4178.8-265.5,4180.6-269.5,4180.6z M-274.5,4196.9h9.9v67.1h-9.9V4196.9z"/>
				<path fill="#FFA900" d="M-231.6,4263.9l-21.1-67.1h9.9l10.3,33.8l6.2,24.6h1.3l6.2-24.6l10.3-33.8h9.6l-21.1,67.1H-231.6z"/>
				<path fill="#FFA900" d="M-182,4180.6c-4.1,0-6.1-1.8-6.1-5.3v-2.1c0-3.6,2-5.3,6.1-5.3c4.1,0,6.1,1.8,6.1,5.3v2.1
					C-175.9,4178.8-178,4180.6-182,4180.6z M-187,4196.9h9.9v67.1h-9.9V4196.9z"/>
				<path fill="#FFA900" d="M-157.3,4263.9v-67.1h9.9v10.9h1.3c1.3-4.2,3.3-7.3,6-9.4c2.7-2.1,6.4-3.1,11.1-3.1c6,0,10.7,2,14.1,6.1
					c3.4,4.1,5.1,10.4,5.1,18.9v43.7h-9.9v-43c0-5.4-1.1-9.5-3.3-12.3s-5.6-4.3-10.2-4.3c-4,0-7.4,1.2-10.1,3.6
					c-2.8,2.4-4.2,5.9-4.2,10.3v45.8H-157.3z"/>
				<path fill="#FFA900" d="M-39.4,4271.6c0,7.1-2.4,12.2-7.2,15.3c-4.8,3.1-12.2,4.7-22.3,4.7c-9.6,0-16.5-1.4-20.6-4.3
					c-4.1-2.9-6.2-7-6.2-12.3c0-3.6,0.9-6.5,2.7-8.6c1.8-2.1,4.2-3.4,7-3.9v-1.8c-1.7-0.9-3.1-2.2-4.1-3.7c-1-1.5-1.5-3.3-1.5-5.4
					c0-2.8,0.8-5.1,2.4-7.1c1.6-2,4.2-3.2,7.9-3.6v-1.4c-3.5-1.7-6.2-4.3-8.1-7.8s-2.9-7.8-2.9-13c0-7.6,2.1-13.4,6.2-17.3
					s9.8-5.9,16.8-5.9c4.2,0,7.9,0.7,11.3,2.2v-2.3c0-2.5,0.6-4.3,1.7-5.5c1.1-1.1,2.9-1.7,5.5-1.7h9v8.7h-11.6v3.7
					c2.3,2,4,4.5,5.3,7.4c1.3,3,1.9,6.5,1.9,10.7c0,7.6-2.1,13.4-6.2,17.3c-4.2,3.9-9.8,5.9-16.8,5.9c-2.1,0-4.2-0.2-6.4-0.7
					c-2.4,0.4-4.3,1.4-5.5,2.9c-1.3,1.5-1.9,3.1-1.9,4.6c0,1.7,0.6,3,1.8,3.9c1.2,0.9,3.2,1.3,6,1.3h14.7c7.5,0,13,1.5,16.2,4.5
					C-41.1,4261.5-39.4,4265.9-39.4,4271.6z M-48.7,4272.1c0-2.9-0.9-5.2-2.7-6.7c-1.8-1.5-4.9-2.3-9.4-2.3h-20.4
					c-2,1-3.4,2.2-4.2,3.6c-0.8,1.5-1.2,3.3-1.2,5.6c0,3.4,1,6,3.1,8c2.1,1.9,5.4,2.9,10,2.9h8.6c5.4,0,9.4-0.9,12.2-2.7
					C-50,4278.9-48.7,4276-48.7,4272.1z M-69.3,4233.8c4.1,0,7.2-1,9.5-3.1c2.3-2.1,3.4-5.3,3.4-9.7v-4.8c0-4.4-1.1-7.6-3.4-9.7
					c-2.3-2.1-5.4-3.1-9.5-3.1c-4.1,0-7.2,1-9.5,3.1c-2.3,2.1-3.4,5.3-3.4,9.7v4.8c0,4.4,1.1,7.6,3.4,9.7
					C-76.6,4232.7-73.4,4233.8-69.3,4233.8z"/>
			</g>
		</g>
		<g>
			<g>
				<path fill="#FFA900" d="M-1662.8,4405.6v81.5h-10.4v-81.5h-25.6v-9.2h61.6v9.2H-1662.8z"/>
				<path fill="#FFA900" d="M-1624.6,4390.9h9.9v40h1.3c1.3-4.2,3.3-7.3,6-9.4c2.7-2.1,6.4-3.1,11.1-3.1c6,0,10.7,2,14.1,6.1
					c3.4,4.1,5.1,10.4,5.1,18.9v43.7h-9.9v-43c0-5.4-1.1-9.5-3.3-12.3s-5.6-4.3-10.2-4.3c-4,0-7.4,1.2-10.1,3.6
					c-2.8,2.4-4.2,5.9-4.2,10.3v45.8h-9.9V4390.9z"/>
				<path fill="#FFA900" d="M-1535,4488.7c-3.9,0-7.5-0.6-10.9-1.9c-3.4-1.3-6.3-3.4-8.7-6.2c-2.4-2.9-4.3-6.5-5.7-10.9
					c-1.4-4.4-2.1-9.8-2.1-16s0.7-11.6,2.1-16c1.4-4.4,3.3-8.1,5.7-10.9c2.4-2.9,5.3-4.9,8.7-6.2c3.4-1.3,7-1.9,10.9-1.9
					c3.9,0,7.5,0.6,10.7,1.9c3.2,1.3,6,3.4,8.3,6.2c2.3,2.9,4,6.5,5.3,10.9c1.3,4.4,1.9,9.8,1.9,16v2.5h-43v4.3
					c0,6.6,1.5,11.5,4.5,14.8c3,3.2,7.1,4.9,12.4,4.9c4.5,0,8.2-1,11.1-2.9s5.1-4.9,6.8-8.8l6.8,4.9c-2.1,4.6-5.1,8.3-9.2,11.2
					C-1523.7,4487.2-1528.8,4488.7-1535,4488.7z M-1535,4426.8c-5.4,0-9.5,1.7-12.5,5.1c-2.9,3.4-4.4,8.4-4.4,15v1.7h32.5v-1.7
					C-1519.4,4433.5-1524.6,4426.8-1535,4426.8z"/>
				<path fill="#FFA900" d="M-1784.5,4604c-6.5,0-12.2-1.4-17-4.1c-4.9-2.7-8.9-6.5-12.1-11.4l7.5-6.2c2.8,4.1,5.9,7.2,9.4,9.4
					c3.5,2.2,7.5,3.3,12.2,3.3c12.3,0,18.5-5.8,18.5-17.3c0-4.7-1.1-8.2-3.4-10.7c-2.3-2.4-6.2-4.3-11.7-5.7l-6.8-1.7
					c-8-2-13.8-4.9-17.6-8.8c-3.8-3.9-5.7-9.3-5.7-16.3c0-8.1,2.5-14.1,7.5-18.3c5-4.1,11.7-6.2,20-6.2c6.3,0,11.6,1.2,15.9,3.5
					s8,6,11.2,11l-7.7,5.5c-2.3-3.6-5-6.4-8-8.3c-3-1.9-7-2.8-11.9-2.8c-5.5,0-9.8,1.2-12.7,3.6c-2.9,2.4-4.4,6.4-4.4,11.8
					c0,4.4,1.2,7.8,3.6,10c2.4,2.3,6.2,4,11.5,5.3l6.8,1.7c4.2,1,7.8,2.3,10.8,3.7c2.9,1.4,5.4,3.2,7.2,5.3c1.9,2.1,3.2,4.5,4,7.3
					c0.8,2.8,1.2,6.1,1.2,9.8c0,8.6-2.5,15.1-7.6,19.6C-1768.6,4601.8-1775.6,4604-1784.5,4604z"/>
				<path fill="#FFA900" d="M-1740.3,4535.4h9.9v10.8h1.3c1.3-4.4,3.4-7.5,6.3-9.5c2.9-1.9,6.4-2.9,10.6-2.9c4,0,7.5,0.8,10.5,2.5
					c3,1.6,5.6,4,7.7,7c2.1,3,3.6,6.7,4.7,11.1c1,4.3,1.6,9.2,1.6,14.6c0,5.4-0.5,10.2-1.6,14.6c-1,4.3-2.6,8-4.7,11.1
					c-2.1,3-4.6,5.4-7.7,7c-3,1.6-6.5,2.5-10.5,2.5c-4.2,0-7.7-1-10.6-2.9c-2.9-1.9-5-5.1-6.3-9.5h-1.3v36.8h-9.9V4535.4z
					 M-1715.2,4595.3c5.5,0,9.6-1.7,12.5-5.2c2.9-3.4,4.3-8.3,4.3-14.4v-13.6c0-6.2-1.4-11-4.3-14.4c-2.9-3.4-7-5.2-12.5-5.2
					c-2.1,0-4.1,0.3-5.9,0.9c-1.9,0.6-3.5,1.5-4.8,2.6c-1.3,1.1-2.4,2.5-3.2,4c-0.8,1.6-1.2,3.3-1.2,5.2v27.2c0,1.9,0.4,3.7,1.2,5.2
					c0.8,1.6,1.9,2.9,3.2,4.1c1.3,1.1,2.9,2,4.8,2.6C-1719.3,4595-1717.3,4595.3-1715.2,4595.3z"/>
				<path fill="#FFA900" d="M-1649.3,4604c-3.9,0-7.5-0.6-10.9-1.9c-3.4-1.3-6.3-3.4-8.7-6.2c-2.4-2.9-4.3-6.5-5.7-10.9
					c-1.4-4.4-2.1-9.8-2.1-16s0.7-11.6,2.1-16c1.4-4.4,3.3-8.1,5.7-10.9c2.4-2.9,5.3-4.9,8.7-6.2c3.4-1.3,7-1.9,10.9-1.9
					c3.9,0,7.5,0.6,10.7,1.9c3.2,1.3,6,3.4,8.3,6.2c2.3,2.9,4,6.5,5.3,10.9c1.3,4.4,1.9,9.8,1.9,16v2.5h-43v4.3
					c0,6.6,1.5,11.5,4.5,14.8c3,3.2,7.1,4.9,12.4,4.9c4.5,0,8.2-1,11.1-2.9s5.1-4.9,6.8-8.8l6.8,4.9c-2.1,4.6-5.1,8.3-9.2,11.2
					C-1637.9,4602.6-1643.1,4604-1649.3,4604z M-1649.3,4542.1c-5.4,0-9.5,1.7-12.5,5.1c-2.9,3.4-4.4,8.4-4.4,15v1.7h32.5v-1.7
					C-1633.7,4548.8-1638.9,4542.1-1649.3,4542.1z"/>
				<path fill="#FFA900" d="M-1565.5,4602.4c-6.4,0-9.6-3.2-9.6-9.7v-1.3h-1.3c-1.1,4.1-3.2,7.2-6.2,9.4c-3,2.1-6.6,3.2-10.7,3.2
					c-6.5,0-11.4-1.6-14.6-4.9c-3.2-3.3-4.8-8.1-4.8-14.6c0-6.2,2.1-11.2,6.2-14.8c4.1-3.6,10.6-5.5,19.3-5.5h12.1v-7.4
					c0-4.9-1.1-8.6-3.3-10.9s-5.7-3.5-10.5-3.5c-3.9,0-7,0.8-9.4,2.5c-2.4,1.7-4.4,4.1-6.2,7.3l-5.8-5.5c1.7-3.6,4.5-6.7,8.3-9.2
					c3.8-2.5,8.3-3.7,13.5-3.7c7.6,0,13.4,1.8,17.4,5.5c3.9,3.7,5.9,9.1,5.9,16.3v38h6.8v8.7H-1565.5z M-1590.8,4595.3
					c2.3,0,4.4-0.4,6.3-1.2c2-0.8,3.6-1.8,5-3c1.4-1.2,2.5-2.7,3.2-4.3c0.8-1.6,1.2-3.3,1.2-5v-10.1h-12.4c-5.2,0-9,0.9-11.4,2.6
					c-2.4,1.7-3.6,4.2-3.6,7.5v3.6c0,3.4,1,5.8,3.1,7.4S-1594.4,4595.3-1590.8,4595.3z"/>
				<path fill="#FFA900" d="M-1545.1,4506.2h9.9v49.4l-0.8,13.1h1l9.4-12.6l16.8-20.8h12l-22.2,26.7l24.2,40.4h-11.8l-19.6-34.6
					l-8.8,10.4v24.2h-9.9V4506.2z"/>
				<path fill="#FFA900" d="M-1461.3,4604c-3.9,0-7.5-0.6-10.9-1.9c-3.4-1.3-6.3-3.4-8.7-6.2c-2.4-2.9-4.3-6.5-5.7-10.9
					c-1.4-4.4-2.1-9.8-2.1-16s0.7-11.6,2.1-16c1.4-4.4,3.3-8.1,5.7-10.9c2.4-2.9,5.3-4.9,8.7-6.2c3.4-1.3,7-1.9,10.9-1.9
					c3.9,0,7.5,0.6,10.7,1.9c3.2,1.3,6,3.4,8.3,6.2c2.3,2.9,4,6.5,5.3,10.9c1.3,4.4,1.9,9.8,1.9,16v2.5h-43v4.3
					c0,6.6,1.5,11.5,4.5,14.8c3,3.2,7.1,4.9,12.4,4.9c4.5,0,8.2-1,11.1-2.9s5.1-4.9,6.8-8.8l6.8,4.9c-2.1,4.6-5.1,8.3-9.2,11.2
					C-1450,4602.6-1455.1,4604-1461.3,4604z M-1461.3,4542.1c-5.4,0-9.5,1.7-12.5,5.1c-2.9,3.4-4.4,8.4-4.4,15v1.7h32.5v-1.7
					C-1445.7,4548.8-1450.9,4542.1-1461.3,4542.1z"/>
				<path fill="#FFA900" d="M-1419.9,4602.4v-67.1h9.9v12.5h1.3c1.1-3.9,3.1-7,5.8-9.2s6.3-3.3,10.7-3.3h3.6v10h-6.5
					c-4.7,0-8.3,1-11,3.1c-2.6,2.1-4,5.2-4,9.4v44.6H-1419.9z"/>
			</g>
		</g>
		<g>
			<g>
				<path fill="#FFA900" d="M-955.5,4443.6v81.5h-10.4v-81.5h-25.6v-9.2h61.6v9.2H-955.5z"/>
				<path fill="#FFA900" d="M-917.3,4428.9h9.9v40h1.3c1.3-4.2,3.3-7.3,6-9.4c2.7-2.1,6.4-3.1,11.1-3.1c6,0,10.7,2,14.1,6.1
					c3.4,4.1,5.1,10.4,5.1,18.9v43.7h-9.9v-43c0-5.4-1.1-9.5-3.3-12.3s-5.6-4.3-10.2-4.3c-4,0-7.4,1.2-10.1,3.6
					c-2.8,2.4-4.2,5.9-4.2,10.3v45.8h-9.9V4428.9z"/>
				<path fill="#FFA900" d="M-827.7,4526.7c-3.9,0-7.5-0.6-10.9-1.9c-3.4-1.3-6.3-3.4-8.7-6.2c-2.4-2.9-4.3-6.5-5.7-10.9
					c-1.4-4.4-2.1-9.8-2.1-16s0.7-11.6,2.1-16c1.4-4.4,3.3-8.1,5.7-10.9c2.4-2.9,5.3-4.9,8.7-6.2c3.4-1.3,7-1.9,10.9-1.9
					c3.9,0,7.5,0.6,10.7,1.9c3.2,1.3,6,3.4,8.3,6.2c2.3,2.9,4,6.5,5.3,10.9c1.3,4.4,1.9,9.8,1.9,16v2.5h-43v4.3
					c0,6.6,1.5,11.5,4.5,14.8c3,3.2,7.1,4.9,12.4,4.9c4.5,0,8.2-1,11.1-2.9s5.1-4.9,6.8-8.8l6.8,4.9c-2.1,4.6-5.1,8.3-9.2,11.2
					C-816.4,4525.2-821.5,4526.7-827.7,4526.7z M-827.7,4464.8c-5.4,0-9.5,1.7-12.5,5.1c-2.9,3.4-4.4,8.4-4.4,15v1.7h32.5v-1.7
					C-812.1,4471.5-817.3,4464.8-827.7,4464.8z"/>
				<path fill="#FFA900" d="M-1074.6,4549.7h28.5c10.5,0,18.6,3.6,24.3,10.9c5.7,7.2,8.6,18.7,8.6,34.5c0,15.8-2.9,27.3-8.6,34.5
					c-5.7,7.2-13.8,10.9-24.3,10.9h-28.5V4549.7z M-1046.1,4631.2c6.5,0,11.7-2.2,15.7-6.7c4-4.5,6-10.9,6-19.3V4585
					c0-8.4-2-14.8-6-19.3c-4-4.5-9.2-6.7-15.7-6.7h-18.1v72.3H-1046.1z"/>
				<path fill="#FFA900" d="M-973.7,4642c-3.9,0-7.5-0.6-10.9-1.9c-3.4-1.3-6.3-3.4-8.7-6.2c-2.4-2.9-4.3-6.5-5.7-10.9
					c-1.4-4.4-2.1-9.8-2.1-16s0.7-11.6,2.1-16c1.4-4.4,3.3-8.1,5.7-10.9c2.4-2.9,5.3-4.9,8.7-6.2c3.4-1.3,7-1.9,10.9-1.9
					c3.9,0,7.5,0.6,10.7,1.9c3.2,1.3,6,3.4,8.3,6.2c2.3,2.9,4,6.5,5.3,10.9c1.3,4.4,1.9,9.8,1.9,16v2.5h-43v4.3
					c0,6.6,1.5,11.5,4.5,14.8c3,3.2,7.1,4.9,12.4,4.9c4.5,0,8.2-1,11.1-2.9s5.1-4.9,6.8-8.8l6.8,4.9c-2.1,4.6-5.1,8.3-9.2,11.2
					C-962.4,4640.6-967.5,4642-973.7,4642z M-973.7,4580.1c-5.4,0-9.5,1.7-12.5,5.1c-2.9,3.4-4.4,8.4-4.4,15v1.7h32.5v-1.7
					C-958.1,4586.8-963.3,4580.1-973.7,4580.1z"/>
				<path fill="#FFA900" d="M-913.7,4642c-5.5,0-10.3-1.1-14.2-3.4c-3.9-2.3-7.3-5.4-10.1-9.4l6.9-5.7c2.3,3.3,4.9,5.8,7.6,7.5
					c2.7,1.7,6,2.6,9.8,2.6c3.9,0,7-1,9.3-2.9c2.3-2,3.4-4.7,3.4-8.4c0-2.9-0.7-5.3-2.2-7.1c-1.5-1.8-4.2-3.1-8.2-3.8l-5.1-0.9
					c-6.5-1.2-11.3-3.2-14.5-6.1c-3.2-2.9-4.7-7.2-4.7-13c0-3.4,0.5-6.3,1.6-8.8s2.5-4.5,4.4-6.1c1.9-1.6,4.2-2.8,6.8-3.5
					c2.6-0.7,5.5-1.1,8.6-1.1c5,0,9.2,0.9,12.7,2.7c3.4,1.8,6.4,4.4,8.9,7.7l-6.4,5.9c-1.5-2.1-3.4-3.9-5.9-5.5
					c-2.4-1.6-5.5-2.4-9.4-2.4c-7.9,0-11.8,3.6-11.8,10.8c0,3.3,0.8,5.7,2.5,7.2c1.7,1.5,4.4,2.6,8.3,3.3l5.1,0.9
					c6.8,1.2,11.7,3.3,14.6,6.4c2.9,3,4.3,7.1,4.3,12.3c0,6.5-1.9,11.6-5.7,15.3C-900.7,4640.1-906.3,4642-913.7,4642z"/>
				<path fill="#FFA900" d="M-870.3,4557.1c-4.1,0-6.1-1.8-6.1-5.3v-2.1c0-3.6,2-5.3,6.1-5.3c4.1,0,6.1,1.8,6.1,5.3v2.1
					C-864.1,4555.3-866.2,4557.1-870.3,4557.1z M-875.2,4573.3h9.9v67.1h-9.9V4573.3z"/>
				<path fill="#FFA900" d="M-845.6,4640.4v-67.1h9.9v12.5h1.3c1.1-3.9,3.1-7,5.8-9.2s6.3-3.3,10.7-3.3h3.6v10h-6.5
					c-4.7,0-8.3,1-11,3.1c-2.6,2.1-4,5.2-4,9.4v44.6H-845.6z"/>
				<path fill="#FFA900" d="M-779.8,4642c-3.9,0-7.5-0.6-10.9-1.9c-3.4-1.3-6.3-3.4-8.7-6.2c-2.4-2.9-4.3-6.5-5.7-10.9
					c-1.4-4.4-2.1-9.8-2.1-16s0.7-11.6,2.1-16c1.4-4.4,3.3-8.1,5.7-10.9c2.4-2.9,5.3-4.9,8.7-6.2c3.4-1.3,7-1.9,10.9-1.9
					c3.9,0,7.5,0.6,10.7,1.9c3.2,1.3,6,3.4,8.3,6.2c2.3,2.9,4,6.5,5.3,10.9c1.3,4.4,1.9,9.8,1.9,16v2.5h-43v4.3
					c0,6.6,1.5,11.5,4.5,14.8c3,3.2,7.1,4.9,12.4,4.9c4.5,0,8.2-1,11.1-2.9s5.1-4.9,6.8-8.8l6.8,4.9c-2.1,4.6-5.1,8.3-9.2,11.2
					C-768.4,4640.6-773.5,4642-779.8,4642z M-779.8,4580.1c-5.4,0-9.5,1.7-12.5,5.1c-2.9,3.4-4.4,8.4-4.4,15v1.7h32.5v-1.7
					C-764.2,4586.8-769.4,4580.1-779.8,4580.1z"/>
				<path fill="#FFA900" d="M-738.3,4640.4v-67.1h9.9v12.5h1.3c1.1-3.9,3.1-7,5.8-9.2s6.3-3.3,10.7-3.3h3.6v10h-6.5
					c-4.7,0-8.3,1-11,3.1c-2.6,2.1-4,5.2-4,9.4v44.6H-738.3z"/>
			</g>
		</g>
		<g>
			<g>
				<path fill="#FFA900" d="M-246.4,4841.5v81.5h-10.4v-81.5h-25.6v-9.2h61.6v9.2H-246.4z"/>
				<path fill="#FFA900" d="M-208.2,4826.8h9.9v40h1.3c1.3-4.2,3.3-7.3,6-9.4c2.7-2.1,6.4-3.1,11.1-3.1c6,0,10.7,2,14.1,6.1
					c3.4,4.1,5.1,10.4,5.1,18.9v43.7h-9.9v-43c0-5.4-1.1-9.5-3.3-12.3c-2.2-2.9-5.6-4.3-10.2-4.3c-4,0-7.4,1.2-10.1,3.6
					c-2.8,2.4-4.2,5.9-4.2,10.3v45.8h-9.9V4826.8z"/>
				<path fill="#FFA900" d="M-118.6,4924.5c-3.9,0-7.5-0.6-10.9-1.9s-6.3-3.4-8.7-6.2c-2.4-2.9-4.3-6.5-5.7-10.9
					c-1.4-4.4-2.1-9.8-2.1-16s0.7-11.6,2.1-16c1.4-4.4,3.3-8.1,5.7-10.9c2.4-2.9,5.3-4.9,8.7-6.2c3.4-1.3,7-1.9,10.9-1.9
					c3.9,0,7.5,0.7,10.7,1.9c3.2,1.3,6,3.4,8.3,6.2c2.3,2.9,4,6.5,5.3,10.9c1.3,4.4,1.9,9.8,1.9,16v2.5h-43v4.3
					c0,6.6,1.5,11.5,4.5,14.8c3,3.2,7.1,4.9,12.4,4.9c4.5,0,8.2-1,11-2.9c2.9-1.9,5.1-4.9,6.8-8.8l6.8,4.9
					c-2.1,4.6-5.1,8.3-9.2,11.2S-112.4,4924.5-118.6,4924.5z M-118.6,4862.6c-5.4,0-9.5,1.7-12.5,5.1c-2.9,3.4-4.4,8.4-4.4,14.9v1.7
					h32.5v-1.7C-103,4869.3-108.2,4862.6-118.6,4862.6z"/>
				<path fill="#FFA900" d="M-390.5,5025.7h-1.3c-1,4.1-3.3,7.5-7,10.1c-3.7,2.7-8.9,4-15.5,4c-4.9,0-9.4-0.9-13.5-2.8
					c-4.1-1.9-7.5-4.7-10.4-8.5c-2.9-3.8-5.1-8.7-6.7-14.6c-1.6-5.9-2.4-12.9-2.4-21c0-16.2,3-28.1,9.1-35.6
					c6.1-7.5,14.6-11.3,25.6-11.3c8,0,14.3,1.7,19.1,5.1c4.8,3.4,8.5,8.1,11.2,14.1l-8.6,5.2c-1.7-4.8-4.4-8.5-7.9-11.2
					c-3.6-2.7-8.1-4-13.8-4c-7.5,0-13.3,2.5-17.4,7.5c-4.1,5-6.1,11.7-6.1,20.1v20.3c0,8.4,2,15.1,6.1,20.1c4.1,5,9.9,7.5,17.4,7.5
					c2.9,0,5.7-0.4,8.4-1.3c2.6-0.9,4.9-2.1,6.9-3.8c1.9-1.7,3.5-3.8,4.6-6.2c1.1-2.5,1.7-5.3,1.7-8.4v-9.9h-17.9v-9.2h28.1v46.5
					h-9.6V5025.7z"/>
				<path fill="#FFA900" d="M-339.8,5039.9c-3.9,0-7.5-0.7-10.9-1.9c-3.4-1.3-6.3-3.4-8.7-6.2c-2.4-2.9-4.3-6.5-5.7-10.9
					c-1.4-4.4-2.1-9.8-2.1-16s0.7-11.6,2.1-16c1.4-4.4,3.3-8.1,5.7-10.9c2.4-2.9,5.3-4.9,8.7-6.2c3.4-1.3,7-1.9,10.9-1.9
					c3.9,0,7.5,0.6,10.9,1.9c3.4,1.3,6.3,3.4,8.7,6.2c2.4,2.9,4.3,6.5,5.7,10.9c1.4,4.4,2.1,9.8,2.1,16s-0.7,11.6-2.1,16
					c-1.4,4.4-3.3,8.1-5.7,10.9c-2.4,2.9-5.3,4.9-8.7,6.2C-332.2,5039.2-335.9,5039.9-339.8,5039.9z M-339.8,5031.1
					c5.4,0,9.5-1.6,12.4-4.8c2.9-3.2,4.4-8.1,4.4-14.8V4998c0-6.6-1.5-11.5-4.4-14.8c-2.9-3.2-7-4.8-12.4-4.8
					c-5.4,0-9.5,1.6-12.4,4.8c-2.9,3.2-4.4,8.1-4.4,14.8v13.6c0,6.6,1.5,11.5,4.4,14.8C-349.3,5029.5-345.2,5031.1-339.8,5031.1z"/>
				<path fill="#FFA900" d="M-284.7,5038.3l-21.1-67.1h9.9l10.3,33.8l6.2,24.6h1.3l6.2-24.6l10.3-33.8h9.6l-21.1,67.1H-284.7z"/>
				<path fill="#FFA900" d="M-218,5039.9c-3.9,0-7.5-0.7-10.9-1.9c-3.4-1.3-6.3-3.4-8.7-6.2c-2.4-2.9-4.3-6.5-5.7-10.9
					c-1.4-4.4-2.1-9.8-2.1-16s0.7-11.6,2.1-16c1.4-4.4,3.3-8.1,5.7-10.9c2.4-2.9,5.3-4.9,8.7-6.2s7-1.9,10.9-1.9
					c3.9,0,7.5,0.6,10.7,1.9s6,3.4,8.3,6.2c2.3,2.9,4,6.5,5.3,10.9c1.3,4.4,1.9,9.8,1.9,16v2.5h-43v4.3c0,6.6,1.5,11.5,4.5,14.8
					c3,3.2,7.1,4.9,12.4,4.9c4.5,0,8.2-1,11-2.9c2.9-2,5.1-4.9,6.8-8.8l6.8,4.9c-2.1,4.6-5.1,8.3-9.2,11.2
					C-206.6,5038.4-211.7,5039.9-218,5039.9z M-218,4978c-5.4,0-9.5,1.7-12.5,5.1c-2.9,3.4-4.4,8.4-4.4,15v1.7h32.5v-1.7
					C-202.4,4984.6-207.6,4978-218,4978z"/>
				<path fill="#FFA900" d="M-176.5,5038.3v-67.1h9.9v12.5h1.3c1.1-3.9,3.1-7,5.8-9.2c2.7-2.2,6.3-3.3,10.7-3.3h3.6v10h-6.5
					c-4.7,0-8.3,1-11,3.1c-2.6,2.1-4,5.2-4,9.4v44.6H-176.5z"/>
				<path fill="#FFA900" d="M-133.3,5038.3v-67.1h9.9v10.9h1.3c1.3-4.2,3.3-7.3,6-9.4c2.7-2.1,6.4-3.1,11.1-3.1c6,0,10.7,2,14.1,6.1
					c3.4,4.1,5.1,10.4,5.1,18.8v43.7h-9.9v-43c0-5.4-1.1-9.5-3.3-12.3c-2.2-2.9-5.6-4.3-10.2-4.3c-4,0-7.4,1.2-10.1,3.6
					c-2.8,2.4-4.2,5.8-4.2,10.3v45.8H-133.3z"/>
				<path fill="#FFA900" d="M-61.7,4955c-4.1,0-6.1-1.8-6.1-5.3v-2.1c0-3.6,2-5.3,6.1-5.3c4.1,0,6.1,1.8,6.1,5.3v2.1
					C-55.6,4953.2-57.6,4955-61.7,4955z M-66.6,4971.2h9.9v67.1h-9.9V4971.2z"/>
				<path fill="#FFA900" d="M-37,5038.3v-67.1h9.9v10.9h1.3c1.3-4.2,3.3-7.3,6-9.4c2.7-2.1,6.4-3.1,11.1-3.1c6,0,10.7,2,14.1,6.1
					c3.4,4.1,5.1,10.4,5.1,18.8v43.7H0.7v-43c0-5.4-1.1-9.5-3.3-12.3c-2.2-2.9-5.6-4.3-10.2-4.3c-4,0-7.4,1.2-10.1,3.6
					c-2.8,2.4-4.2,5.8-4.2,10.3v45.8H-37z"/>
				<path fill="#FFA900" d="M80.9,5045.9c0,7.1-2.4,12.2-7.2,15.3c-4.8,3.1-12.2,4.7-22.3,4.7c-9.6,0-16.5-1.4-20.6-4.3
					c-4.1-2.9-6.2-7-6.2-12.3c0-3.6,0.9-6.5,2.7-8.6c1.8-2.1,4.2-3.4,7-3.9v-1.8c-1.7-0.9-3.1-2.2-4.1-3.7c-1-1.5-1.5-3.3-1.5-5.4
					c0-2.8,0.8-5.1,2.4-7.1c1.6-2,4.2-3.2,7.9-3.6v-1.4c-3.5-1.7-6.2-4.3-8.1-7.8c-2-3.4-2.9-7.8-2.9-13c0-7.6,2.1-13.4,6.2-17.3
					s9.8-5.9,16.8-5.9c4.2,0,7.9,0.7,11.3,2.2v-2.3c0-2.5,0.6-4.3,1.7-5.5c1.1-1.1,2.9-1.7,5.5-1.7h9v8.7H66.9v3.7
					c2.3,2,4,4.5,5.3,7.4c1.3,3,1.9,6.5,1.9,10.7c0,7.7-2.1,13.4-6.2,17.3c-4.2,3.9-9.8,5.9-16.8,5.9c-2.1,0-4.2-0.2-6.4-0.7
					c-2.4,0.4-4.3,1.4-5.5,2.9c-1.3,1.5-1.9,3.1-1.9,4.6c0,1.7,0.6,3,1.8,3.9c1.2,0.9,3.2,1.3,6,1.3h14.7c7.5,0,13,1.5,16.2,4.5
					C79.3,5035.8,80.9,5040.2,80.9,5045.9z M71.7,5046.5c0-2.9-0.9-5.2-2.7-6.7c-1.8-1.5-4.9-2.3-9.4-2.3H39.2c-2,1-3.4,2.2-4.2,3.6
					c-0.8,1.5-1.2,3.3-1.2,5.6c0,3.4,1,6,3.1,8s5.4,2.9,10,2.9h8.6c5.4,0,9.4-0.9,12.2-2.7C70.3,5053.2,71.7,5050.4,71.7,5046.5z
					 M51,5008.1c4.1,0,7.2-1,9.5-3.1c2.3-2.1,3.4-5.3,3.4-9.7v-4.8c0-4.3-1.1-7.6-3.4-9.7c-2.3-2.1-5.4-3.1-9.5-3.1
					c-4.1,0-7.2,1-9.5,3.1c-2.3,2.1-3.4,5.3-3.4,9.7v4.8c0,4.4,1.1,7.6,3.4,9.7C43.8,5007.1,46.9,5008.1,51,5008.1z"/>
			</g>
		</g>
		<g>
			<g>
				<path fill="#FFA900" d="M-239.9,5516.4v69h-8.8v-69h-21.7v-7.8h52.1v7.8H-239.9z"/>
				<path fill="#FFA900" d="M-207.6,5504h8.4v33.9h1.1c1.1-3.5,2.8-6.2,5.1-7.9c2.3-1.8,5.4-2.6,9.4-2.6c5.1,0,9,1.7,11.9,5.2
					c2.9,3.4,4.3,8.8,4.3,16v37h-8.4V5549c0-4.5-0.9-8-2.8-10.5s-4.7-3.6-8.6-3.6c-3.4,0-6.2,1-8.6,3.1c-2.3,2.1-3.5,5-3.5,8.7v38.7
					h-8.4V5504z"/>
				<path fill="#FFA900" d="M-131.8,5586.7c-3.3,0-6.4-0.6-9.2-1.7c-2.9-1.1-5.3-2.9-7.4-5.3c-2.1-2.4-3.7-5.5-4.8-9.2
					c-1.2-3.7-1.8-8.2-1.8-13.5s0.6-9.8,1.8-13.5c1.2-3.7,2.8-6.8,4.8-9.2c2.1-2.4,4.5-4.2,7.4-5.3c2.9-1.1,5.9-1.7,9.2-1.7
					s6.3,0.5,9.1,1.7c2.8,1.1,5.1,2.9,7,5.3c1.9,2.4,3.4,5.5,4.5,9.2c1.1,3.7,1.6,8.2,1.6,13.5v2.1h-36.4v3.6
					c0,5.6,1.3,9.7,3.8,12.5s6,4.1,10.5,4.1c3.8,0,6.9-0.8,9.4-2.5c2.4-1.6,4.3-4.1,5.7-7.4l5.7,4.2c-1.8,3.9-4.3,7-7.8,9.5
					C-122.2,5585.5-126.5,5586.7-131.8,5586.7z M-131.8,5534.4c-4.5,0-8.1,1.4-10.6,4.3c-2.5,2.9-3.7,7.1-3.7,12.7v1.4h27.5v-1.4
					C-118.6,5540-123,5534.4-131.8,5534.4z"/>
				<path fill="#FFA900" d="M-471.7,5613.5h24.1c8.9,0,15.7,3.1,20.6,9.2c4.8,6.1,7.3,15.9,7.3,29.2c0,13.3-2.4,23.1-7.3,29.2
					s-11.7,9.2-20.6,9.2h-24.1V5613.5z M-447.7,5682.4c5.5,0,9.9-1.9,13.3-5.7c3.4-3.8,5.1-9.2,5.1-16.3v-17.1
					c0-7.1-1.7-12.5-5.1-16.3c-3.4-3.8-7.8-5.7-13.3-5.7h-15.3v61.2H-447.7z"/>
				<path fill="#FFA900" d="M-402.7,5619.7c-3.4,0-5.2-1.5-5.2-4.5v-1.8c0-3,1.7-4.5,5.2-4.5c3.4,0,5.2,1.5,5.2,4.5v1.8
					C-397.5,5618.2-399.2,5619.7-402.7,5619.7z M-406.8,5633.5h8.4v56.8h-8.4V5633.5z"/>
				<path fill="#FFA900" d="M-380.1,5640.9h-8.2v-7.4h8.2v-13.9c0-3.7,0.9-6.5,2.6-8.2c1.7-1.7,4.5-2.6,8.2-2.6h8.5v7.4h-10.9v17.3
					h10.9v7.4h-10.9v49.4h-8.4V5640.9z"/>
				<path fill="#FFA900" d="M-348.9,5640.9h-8.2v-7.4h8.2v-13.9c0-3.7,0.9-6.5,2.6-8.2c1.7-1.7,4.5-2.6,8.2-2.6h8.5v7.4h-10.9v17.3
					h10.9v7.4h-10.9v49.4h-8.4V5640.9z"/>
				<path fill="#FFA900" d="M-301.6,5691.6c-3.3,0-6.4-0.6-9.2-1.7s-5.3-2.9-7.4-5.3c-2.1-2.4-3.7-5.5-4.8-9.2
					c-1.2-3.7-1.8-8.2-1.8-13.5s0.6-9.8,1.8-13.5c1.2-3.7,2.8-6.8,4.8-9.2c2.1-2.4,4.5-4.2,7.4-5.3c2.9-1.1,5.9-1.7,9.2-1.7
					c3.3,0,6.3,0.5,9.1,1.7c2.8,1.1,5.1,2.9,7,5.3c1.9,2.4,3.4,5.5,4.5,9.2c1.1,3.7,1.6,8.2,1.6,13.5v2.1h-36.4v3.6
					c0,5.6,1.3,9.7,3.8,12.5c2.5,2.8,6,4.1,10.5,4.1c3.8,0,6.9-0.8,9.3-2.5c2.4-1.6,4.3-4.1,5.7-7.4l5.7,4.2c-1.8,3.9-4.3,7-7.8,9.5
					C-292,5690.4-296.3,5691.6-301.6,5691.6z M-301.6,5639.2c-4.5,0-8.1,1.4-10.6,4.3c-2.5,2.9-3.7,7.1-3.7,12.7v1.4h27.5v-1.4
					C-288.4,5644.9-292.8,5639.2-301.6,5639.2z"/>
				<path fill="#FFA900" d="M-267.6,5690.2v-56.8h8.4v10.6h1.1c1-3.3,2.6-5.9,4.9-7.8s5.3-2.8,9.1-2.8h3.1v8.5h-5.5
					c-4,0-7.1,0.9-9.3,2.6c-2.2,1.8-3.4,4.4-3.4,7.9v37.7H-267.6z"/>
				<path fill="#FFA900" d="M-213,5691.6c-3.3,0-6.4-0.6-9.2-1.7c-2.9-1.1-5.3-2.9-7.4-5.3c-2.1-2.4-3.7-5.5-4.8-9.2
					c-1.2-3.7-1.8-8.2-1.8-13.5s0.6-9.8,1.8-13.5c1.2-3.7,2.8-6.8,4.8-9.2c2.1-2.4,4.5-4.2,7.4-5.3c2.9-1.1,5.9-1.7,9.2-1.7
					s6.3,0.5,9.1,1.7c2.8,1.1,5.1,2.9,7,5.3c1.9,2.4,3.4,5.5,4.5,9.2c1.1,3.7,1.6,8.2,1.6,13.5v2.1h-36.4v3.6
					c0,5.6,1.3,9.7,3.8,12.5s6,4.1,10.5,4.1c3.8,0,6.9-0.8,9.4-2.5c2.4-1.6,4.3-4.1,5.7-7.4l5.7,4.2c-1.8,3.9-4.3,7-7.8,9.5
					C-203.4,5690.4-207.7,5691.6-213,5691.6z M-213,5639.2c-4.5,0-8.1,1.4-10.6,4.3c-2.5,2.9-3.7,7.1-3.7,12.7v1.4h27.5v-1.4
					C-199.8,5644.9-204.2,5639.2-213,5639.2z"/>
				<path fill="#FFA900" d="M-179,5690.2v-56.8h8.4v9.2h1.1c1.1-3.5,2.8-6.2,5.1-7.9c2.3-1.8,5.4-2.6,9.4-2.6c5.1,0,9,1.7,11.9,5.2
					c2.9,3.4,4.3,8.8,4.3,16v37h-8.4v-36.4c0-4.5-0.9-8-2.8-10.5s-4.7-3.6-8.6-3.6c-3.4,0-6.2,1-8.6,3.1c-2.3,2.1-3.5,5-3.5,8.7
					v38.7H-179z"/>
				<path fill="#FFA900" d="M-112.3,5690.2c-3,0-5.2-0.7-6.5-2c-1.4-1.4-2-3.5-2-6.5v-40.8h-8.4v-7.4h4.9c1.7,0,2.8-0.4,3.4-1.3
					c0.5-0.8,0.8-2.1,0.8-3.8v-10.6h7.6v15.6h11v7.4h-11v42h10.5v7.4H-112.3z"/>
				<path fill="#FFA900" d="M-85.6,5619.7c-3.4,0-5.2-1.5-5.2-4.5v-1.8c0-3,1.7-4.5,5.2-4.5c3.4,0,5.2,1.5,5.2,4.5v1.8
					C-80.5,5618.2-82.2,5619.7-85.6,5619.7z M-89.8,5633.5h8.4v56.8h-8.4V5633.5z"/>
				<path fill="#FFA900" d="M-30,5690.2c-5.4,0-8.1-2.7-8.1-8.2v-1.1h-1.1c-1,3.5-2.7,6.1-5.2,7.9c-2.5,1.8-5.6,2.7-9.1,2.7
					c-5.5,0-9.6-1.4-12.3-4.2c-2.7-2.8-4.1-6.9-4.1-12.3c0-5.3,1.7-9.5,5.2-12.5c3.5-3.1,8.9-4.6,16.3-4.6h10.2v-6.3
					c0-4.2-0.9-7.3-2.8-9.2c-1.9-2-4.8-3-8.9-3c-3.3,0-6,0.7-8,2.1c-2,1.4-3.8,3.5-5.2,6.2l-5-4.6c1.5-3.1,3.8-5.7,7-7.8
					c3.2-2.1,7-3.1,11.4-3.1c6.5,0,11.3,1.6,14.7,4.7c3.3,3.1,5,7.7,5,13.8v32.1h5.7v7.4H-30z M-51.4,5684.2c1.9,0,3.7-0.3,5.3-1
					c1.6-0.7,3.1-1.5,4.2-2.6c1.2-1.1,2.1-2.3,2.8-3.6c0.7-1.3,1-2.8,1-4.2v-8.5h-10.5c-4.4,0-7.6,0.7-9.6,2.2c-2,1.5-3,3.6-3,6.3
					v3.1c0,2.8,0.9,4.9,2.6,6.3C-56.8,5683.5-54.4,5684.2-51.4,5684.2z"/>
				<path fill="#FFA900" d="M-2.5,5690.2c-3,0-5.2-0.7-6.5-2c-1.4-1.4-2-3.5-2-6.5v-40.8h-8.4v-7.4h4.9c1.7,0,2.8-0.4,3.4-1.3
					c0.5-0.8,0.8-2.1,0.8-3.8v-10.6h7.6v15.6h11v7.4h-11v42H7.7v7.4H-2.5z"/>
				<path fill="#FFA900" d="M38.9,5691.6c-3.3,0-6.4-0.6-9.2-1.7c-2.9-1.1-5.3-2.9-7.4-5.3c-2.1-2.4-3.7-5.5-4.8-9.2
					c-1.2-3.7-1.8-8.2-1.8-13.5s0.6-9.8,1.8-13.5c1.2-3.7,2.8-6.8,4.8-9.2c2.1-2.4,4.5-4.2,7.4-5.3c2.9-1.1,5.9-1.7,9.2-1.7
					s6.4,0.5,9.2,1.7c2.9,1.1,5.3,2.9,7.4,5.3c2.1,2.4,3.7,5.5,4.8,9.2c1.2,3.7,1.8,8.2,1.8,13.5s-0.6,9.8-1.8,13.5
					c-1.2,3.7-2.8,6.8-4.8,9.2c-2.1,2.4-4.5,4.2-7.4,5.3S42.2,5691.6,38.9,5691.6z M38.9,5684.2c4.5,0,8-1.4,10.5-4.1
					c2.5-2.7,3.7-6.9,3.7-12.5v-11.5c0-5.6-1.2-9.8-3.7-12.5c-2.5-2.7-6-4.1-10.5-4.1c-4.5,0-8,1.4-10.5,4.1
					c-2.5,2.7-3.7,6.9-3.7,12.5v11.5c0,5.6,1.2,9.8,3.7,12.5C30.8,5682.8,34.3,5684.2,38.9,5684.2z"/>
				<path fill="#FFA900" d="M73.9,5690.2v-56.8h8.4v10.6h1.1c1-3.3,2.6-5.9,4.9-7.8c2.3-1.9,5.3-2.8,9.1-2.8h3.1v8.5h-5.5
					c-4,0-7.1,0.9-9.3,2.6c-2.2,1.8-3.4,4.4-3.4,7.9v37.7H73.9z"/>
			</g>
		</g>
		<g>
			<g>
				<path fill="#FFA900" d="M-332.2,8302.6v75.2h-9.6v-75.2h-23.6v-8.5h56.9v8.5H-332.2z"/>
				<path fill="#FFA900" d="M-296.9,8289.1h9.1v37h1.2c1.2-3.8,3.1-6.7,5.6-8.6c2.5-1.9,5.9-2.9,10.3-2.9c5.5,0,9.9,1.9,13,5.6
					c3.2,3.8,4.7,9.6,4.7,17.4v40.3h-9.1v-39.7c0-5-1-8.8-3.1-11.4s-5.2-4-9.4-4c-3.7,0-6.8,1.1-9.4,3.4c-2.6,2.2-3.8,5.4-3.8,9.5
					v42.2h-9.1V8289.1z"/>
				<path fill="#FFA900" d="M-214.2,8379.3c-3.6,0-7-0.6-10.1-1.8c-3.1-1.2-5.8-3.1-8-5.8c-2.2-2.6-4-6-5.3-10.1
					c-1.3-4.1-1.9-9-1.9-14.8s0.6-10.7,1.9-14.8c1.3-4.1,3-7.4,5.3-10.1c2.2-2.6,4.9-4.6,8-5.8c3.1-1.2,6.5-1.8,10.1-1.8
					c3.6,0,6.9,0.6,9.9,1.8c3,1.2,5.5,3.1,7.6,5.8c2.1,2.6,3.7,6,4.9,10.1c1.2,4.1,1.7,9,1.7,14.8v2.3h-39.7v4
					c0,6.1,1.4,10.6,4.1,13.6c2.8,3,6.6,4.5,11.5,4.5c4.2,0,7.6-0.9,10.2-2.7c2.6-1.8,4.7-4.5,6.2-8.1l6.2,4.6
					c-1.9,4.2-4.7,7.7-8.5,10.3C-203.7,8378-208.4,8379.3-214.2,8379.3z M-214.2,8322.2c-5,0-8.8,1.6-11.5,4.7
					c-2.7,3.1-4.1,7.7-4.1,13.8v1.6h30v-1.6C-199.8,8328.3-204.6,8322.2-214.2,8322.2z"/>
				<path fill="#FFA900" d="M-149.6,8377.9v-83.8h46.3v8.5H-140v28.6h34.4v8.5H-140v29.6h36.7v8.5H-149.6z"/>
				<path fill="#FFA900" d="M-48.2,8377.9c-5.9,0-8.9-3-8.9-9v-1.2h-1.2c-1,3.8-2.9,6.7-5.7,8.7c-2.8,2-6.1,3-9.9,3
					c-6,0-10.5-1.5-13.4-4.6c-3-3-4.4-7.5-4.4-13.4c0-5.8,1.9-10.3,5.7-13.7c3.8-3.4,9.7-5,17.8-5h11.2v-6.8c0-4.6-1-7.9-3.1-10.1
					s-5.3-3.2-9.7-3.2c-3.6,0-6.5,0.8-8.7,2.3c-2.2,1.6-4.1,3.8-5.7,6.8l-5.4-5c1.6-3.4,4.2-6.2,7.7-8.5c3.5-2.3,7.7-3.4,12.5-3.4
					c7,0,12.4,1.7,16,5.1c3.6,3.4,5.5,8.4,5.5,15.1v35h6.2v8H-48.2z M-71.6,8371.3c2.1,0,4-0.4,5.8-1.1c1.8-0.7,3.3-1.6,4.6-2.8
					c1.3-1.2,2.3-2.5,3-3.9c0.7-1.5,1.1-3,1.1-4.6v-9.3h-11.4c-4.8,0-8.3,0.8-10.5,2.4c-2.2,1.6-3.3,3.9-3.3,6.9v3.3
					c0,3.1,1,5.4,2.9,6.9S-74.9,8371.3-71.6,8371.3z"/>
				<path fill="#FFA900" d="M-29.4,8377.9v-61.9h9.1v11.5h1.2c1-3.6,2.8-6.4,5.3-8.5c2.5-2,5.8-3.1,9.9-3.1h3.4v9.2h-6
					c-4.3,0-7.7,1-10.1,2.9c-2.4,1.9-3.7,4.8-3.7,8.6v41.2H-29.4z"/>
				<path fill="#FFA900" d="M24.4,8377.9c-3.3,0-5.7-0.7-7.1-2.2c-1.5-1.5-2.2-3.9-2.2-7.1V8324H5.9v-8h5.4c1.8,0,3.1-0.5,3.7-1.4
					c0.6-0.9,0.9-2.3,0.9-4.1v-11.5h8.3v17h12v8h-12v45.8h11.4v8H24.4z"/>
				<path fill="#FFA900" d="M50,8289.1h9.1v37h1.2c1.2-3.8,3.1-6.7,5.6-8.6c2.5-1.9,5.9-2.9,10.3-2.9c5.5,0,9.9,1.9,13,5.6
					c3.2,3.8,4.7,9.6,4.7,17.4v40.3h-9.1v-39.7c0-5-1-8.8-3.1-11.4s-5.2-4-9.4-4c-3.7,0-6.8,1.1-9.4,3.4c-2.6,2.2-3.8,5.4-3.8,9.5
					v42.2H50V8289.1z"/>
				<path fill="#FFA900" d="M-242.5,8484.1c-3.6,0-7-0.6-10.1-1.8c-3.1-1.2-5.8-3.1-8-5.8c-2.2-2.6-4-6-5.3-10.1
					c-1.3-4.1-1.9-9-1.9-14.8s0.6-10.7,1.9-14.8c1.3-4.1,3-7.4,5.3-10.1c2.2-2.6,4.9-4.6,8-5.8c3.1-1.2,6.5-1.8,10.1-1.8
					s7,0.6,10.1,1.8c3.1,1.2,5.8,3.1,8,5.8c2.2,2.6,4,6,5.3,10.1c1.3,4.1,1.9,9,1.9,14.8s-0.6,10.7-1.9,14.8
					c-1.3,4.1-3,7.4-5.3,10.1c-2.2,2.6-4.9,4.6-8,5.8C-235.5,8483.5-238.9,8484.1-242.5,8484.1z M-242.5,8476.1
					c5,0,8.8-1.5,11.5-4.5c2.7-3,4-7.5,4-13.6v-12.5c0-6.1-1.3-10.7-4-13.6c-2.7-3-6.5-4.5-11.5-4.5c-5,0-8.8,1.5-11.5,4.5
					c-2.7,3-4,7.5-4,13.6v12.5c0,6.1,1.3,10.7,4,13.6C-251.2,8474.6-247.4,8476.1-242.5,8476.1z"/>
				<path fill="#FFA900" d="M-200.5,8428.8h-9v-8h9v-15.1c0-4.1,0.9-7.1,2.8-8.9c1.9-1.9,4.9-2.8,8.9-2.8h9.2v8h-11.9v18.8h11.9v8
					h-11.9v53.9h-9.1V8428.8z"/>
				<path fill="#FFA900" d="M-130.3,8482.7c-3.3,0-5.7-0.7-7.1-2.2c-1.5-1.5-2.2-3.9-2.2-7.1v-44.5h-9.1v-8h5.4
					c1.8,0,3.1-0.5,3.7-1.4c0.6-0.9,0.9-2.3,0.9-4.1v-11.5h8.3v17h12v8h-12v45.8h11.4v8H-130.3z"/>
				<path fill="#FFA900" d="M-104.6,8393.9h9.1v37h1.2c1.2-3.8,3.1-6.7,5.6-8.6c2.5-1.9,5.9-2.9,10.3-2.9c5.5,0,9.9,1.9,13,5.6
					c3.2,3.8,4.7,9.6,4.7,17.4v40.3h-9.1V8443c0-5-1-8.8-3.1-11.4s-5.2-4-9.4-4c-3.7,0-6.8,1.1-9.4,3.4c-2.6,2.2-3.8,5.4-3.8,9.5
					v42.2h-9.1V8393.9z"/>
				<path fill="#FFA900" d="M-21.9,8484.1c-3.6,0-7-0.6-10.1-1.8c-3.1-1.2-5.8-3.1-8-5.8c-2.2-2.6-4-6-5.3-10.1
					c-1.3-4.1-1.9-9-1.9-14.8s0.6-10.7,1.9-14.8c1.3-4.1,3-7.4,5.3-10.1c2.2-2.6,4.9-4.6,8-5.8c3.1-1.2,6.5-1.8,10.1-1.8
					c3.6,0,6.9,0.6,9.9,1.8c3,1.2,5.5,3.1,7.6,5.8c2.1,2.6,3.7,6,4.9,10.1c1.2,4.1,1.7,9,1.7,14.8v2.3h-39.7v4
					c0,6.1,1.4,10.6,4.1,13.6c2.8,3,6.6,4.5,11.5,4.5c4.2,0,7.6-0.9,10.2-2.7c2.6-1.8,4.7-4.5,6.2-8.1l6.2,4.6
					c-1.9,4.2-4.7,7.7-8.5,10.3C-11.4,8482.8-16.1,8484.1-21.9,8484.1z M-21.9,8427c-5,0-8.8,1.6-11.5,4.7
					c-2.7,3.1-4.1,7.7-4.1,13.8v1.6h30v-1.6C-7.5,8433.2-12.3,8427-21.9,8427z"/>
				<path fill="#FFA900" d="M-293.9,8530.1l0.8-14.4h-1.2l-6.2,14.4l-18,37l-18-37l-6.2-14.2h-1.2l0.8,14.2v57.5h-9.4v-83.8h12.7
					l15.1,32.5l5.6,15.5h1l5.6-15.5l15.1-32.5h12.7v83.8h-9.4V8530.1z"/>
				<path fill="#FFA900" d="M-231.4,8577.5h-1.2c-1.2,3.8-3.1,6.7-5.6,8.6c-2.5,1.9-5.9,2.9-10.3,2.9c-5.5,0-9.9-1.9-13-5.6
					c-3.2-3.8-4.7-9.6-4.7-17.4v-40.3h9.1v39.7c0,5,1,8.8,3.1,11.4c2,2.6,5.2,4,9.4,4c3.7,0,6.8-1.1,9.4-3.4
					c2.6-2.2,3.8-5.4,3.8-9.5v-42.2h9.1v61.9h-9.1V8577.5z"/>
				<path fill="#FFA900" d="M-186.9,8589c-5.1,0-9.5-1-13.1-3.1c-3.6-2.1-6.7-5-9.3-8.6l6.4-5.3c2.2,3,4.5,5.4,7,7
					c2.5,1.6,5.5,2.4,9.1,2.4c3.6,0,6.5-0.9,8.6-2.7c2.1-1.8,3.2-4.4,3.2-7.7c0-2.7-0.7-4.9-2-6.6c-1.4-1.7-3.9-2.8-7.6-3.5
					l-4.7-0.8c-6-1.1-10.5-3-13.4-5.6c-2.9-2.6-4.4-6.6-4.4-12c0-3.1,0.5-5.8,1.4-8.1s2.3-4.2,4.1-5.6c1.8-1.5,3.9-2.6,6.3-3.2
					c2.4-0.7,5.1-1,8-1c4.6,0,8.5,0.8,11.7,2.5c3.2,1.6,5.9,4,8.2,7.1l-5.9,5.4c-1.4-1.9-3.2-3.6-5.4-5.1c-2.2-1.5-5.1-2.2-8.6-2.2
					c-7.3,0-10.9,3.3-10.9,10c0,3,0.8,5.3,2.3,6.7c1.6,1.4,4.1,2.4,7.6,3.1l4.7,0.8c6.3,1.1,10.8,3.1,13.4,5.9c2.6,2.8,4,6.6,4,11.4
					c0,6-1.7,10.7-5.2,14.1C-175,8587.3-180.1,8589-186.9,8589z"/>
				<path fill="#FFA900" d="M-139.1,8587.5c-3.3,0-5.7-0.7-7.1-2.2c-1.5-1.5-2.2-3.9-2.2-7.1v-44.5h-9.1v-8h5.4
					c1.8,0,3.1-0.5,3.7-1.4c0.6-0.9,0.9-2.3,0.9-4.1v-11.5h8.3v17h12v8h-12v45.8h11.4v8H-139.1z"/>
				<path fill="#FFA900" d="M-92.8,8589c-3.6,0-7-0.6-10.1-1.8c-3.1-1.2-5.8-3.1-8-5.8c-2.2-2.6-4-6-5.3-10.1
					c-1.3-4.1-1.9-9-1.9-14.8s0.6-10.7,1.9-14.8c1.3-4.1,3-7.4,5.3-10.1c2.2-2.6,4.9-4.6,8-5.8c3.1-1.2,6.5-1.8,10.1-1.8
					c3.6,0,6.9,0.6,9.9,1.8c3,1.2,5.5,3.1,7.6,5.8c2.1,2.6,3.7,6,4.9,10.1c1.2,4.1,1.7,9,1.7,14.8v2.3h-39.7v4
					c0,6.1,1.4,10.6,4.1,13.6c2.8,3,6.6,4.5,11.5,4.5c4.2,0,7.6-0.9,10.2-2.7c2.6-1.8,4.7-4.5,6.2-8.1l6.2,4.6
					c-1.9,4.2-4.7,7.7-8.5,10.3C-82.3,8587.7-87.1,8589-92.8,8589z M-92.8,8531.9c-5,0-8.8,1.6-11.5,4.7c-2.7,3.1-4.1,7.7-4.1,13.8
					v1.6h30v-1.6C-78.4,8538-83.2,8531.9-92.8,8531.9z"/>
				<path fill="#FFA900" d="M-54.5,8587.5v-61.9h9.1v11.5h1.2c1-3.6,2.8-6.4,5.3-8.5c2.5-2,5.8-3.1,9.9-3.1h3.4v9.2h-6
					c-4.3,0-7.7,1-10.1,2.9c-2.4,1.9-3.7,4.8-3.7,8.6v41.2H-54.5z"/>
				<path fill="#FFA900" d="M-10.1,8510.6c-3.8,0-5.6-1.6-5.6-4.9v-1.9c0-3.3,1.9-4.9,5.6-4.9c3.8,0,5.6,1.6,5.6,4.9v1.9
					C-4.5,8509-6.4,8510.6-10.1,8510.6z M-14.7,8525.6h9.1v61.9h-9.1V8525.6z"/>
				<path fill="#FFA900" d="M12.7,8587.5v-61.9h9.1v10.1H23c1.2-3.8,3.1-6.7,5.6-8.6c2.5-1.9,5.9-2.9,10.3-2.9c5.5,0,9.9,1.9,13,5.6
					c3.2,3.8,4.7,9.6,4.7,17.4v40.3h-9.1v-39.7c0-5-1-8.8-3.1-11.4s-5.2-4-9.4-4c-3.7,0-6.8,1.1-9.4,3.4c-2.6,2.2-3.8,5.4-3.8,9.5
					v42.2H12.7z"/>
				<path fill="#FFA900" d="M121.5,8594.6c0,6.5-2.2,11.2-6.7,14.1c-4.4,2.9-11.3,4.3-20.6,4.3c-8.9,0-15.2-1.3-19-4
					c-3.8-2.6-5.7-6.4-5.7-11.4c0-3.4,0.8-6,2.5-7.9c1.7-1.9,3.8-3.1,6.5-3.6v-1.7c-1.6-0.9-2.9-2-3.8-3.4c-0.9-1.4-1.4-3-1.4-5
					c0-2.5,0.7-4.7,2.2-6.6c1.5-1.8,3.9-2.9,7.3-3.3v-1.3c-3.2-1.6-5.7-4-7.5-7.2s-2.7-7.2-2.7-12c0-7.1,1.9-12.4,5.8-16
					s9-5.4,15.5-5.4c3.8,0,7.3,0.7,10.4,2v-2.2c0-2.3,0.5-4,1.6-5c1-1,2.7-1.6,5-1.6h8.3v8h-10.7v3.4c2.1,1.8,3.7,4.1,4.9,6.9
					c1.2,2.7,1.7,6,1.7,9.9c0,7.1-1.9,12.4-5.8,16c-3.8,3.6-9,5.4-15.5,5.4c-1.9,0-3.9-0.2-5.9-0.6c-2.2,0.4-3.9,1.3-5.1,2.7
					c-1.2,1.4-1.7,2.8-1.7,4.3c0,1.6,0.6,2.8,1.7,3.6c1.1,0.8,3,1.2,5.5,1.2h13.6c7,0,12,1.4,15,4.2
					C120,8585.3,121.5,8589.3,121.5,8594.6z M113,8595.1c0-2.7-0.8-4.8-2.5-6.2c-1.7-1.4-4.6-2.1-8.6-2.1H83c-1.8,0.9-3.1,2-3.9,3.4
					c-0.8,1.4-1.1,3.1-1.1,5.2c0,3.1,1,5.6,2.9,7.4c1.9,1.8,5,2.7,9.2,2.7H98c5,0,8.7-0.8,11.2-2.5
					C111.7,8601.3,113,8598.7,113,8595.1z M93.9,8559.7c3.8,0,6.7-1,8.8-2.9c2.1-1.9,3.1-4.9,3.1-8.9v-4.5c0-4-1-7-3.1-8.9
					c-2.1-1.9-5-2.9-8.8-2.9c-3.8,0-6.7,1-8.8,2.9c-2.1,1.9-3.1,4.9-3.1,8.9v4.5c0,4,1,7,3.1,8.9
					C87.2,8558.7,90.1,8559.7,93.9,8559.7z"/>
			</g>
		</g>
		<g>
			<g>
				<path fill="#FFA900" d="M-1135.6,8749.3v81.5h-10.4v-81.5h-25.6v-9.2h61.6v9.2H-1135.6z"/>
				<path fill="#FFA900" d="M-1097.4,8734.6h9.9v40h1.3c1.3-4.2,3.3-7.3,6-9.4c2.7-2.1,6.4-3.1,11.1-3.1c6,0,10.7,2,14.1,6.1
					c3.4,4.1,5.1,10.4,5.1,18.9v43.7h-9.9v-43c0-5.4-1.1-9.5-3.3-12.3s-5.6-4.3-10.2-4.3c-4,0-7.4,1.2-10.1,3.6
					c-2.8,2.4-4.2,5.9-4.2,10.3v45.8h-9.9V8734.6z"/>
				<path fill="#FFA900" d="M-1007.8,8832.3c-3.9,0-7.5-0.6-10.9-1.9c-3.4-1.3-6.3-3.4-8.7-6.2c-2.4-2.9-4.3-6.5-5.7-10.9
					c-1.4-4.4-2.1-9.8-2.1-16s0.7-11.6,2.1-16c1.4-4.4,3.3-8.1,5.7-10.9c2.4-2.9,5.3-4.9,8.7-6.2c3.4-1.3,7-1.9,10.9-1.9
					c3.9,0,7.5,0.6,10.7,1.9c3.2,1.3,6,3.4,8.3,6.2c2.3,2.9,4,6.5,5.3,10.9c1.3,4.4,1.9,9.8,1.9,16v2.5h-43v4.3
					c0,6.6,1.5,11.5,4.5,14.8c3,3.2,7.1,4.9,12.4,4.9c4.5,0,8.2-1,11.1-2.9s5.1-4.9,6.8-8.8l6.8,4.9c-2.1,4.6-5.1,8.3-9.2,11.2
					C-996.5,8830.9-1001.6,8832.3-1007.8,8832.3z M-1007.8,8770.5c-5.4,0-9.5,1.7-12.5,5.1c-2.9,3.4-4.4,8.4-4.4,15v1.7h32.5v-1.7
					C-992.2,8777.1-997.4,8770.5-1007.8,8770.5z"/>
				<path fill="#FFA900" d="M-885.1,8818.2h-1.3c-1,4.1-3.3,7.5-7,10.1c-3.7,2.7-8.9,4-15.5,4c-4.9,0-9.4-0.9-13.5-2.8
					c-4.1-1.9-7.5-4.7-10.4-8.5c-2.9-3.8-5.1-8.7-6.7-14.6c-1.6-5.9-2.4-12.9-2.4-21c0-16.2,3-28.1,9.1-35.6
					c6.1-7.5,14.6-11.3,25.6-11.3c8,0,14.3,1.7,19.1,5.1c4.8,3.4,8.5,8.1,11.2,14.1l-8.6,5.2c-1.7-4.8-4.4-8.5-7.9-11.2
					c-3.6-2.7-8.1-4-13.8-4c-7.5,0-13.3,2.5-17.4,7.5c-4.1,5-6.1,11.7-6.1,20.1v20.3c0,8.4,2,15.1,6.1,20.1c4.1,5,9.9,7.5,17.4,7.5
					c2.9,0,5.7-0.4,8.4-1.3c2.6-0.9,4.9-2.1,6.9-3.8c1.9-1.7,3.5-3.8,4.6-6.2c1.1-2.5,1.7-5.3,1.7-8.4v-9.9h-17.9v-9.2h28.1v46.5
					h-9.6V8818.2z"/>
				<path fill="#FFA900" d="M-814.9,8830.8c-6.4,0-9.6-3.2-9.6-9.7v-1.3h-1.3c-1.1,4.1-3.2,7.2-6.2,9.4c-3,2.1-6.6,3.2-10.7,3.2
					c-6.5,0-11.4-1.6-14.6-4.9c-3.2-3.3-4.8-8.1-4.8-14.6c0-6.2,2.1-11.2,6.2-14.8c4.1-3.6,10.6-5.5,19.3-5.5h12.1v-7.4
					c0-4.9-1.1-8.6-3.3-10.9s-5.7-3.5-10.5-3.5c-3.9,0-7,0.8-9.4,2.5c-2.4,1.7-4.4,4.1-6.2,7.3l-5.8-5.5c1.7-3.6,4.5-6.7,8.3-9.2
					c3.8-2.5,8.3-3.7,13.5-3.7c7.6,0,13.4,1.8,17.4,5.5c3.9,3.7,5.9,9.1,5.9,16.3v38h6.8v8.7H-814.9z M-840.3,8823.6
					c2.3,0,4.4-0.4,6.3-1.2c2-0.8,3.6-1.8,5-3c1.4-1.2,2.5-2.7,3.2-4.3c0.8-1.6,1.2-3.3,1.2-5v-10.1h-12.4c-5.2,0-9,0.9-11.4,2.6
					c-2.4,1.7-3.6,4.2-3.6,7.5v3.6c0,3.4,1,5.8,3.1,7.4S-843.8,8823.6-840.3,8823.6z"/>
				<path fill="#FFA900" d="M-794.5,8830.8v-67.1h9.9v12.5h1.3c1.1-3.9,3.1-7,5.8-9.2s6.3-3.3,10.7-3.3h3.6v10h-6.5
					c-4.7,0-8.3,1-11,3.1c-2.6,2.1-4,5.2-4,9.4v44.6H-794.5z"/>
				<path fill="#FFA900" d="M-713.1,8820h-1.3c-1.3,4.4-3.4,7.5-6.3,9.5c-2.9,1.9-6.4,2.9-10.6,2.9c-4,0-7.5-0.8-10.5-2.5
					c-3-1.6-5.6-4-7.7-7c-2.1-3-3.6-6.7-4.7-11.1c-1-4.3-1.6-9.2-1.6-14.6c0-5.4,0.5-10.2,1.6-14.6c1-4.3,2.6-8,4.7-11.1
					c2.1-3,4.6-5.4,7.7-7c3-1.6,6.5-2.5,10.5-2.5c4.2,0,7.7,1,10.6,2.9c2.9,1.9,5,5.1,6.3,9.5h1.3v-39.9h9.9v96.2h-9.9V8820z
					 M-728.3,8823.6c2.1,0,4.1-0.3,5.9-0.9c1.9-0.6,3.5-1.5,4.8-2.6c1.3-1.1,2.4-2.5,3.2-4.1c0.8-1.6,1.2-3.3,1.2-5.2v-27.2
					c0-1.9-0.4-3.7-1.2-5.2c-0.8-1.6-1.9-2.9-3.2-4c-1.3-1.1-2.9-2-4.8-2.6c-1.9-0.6-3.8-0.9-5.9-0.9c-5.5,0-9.6,1.7-12.5,5.2
					c-2.9,3.4-4.3,8.3-4.3,14.4v13.6c0,6.2,1.4,11,4.3,14.4C-738,8821.9-733.8,8823.6-728.3,8823.6z"/>
				<path fill="#FFA900" d="M-660.6,8832.3c-3.9,0-7.5-0.6-10.9-1.9c-3.4-1.3-6.3-3.4-8.7-6.2c-2.4-2.9-4.3-6.5-5.7-10.9
					c-1.4-4.4-2.1-9.8-2.1-16s0.7-11.6,2.1-16c1.4-4.4,3.3-8.1,5.7-10.9c2.4-2.9,5.3-4.9,8.7-6.2c3.4-1.3,7-1.9,10.9-1.9
					c3.9,0,7.5,0.6,10.7,1.9c3.2,1.3,6,3.4,8.3,6.2c2.3,2.9,4,6.5,5.3,10.9c1.3,4.4,1.9,9.8,1.9,16v2.5h-43v4.3
					c0,6.6,1.5,11.5,4.5,14.8c3,3.2,7.1,4.9,12.4,4.9c4.5,0,8.2-1,11.1-2.9s5.1-4.9,6.8-8.8l6.8,4.9c-2.1,4.6-5.1,8.3-9.2,11.2
					C-649.2,8830.9-654.4,8832.3-660.6,8832.3z M-660.6,8770.5c-5.4,0-9.5,1.7-12.5,5.1c-2.9,3.4-4.4,8.4-4.4,15v1.7h32.5v-1.7
					C-645,8777.1-650.2,8770.5-660.6,8770.5z"/>
				<path fill="#FFA900" d="M-619.1,8830.8v-67.1h9.9v10.9h1.3c1.3-4.2,3.3-7.3,6-9.4c2.7-2.1,6.4-3.1,11.1-3.1c6,0,10.7,2,14.1,6.1
					c3.4,4.1,5.1,10.4,5.1,18.9v43.7h-9.9v-43c0-5.4-1.1-9.5-3.3-12.3s-5.6-4.3-10.2-4.3c-4,0-7.4,1.2-10.1,3.6
					c-2.8,2.4-4.2,5.9-4.2,10.3v45.8H-619.1z"/>
			</g>
		</g>
		<g>
			<g>
				<path fill="#FFA900" d="M551,8607.6v81.5h-10.4v-81.5H515v-9.2h61.6v9.2H551z"/>
				<path fill="#FFA900" d="M589.2,8592.9h9.9v40h1.3c1.3-4.2,3.3-7.3,6-9.4c2.7-2.1,6.4-3.1,11.1-3.1c6,0,10.7,2,14.1,6.1
					c3.4,4.1,5.1,10.4,5.1,18.9v43.7h-9.9v-43c0-5.4-1.1-9.5-3.3-12.3s-5.6-4.3-10.2-4.3c-4,0-7.4,1.2-10.1,3.6
					c-2.8,2.4-4.2,5.9-4.2,10.3v45.8h-9.9V8592.9z"/>
				<path fill="#FFA900" d="M678.8,8690.7c-3.9,0-7.5-0.6-10.9-1.9c-3.4-1.3-6.3-3.4-8.7-6.2c-2.4-2.9-4.3-6.5-5.7-10.9
					c-1.4-4.4-2.1-9.8-2.1-16s0.7-11.6,2.1-16c1.4-4.4,3.3-8.1,5.7-10.9c2.4-2.9,5.3-4.9,8.7-6.2c3.4-1.3,7-1.9,10.9-1.9
					c3.9,0,7.5,0.6,10.7,1.9c3.2,1.3,6,3.4,8.3,6.2c2.3,2.9,4,6.5,5.3,10.9c1.3,4.4,1.9,9.8,1.9,16v2.5h-43v4.3
					c0,6.6,1.5,11.5,4.5,14.8c3,3.2,7.1,4.9,12.4,4.9c4.5,0,8.2-1,11-2.9c2.9-2,5.1-4.9,6.8-8.8l6.8,4.9c-2.1,4.6-5.1,8.3-9.2,11.2
					C690.1,8689.3,685,8690.7,678.8,8690.7z M678.8,8628.8c-5.4,0-9.5,1.7-12.5,5.1c-2.9,3.4-4.4,8.4-4.4,15v1.7h32.5v-1.7
					C694.4,8635.5,689.2,8628.8,678.8,8628.8z"/>
				<path fill="#FFA900" d="M748.7,8689.1v-90.7h49v9.2h-38.6v30.9h35.1v9.2h-35.1v41.3H748.7z"/>
				<path fill="#FFA900" d="M818.4,8605.8c-4.1,0-6.1-1.8-6.1-5.3v-2.1c0-3.6,2-5.3,6.1-5.3c4.1,0,6.1,1.8,6.1,5.3v2.1
					C824.5,8604,822.5,8605.8,818.4,8605.8z M813.4,8622.1h9.9v67.1h-9.9V8622.1z"/>
				<path fill="#FFA900" d="M843.1,8689.1v-67.1h9.9v12.5h1.3c1.1-3.9,3.1-7,5.8-9.2c2.7-2.2,6.3-3.3,10.7-3.3h3.6v10h-6.5
					c-4.7,0-8.3,1-11,3.1c-2.6,2.1-4,5.2-4,9.4v44.6H843.1z"/>
				<path fill="#FFA900" d="M908.9,8690.7c-3.9,0-7.5-0.6-10.9-1.9c-3.4-1.3-6.3-3.4-8.7-6.2c-2.4-2.9-4.3-6.5-5.7-10.9
					c-1.4-4.4-2.1-9.8-2.1-16s0.7-11.6,2.1-16c1.4-4.4,3.3-8.1,5.7-10.9c2.4-2.9,5.3-4.9,8.7-6.2c3.4-1.3,7-1.9,10.9-1.9
					c3.9,0,7.5,0.6,10.7,1.9c3.2,1.3,6,3.4,8.3,6.2c2.3,2.9,4,6.5,5.3,10.9c1.3,4.4,1.9,9.8,1.9,16v2.5h-43v4.3
					c0,6.6,1.5,11.5,4.5,14.8c3,3.2,7.1,4.9,12.4,4.9c4.5,0,8.2-1,11-2.9c2.9-2,5.1-4.9,6.8-8.8l6.8,4.9c-2.1,4.6-5.1,8.3-9.2,11.2
					C920.2,8689.3,915.1,8690.7,908.9,8690.7z M908.9,8628.8c-5.4,0-9.5,1.7-12.5,5.1c-2.9,3.4-4.4,8.4-4.4,15v1.7h32.5v-1.7
					C924.5,8635.5,919.3,8628.8,908.9,8628.8z"/>
			</g>
		</g>
		<g>
			<g>
				<path fill="#FFA900" d="M438.3,4442.2v81.5h-10.4v-81.5h-25.6v-9.2h61.6v9.2H438.3z"/>
				<path fill="#FFA900" d="M476.5,4427.5h9.9v40h1.3c1.3-4.2,3.3-7.3,6-9.4c2.7-2.1,6.4-3.1,11.1-3.1c6,0,10.7,2,14.1,6.1
					c3.4,4.1,5.1,10.4,5.1,18.9v43.7h-9.9v-43c0-5.4-1.1-9.5-3.3-12.3c-2.2-2.9-5.6-4.3-10.2-4.3c-4,0-7.4,1.2-10.1,3.6
					c-2.8,2.4-4.2,5.9-4.2,10.3v45.8h-9.9V4427.5z"/>
				<path fill="#FFA900" d="M566.1,4525.2c-3.9,0-7.5-0.6-10.9-1.9c-3.4-1.3-6.3-3.4-8.7-6.2c-2.4-2.9-4.3-6.5-5.7-10.9
					c-1.4-4.4-2.1-9.8-2.1-16s0.7-11.6,2.1-16c1.4-4.4,3.3-8.1,5.7-10.9c2.4-2.9,5.3-4.9,8.7-6.2c3.4-1.3,7-1.9,10.9-1.9
					c3.9,0,7.5,0.6,10.7,1.9c3.2,1.3,6,3.4,8.3,6.2c2.3,2.9,4,6.5,5.3,10.9c1.3,4.4,1.9,9.8,1.9,16v2.5h-43v4.3
					c0,6.6,1.5,11.5,4.5,14.8c3,3.2,7.1,4.9,12.4,4.9c4.5,0,8.2-1,11-2.9c2.9-2,5.1-4.9,6.8-8.8l6.8,4.9c-2.1,4.6-5.1,8.3-9.2,11.2
					C577.5,4523.8,572.4,4525.2,566.1,4525.2z M566.1,4463.3c-5.4,0-9.5,1.7-12.5,5.1c-2.9,3.4-4.4,8.4-4.4,15v1.7h32.5v-1.7
					C581.7,4470,576.5,4463.3,566.1,4463.3z"/>
				<path fill="#FFA900" d="M288,4639v-90.7h33.4c15,0,22.5,8.6,22.5,25.9c0,17.2-7.5,25.9-22.5,25.9h-23v39H288z M298.4,4590.8
					h22.8c7.7,0,11.6-4.1,11.6-12.4v-8.5c0-8.3-3.9-12.4-11.6-12.4h-22.8V4590.8z"/>
				<path fill="#FFA900" d="M379.3,4640.5c-3.9,0-7.5-0.6-10.9-1.9c-3.4-1.3-6.3-3.4-8.7-6.2c-2.4-2.9-4.3-6.5-5.7-10.9
					c-1.4-4.4-2.1-9.8-2.1-16s0.7-11.6,2.1-16c1.4-4.4,3.3-8.1,5.7-10.9c2.4-2.9,5.3-4.9,8.7-6.2c3.4-1.3,7-1.9,10.9-1.9
					c3.9,0,7.5,0.6,10.9,1.9c3.4,1.3,6.3,3.4,8.7,6.2c2.4,2.9,4.3,6.5,5.7,10.9c1.4,4.4,2.1,9.8,2.1,16s-0.7,11.6-2.1,16
					c-1.4,4.4-3.3,8.1-5.7,10.9c-2.4,2.9-5.3,4.9-8.7,6.2C386.8,4639.9,383.2,4640.5,379.3,4640.5z M379.3,4631.8
					c5.4,0,9.5-1.6,12.4-4.8c2.9-3.2,4.4-8.1,4.4-14.8v-13.6c0-6.6-1.5-11.5-4.4-14.8c-2.9-3.2-7-4.8-12.4-4.8
					c-5.4,0-9.5,1.6-12.4,4.8c-2.9,3.2-4.4,8.1-4.4,14.8v13.6c0,6.6,1.5,11.5,4.4,14.8C369.8,4630.2,373.9,4631.8,379.3,4631.8z"/>
				<path fill="#FFA900" d="M414.9,4571.9h9.6l6.5,29.1l5.7,29.2h1.3l6.6-29.2l6.8-29.1h11.4l6.8,29.1l6.6,29.2h1.3l5.7-29.2
					l6.5-29.1h9.4L483,4639h-12.5l-8.2-32.5l-4.5-24.6h-1.3l-4.8,24.6l-8.2,32.5H431L414.9,4571.9z"/>
				<path fill="#FFA900" d="M534.3,4640.5c-3.9,0-7.5-0.6-10.9-1.9c-3.4-1.3-6.3-3.4-8.7-6.2c-2.4-2.9-4.3-6.5-5.7-10.9
					c-1.4-4.4-2.1-9.8-2.1-16s0.7-11.6,2.1-16c1.4-4.4,3.3-8.1,5.7-10.9c2.4-2.9,5.3-4.9,8.7-6.2c3.4-1.3,7-1.9,10.9-1.9
					c3.9,0,7.5,0.6,10.7,1.9c3.2,1.3,6,3.4,8.3,6.2c2.3,2.9,4,6.5,5.3,10.9c1.3,4.4,1.9,9.8,1.9,16v2.5h-43v4.3
					c0,6.6,1.5,11.5,4.5,14.8c3,3.2,7.1,4.9,12.4,4.9c4.5,0,8.2-1,11-2.9c2.9-2,5.1-4.9,6.8-8.8l6.8,4.9c-2.1,4.6-5.1,8.3-9.2,11.2
					C545.6,4639.1,540.5,4640.5,534.3,4640.5z M534.3,4578.7c-5.4,0-9.5,1.7-12.5,5.1c-2.9,3.4-4.4,8.4-4.4,15v1.7h32.5v-1.7
					C549.9,4585.3,544.7,4578.7,534.3,4578.7z"/>
				<path fill="#FFA900" d="M575.7,4639v-67.1h9.9v12.5h1.3c1.1-3.9,3.1-7,5.8-9.2c2.7-2.2,6.3-3.3,10.7-3.3h3.6v10h-6.5
					c-4.7,0-8.3,1-11,3.1c-2.6,2.1-4,5.2-4,9.4v44.6H575.7z"/>
				<path fill="#FFA900" d="M623.7,4580.6H614v-8.7h9.8v-16.4c0-4.4,1-7.6,3.1-9.7c2-2,5.3-3.1,9.7-3.1h10v8.7h-12.9v20.4h12.9v8.7
					h-12.9v58.4h-9.9V4580.6z"/>
				<path fill="#FFA900" d="M695.7,4628.1h-1.3c-1.3,4.2-3.3,7.3-6,9.4c-2.7,2.1-6.4,3.1-11.1,3.1c-6,0-10.7-2-14.1-6.1
					c-3.4-4.1-5.1-10.4-5.1-18.9v-43.7h9.9v43c0,5.4,1.1,9.5,3.3,12.3c2.2,2.9,5.6,4.3,10.2,4.3c4,0,7.4-1.2,10.1-3.6
					c2.8-2.4,4.2-5.9,4.2-10.3v-45.8h9.9v67.1h-9.9V4628.1z"/>
				<path fill="#FFA900" d="M735.5,4639c-3.6,0-6.1-0.8-7.7-2.4c-1.6-1.6-2.4-4.2-2.4-7.7v-86.1h9.9v87.5h8.5v8.7H735.5z"/>
			</g>
		</g>
		<g>
			<g>
				<path fill="#FFA900" d="M1103.6,4440.7v81.5h-10.4v-81.5h-25.6v-9.2h61.6v9.2H1103.6z"/>
				<path fill="#FFA900" d="M1141.8,4426h9.9v40h1.3c1.3-4.2,3.3-7.3,6-9.4c2.7-2.1,6.4-3.1,11.1-3.1c6,0,10.7,2,14.1,6.1
					c3.4,4.1,5.1,10.4,5.1,18.9v43.7h-9.9v-43c0-5.4-1.1-9.5-3.3-12.3s-5.6-4.3-10.2-4.3c-4,0-7.4,1.2-10.1,3.6
					c-2.8,2.4-4.2,5.9-4.2,10.3v45.8h-9.9V4426z"/>
				<path fill="#FFA900" d="M1231.4,4523.8c-3.9,0-7.5-0.6-10.9-1.9c-3.4-1.3-6.3-3.4-8.7-6.2c-2.4-2.9-4.3-6.5-5.7-10.9
					c-1.4-4.4-2.1-9.8-2.1-16s0.7-11.6,2.1-16c1.4-4.4,3.3-8.1,5.7-10.9c2.4-2.9,5.3-4.9,8.7-6.2c3.4-1.3,7-1.9,10.9-1.9
					c3.9,0,7.5,0.6,10.7,1.9c3.2,1.3,6,3.4,8.3,6.2c2.3,2.9,4,6.5,5.3,10.9c1.3,4.4,1.9,9.8,1.9,16v2.5h-43v4.3
					c0,6.6,1.5,11.5,4.5,14.8c3,3.2,7.1,4.9,12.4,4.9c4.5,0,8.2-1,11-2.9c2.9-2,5.1-4.9,6.8-8.8l6.8,4.9c-2.1,4.6-5.1,8.3-9.2,11.2
					C1242.8,4522.4,1237.6,4523.8,1231.4,4523.8z M1231.4,4461.9c-5.4,0-9.5,1.7-12.5,5.1c-2.9,3.4-4.4,8.4-4.4,15v1.7h32.5v-1.7
					C1247,4468.6,1241.8,4461.9,1231.4,4461.9z"/>
				<path fill="#FFA900" d="M970,4592.6l-11.8,14.8v30.2h-10.4v-90.7h10.4v30.3l-0.8,18.7h1.3l13.4-18.7l22.6-30.3h12l-29.9,38.9
					l31.8,51.9h-12.2L970,4592.6z"/>
				<path fill="#FFA900" d="M1020.2,4637.5v-67.1h9.9v10.9h1.3c1.3-4.2,3.3-7.3,6-9.4c2.7-2.1,6.4-3.1,11.1-3.1c6,0,10.7,2,14.1,6.1
					c3.4,4.1,5.1,10.4,5.1,18.9v43.7h-9.9v-43c0-5.4-1.1-9.5-3.3-12.3s-5.6-4.3-10.2-4.3c-4,0-7.4,1.2-10.1,3.6
					c-2.8,2.4-4.2,5.9-4.2,10.3v45.8H1020.2z"/>
				<path fill="#FFA900" d="M1109.7,4639.1c-3.9,0-7.5-0.6-10.9-1.9c-3.4-1.3-6.3-3.4-8.7-6.2c-2.4-2.9-4.3-6.5-5.7-10.9
					c-1.4-4.4-2.1-9.8-2.1-16s0.7-11.6,2.1-16c1.4-4.4,3.3-8.1,5.7-10.9c2.4-2.9,5.3-4.9,8.7-6.2c3.4-1.3,7-1.9,10.9-1.9
					c3.9,0,7.5,0.6,10.9,1.9c3.4,1.3,6.3,3.4,8.7,6.2c2.4,2.9,4.3,6.5,5.7,10.9c1.4,4.4,2.1,9.8,2.1,16s-0.7,11.6-2.1,16
					c-1.4,4.4-3.3,8.1-5.7,10.9c-2.4,2.9-5.3,4.9-8.7,6.2C1117.3,4638.5,1113.6,4639.1,1109.7,4639.1z M1109.7,4630.4
					c5.4,0,9.5-1.6,12.4-4.8c2.9-3.2,4.4-8.1,4.4-14.8v-13.6c0-6.6-1.5-11.5-4.4-14.8c-2.9-3.2-7-4.8-12.4-4.8
					c-5.4,0-9.5,1.6-12.4,4.8c-2.9,3.2-4.4,8.1-4.4,14.8v13.6c0,6.6,1.5,11.5,4.4,14.8C1100.2,4628.8,1104.4,4630.4,1109.7,4630.4z"
					/>
				<path fill="#FFA900" d="M1145.3,4570.5h9.6l6.5,29.1l5.7,29.2h1.3l6.6-29.2l6.8-29.1h11.4l6.8,29.1l6.6,29.2h1.3l5.7-29.2
					l6.5-29.1h9.4l-16.1,67.1H1201l-8.2-32.5l-4.5-24.6h-1.3l-4.8,24.6l-8.2,32.5h-12.5L1145.3,4570.5z"/>
				<path fill="#FFA900" d="M1247.4,4554.2c-4.1,0-6.1-1.8-6.1-5.3v-2.1c0-3.6,2-5.3,6.1-5.3c4.1,0,6.1,1.8,6.1,5.3v2.1
					C1253.5,4552.4,1251.5,4554.2,1247.4,4554.2z M1242.5,4570.5h9.9v67.1h-9.9V4570.5z"/>
				<path fill="#FFA900" d="M1272.1,4637.5v-67.1h9.9v10.9h1.3c1.3-4.2,3.3-7.3,6-9.4c2.7-2.1,6.4-3.1,11.1-3.1c6,0,10.7,2,14.1,6.1
					c3.4,4.1,5.1,10.4,5.1,18.9v43.7h-9.9v-43c0-5.4-1.1-9.5-3.3-12.3s-5.6-4.3-10.2-4.3c-4,0-7.4,1.2-10.1,3.6
					c-2.8,2.4-4.2,5.9-4.2,10.3v45.8H1272.1z"/>
				<path fill="#FFA900" d="M1390,4645.2c0,7.1-2.4,12.2-7.2,15.3c-4.8,3.1-12.2,4.7-22.3,4.7c-9.6,0-16.5-1.4-20.6-4.3
					c-4.1-2.9-6.2-7-6.2-12.3c0-3.6,0.9-6.5,2.7-8.6c1.8-2.1,4.2-3.4,7-3.9v-1.8c-1.7-0.9-3.1-2.2-4.1-3.7c-1-1.5-1.5-3.3-1.5-5.4
					c0-2.8,0.8-5.1,2.4-7.1c1.6-2,4.2-3.2,7.9-3.6v-1.4c-3.5-1.7-6.2-4.3-8.1-7.8s-2.9-7.8-2.9-13c0-7.6,2.1-13.4,6.2-17.3
					s9.8-5.9,16.8-5.9c4.2,0,7.9,0.7,11.3,2.2v-2.3c0-2.5,0.6-4.3,1.7-5.5c1.1-1.1,2.9-1.7,5.5-1.7h9v8.7H1376v3.7
					c2.3,2,4,4.5,5.3,7.4c1.3,3,1.9,6.5,1.9,10.7c0,7.6-2.1,13.4-6.2,17.3c-4.2,3.9-9.8,5.9-16.8,5.9c-2.1,0-4.2-0.2-6.4-0.7
					c-2.4,0.4-4.3,1.4-5.5,2.9c-1.3,1.5-1.9,3.1-1.9,4.6c0,1.7,0.6,3,1.8,3.9c1.2,0.9,3.2,1.3,6,1.3h14.7c7.5,0,13,1.5,16.2,4.5
					C1388.4,4635.1,1390,4639.5,1390,4645.2z M1380.8,4645.7c0-2.9-0.9-5.2-2.7-6.7c-1.8-1.5-4.9-2.3-9.4-2.3h-20.4
					c-2,1-3.4,2.2-4.2,3.6c-0.8,1.5-1.2,3.3-1.2,5.6c0,3.4,1,6,3.1,8c2.1,1.9,5.4,2.9,10,2.9h8.6c5.4,0,9.4-0.9,12.2-2.7
					C1379.4,4652.5,1380.8,4649.6,1380.8,4645.7z M1360.1,4607.4c4.1,0,7.2-1,9.5-3.1c2.3-2.1,3.4-5.3,3.4-9.7v-4.8
					c0-4.4-1.1-7.6-3.4-9.7c-2.3-2.1-5.4-3.1-9.5-3.1c-4.1,0-7.2,1-9.5,3.1c-2.3,2.1-3.4,5.3-3.4,9.7v4.8c0,4.4,1.1,7.6,3.4,9.7
					C1352.9,4606.3,1356,4607.4,1360.1,4607.4z"/>
			</g>
		</g>
		<g>
			<g>
				<path fill="#FFA900" d="M-1368.5,5873.1v81.5h-10.4v-81.5h-25.6v-9.2h61.6v9.2H-1368.5z"/>
				<path fill="#FFA900" d="M-1330.3,5858.4h9.9v40h1.3c1.3-4.2,3.3-7.3,6-9.4c2.7-2.1,6.4-3.1,11.1-3.1c6,0,10.7,2,14.1,6.1
					c3.4,4.1,5.1,10.4,5.1,18.9v43.7h-9.9v-43c0-5.4-1.1-9.5-3.3-12.3s-5.6-4.3-10.2-4.3c-4,0-7.4,1.2-10.1,3.6
					c-2.8,2.4-4.2,5.9-4.2,10.3v45.8h-9.9V5858.4z"/>
				<path fill="#FFA900" d="M-1240.7,5956.2c-3.9,0-7.5-0.6-10.9-1.9c-3.4-1.3-6.3-3.4-8.7-6.2c-2.4-2.9-4.3-6.5-5.7-10.9
					c-1.4-4.4-2.1-9.8-2.1-16s0.7-11.6,2.1-16c1.4-4.4,3.3-8.1,5.7-10.9c2.4-2.9,5.3-4.9,8.7-6.2c3.4-1.3,7-1.9,10.9-1.9
					c3.9,0,7.5,0.6,10.7,1.9c3.2,1.3,6,3.4,8.3,6.2c2.3,2.9,4,6.5,5.3,10.9c1.3,4.4,1.9,9.8,1.9,16v2.5h-43v4.3
					c0,6.6,1.5,11.5,4.5,14.8c3,3.2,7.1,4.9,12.4,4.9c4.5,0,8.2-1,11.1-2.9s5.1-4.9,6.8-8.8l6.8,4.9c-2.1,4.6-5.1,8.3-9.2,11.2
					C-1229.4,5954.8-1234.5,5956.2-1240.7,5956.2z M-1240.7,5894.3c-5.4,0-9.5,1.7-12.5,5.1c-2.9,3.4-4.4,8.4-4.4,15v1.7h32.5v-1.7
					C-1225.1,5901-1230.3,5894.3-1240.7,5894.3z"/>
				<path fill="#FFA900" d="M-1546.7,6070v-8.6h11.4v-73.6h-11.4v-8.6h33.3v8.6h-11.4v73.6h11.4v8.6H-1546.7z"/>
				<path fill="#FFA900" d="M-1496.7,6070v-67.1h9.9v10.9h1.3c1.3-4.2,3.2-7.3,5.7-9.4c2.5-2.1,6.1-3.1,10.7-3.1
					c4.2,0,7.7,1,10.6,3.1c2.9,2,5.1,5.2,6.6,9.4h1.3c1.4-4.2,3.6-7.3,6.5-9.4c2.9-2.1,6.8-3.1,11.7-3.1c5.7,0,10.3,2,13.8,6.1
					c3.5,4.1,5.2,10.4,5.2,18.9v43.7h-9.9v-43c0-5.4-1.1-9.5-3.2-12.3c-2.1-2.9-5.4-4.3-9.8-4.3c-3.9,0-7.2,1.2-9.8,3.6
					c-2.6,2.4-4,5.9-4,10.3v45.8h-9.9v-43c0-5.4-1.1-9.5-3.2-12.3c-2.1-2.9-5.4-4.3-9.8-4.3c-3.9,0-7.2,1.2-9.8,3.6
					c-2.6,2.4-4,5.9-4,10.3v45.8H-1496.7z"/>
				<path fill="#FFA900" d="M-1394.4,6002.9h9.9v10.8h1.3c1.3-4.4,3.4-7.5,6.3-9.5c2.9-1.9,6.4-2.9,10.6-2.9c4,0,7.5,0.8,10.5,2.5
					c3,1.6,5.6,4,7.7,7c2.1,3,3.6,6.7,4.7,11.1c1,4.3,1.6,9.2,1.6,14.6c0,5.4-0.5,10.2-1.6,14.6c-1,4.3-2.6,8-4.7,11.1
					c-2.1,3-4.6,5.4-7.7,7c-3,1.6-6.5,2.5-10.5,2.5c-4.2,0-7.7-1-10.6-2.9c-2.9-1.9-5-5.1-6.3-9.5h-1.3v36.8h-9.9V6002.9z
					 M-1369.3,6062.8c5.5,0,9.6-1.7,12.5-5.2c2.9-3.4,4.3-8.3,4.3-14.4v-13.6c0-6.2-1.4-11-4.3-14.4c-2.9-3.4-7-5.2-12.5-5.2
					c-2.1,0-4.1,0.3-5.9,0.9c-1.9,0.6-3.5,1.5-4.8,2.6c-1.3,1.1-2.4,2.5-3.2,4c-0.8,1.6-1.2,3.3-1.2,5.2v27.2c0,1.9,0.4,3.7,1.2,5.2
					c0.8,1.6,1.9,2.9,3.2,4.1c1.3,1.1,2.9,2,4.8,2.6C-1373.3,6062.5-1371.4,6062.8-1369.3,6062.8z"/>
				<path fill="#FFA900" d="M-1283.9,6070c-6.4,0-9.6-3.2-9.6-9.7v-1.3h-1.3c-1.1,4.1-3.2,7.2-6.2,9.4c-3,2.1-6.6,3.2-10.7,3.2
					c-6.5,0-11.4-1.6-14.6-4.9c-3.2-3.3-4.8-8.1-4.8-14.6c0-6.2,2.1-11.2,6.2-14.8c4.1-3.6,10.6-5.5,19.3-5.5h12.1v-7.4
					c0-4.9-1.1-8.6-3.3-10.9s-5.7-3.5-10.5-3.5c-3.9,0-7,0.8-9.4,2.5c-2.4,1.7-4.4,4.1-6.2,7.3l-5.8-5.5c1.7-3.6,4.5-6.7,8.3-9.2
					c3.8-2.5,8.3-3.7,13.5-3.7c7.6,0,13.4,1.8,17.4,5.5c3.9,3.7,5.9,9.1,5.9,16.3v38h6.8v8.7H-1283.9z M-1309.2,6062.8
					c2.3,0,4.4-0.4,6.3-1.2c2-0.8,3.6-1.8,5-3c1.4-1.2,2.5-2.7,3.2-4.3c0.8-1.6,1.2-3.3,1.2-5v-10.1h-12.4c-5.2,0-9,0.9-11.4,2.6
					c-2.4,1.7-3.6,4.2-3.6,7.5v3.6c0,3.4,1,5.8,3.1,7.4S-1312.8,6062.8-1309.2,6062.8z"/>
				<path fill="#FFA900" d="M-1263.5,6070v-67.1h9.9v12.5h1.3c1.1-3.9,3.1-7,5.8-9.2s6.3-3.3,10.7-3.3h3.6v10h-6.5
					c-4.7,0-8.3,1-11,3.1c-2.6,2.1-4,5.2-4,9.4v44.6H-1263.5z"/>
				<path fill="#FFA900" d="M-1205.2,6070c-3.6,0-6.1-0.8-7.7-2.4c-1.6-1.6-2.4-4.2-2.4-7.7v-48.2h-9.9v-8.7h5.9c2,0,3.3-0.5,4-1.5
					c0.7-1,1-2.5,1-4.5v-12.5h9v18.5h13v8.7h-13v49.7h12.4v8.7H-1205.2z"/>
				<path fill="#FFA900" d="M-1172.5,5986.6c-4.1,0-6.1-1.8-6.1-5.3v-2.1c0-3.6,2-5.3,6.1-5.3c4.1,0,6.1,1.8,6.1,5.3v2.1
					C-1166.4,5984.9-1168.4,5986.6-1172.5,5986.6z M-1177.4,6002.9h9.9v67.1h-9.9V6002.9z"/>
				<path fill="#FFA900" d="M-1105.4,6070c-6.4,0-9.6-3.2-9.6-9.7v-1.3h-1.3c-1.1,4.1-3.2,7.2-6.2,9.4c-3,2.1-6.6,3.2-10.7,3.2
					c-6.5,0-11.4-1.6-14.6-4.9c-3.2-3.3-4.8-8.1-4.8-14.6c0-6.2,2.1-11.2,6.2-14.8c4.1-3.6,10.6-5.5,19.3-5.5h12.1v-7.4
					c0-4.9-1.1-8.6-3.3-10.9s-5.7-3.5-10.5-3.5c-3.9,0-7,0.8-9.4,2.5c-2.4,1.7-4.4,4.1-6.2,7.3l-5.8-5.5c1.7-3.6,4.5-6.7,8.3-9.2
					c3.8-2.5,8.3-3.7,13.5-3.7c7.6,0,13.4,1.8,17.4,5.5c3.9,3.7,5.9,9.1,5.9,16.3v38h6.8v8.7H-1105.4z M-1130.7,6062.8
					c2.3,0,4.4-0.4,6.3-1.2c2-0.8,3.6-1.8,5-3c1.4-1.2,2.5-2.7,3.2-4.3c0.8-1.6,1.2-3.3,1.2-5v-10.1h-12.4c-5.2,0-9,0.9-11.4,2.6
					c-2.4,1.7-3.6,4.2-3.6,7.5v3.6c0,3.4,1,5.8,3.1,7.4S-1134.3,6062.8-1130.7,6062.8z"/>
				<path fill="#FFA900" d="M-1074.8,6070c-3.6,0-6.1-0.8-7.7-2.4c-1.6-1.6-2.4-4.2-2.4-7.7v-86.1h9.9v87.5h8.5v8.7H-1074.8z"/>
			</g>
		</g>
		<g>
			<g>
				<path fill="#FFA900" d="M-909.7,7070v94h-12v-94h-29.6v-10.7h71.1v10.7H-909.7z"/>
				<path fill="#FFA900" d="M-865.6,7053.1h11.4v46.2h1.5c1.5-4.8,3.8-8.4,7-10.8c3.1-2.4,7.4-3.6,12.8-3.6c6.9,0,12.3,2.4,16.3,7
					c3.9,4.7,5.9,12,5.9,21.8v50.4h-11.4v-49.7c0-6.2-1.3-10.9-3.8-14.2c-2.6-3.3-6.5-4.9-11.8-4.9c-4.6,0-8.5,1.4-11.7,4.2
					c-3.2,2.8-4.8,6.8-4.8,11.9v52.8h-11.4V7053.1z"/>
				<path fill="#FFA900" d="M-762.2,7165.9c-4.5,0-8.7-0.8-12.6-2.2c-3.9-1.5-7.3-3.9-10.1-7.2c-2.8-3.3-5-7.5-6.6-12.6
					c-1.6-5.1-2.4-11.2-2.4-18.5s0.8-13.3,2.4-18.5c1.6-5.1,3.8-9.3,6.6-12.6c2.8-3.3,6.1-5.7,10.1-7.2c3.9-1.5,8.1-2.2,12.6-2.2
					s8.6,0.8,12.4,2.2s6.9,3.9,9.5,7.2c2.6,3.3,4.6,7.5,6.1,12.6c1.4,5.1,2.2,11.2,2.2,18.5v2.9h-49.7v4.9c0,7.6,1.7,13.3,5.2,17
					c3.4,3.8,8.2,5.6,14.3,5.6c5.2,0,9.5-1.1,12.8-3.4c3.3-2.2,5.9-5.6,7.8-10.1l7.8,5.7c-2.4,5.3-5.9,9.6-10.6,12.9
					C-749.1,7164.2-755,7165.9-762.2,7165.9z M-762.2,7094.5c-6.2,0-11,1.9-14.4,5.8c-3.4,3.9-5.1,9.7-5.1,17.2v2h37.5v-2
					C-744.2,7102.2-750.2,7094.5-762.2,7094.5z"/>
				<path fill="#FFA900" d="M-622.6,7164.1l-9.3-31.3h-37.6l-9.3,31.3h-12l32.7-104.7h15l32.9,104.7H-622.6z M-646.7,7083.1l-3.3-13
					h-1.5l-3.3,13l-11.9,39.8h32.1L-646.7,7083.1z"/>
				<path fill="#FFA900" d="M-595.7,7053.1h11.4v46.1h1.5c1.5-5,3.9-8.7,7.3-10.9c3.3-2.2,7.4-3.3,12.2-3.3c4.6,0,8.6,1,12.2,2.9
					c3.5,1.9,6.4,4.6,8.8,8.1c2.4,3.5,4.2,7.8,5.4,12.8c1.2,5,1.8,10.6,1.8,16.8c0,6.2-0.6,11.8-1.8,16.8c-1.2,5-3,9.3-5.4,12.8
					c-2.4,3.5-5.4,6.2-8.8,8.1c-3.5,1.9-7.6,2.8-12.2,2.8c-4.8,0-8.9-1.1-12.2-3.3c-3.4-2.2-5.8-5.9-7.3-10.9h-1.5v12.5h-11.4
					V7053.1z M-566.8,7155.8c6.3,0,11.1-2,14.4-6s5-9.5,5-16.7v-15.7c0-7.1-1.7-12.7-5-16.7c-3.3-4-8.1-6-14.4-6
					c-2.4,0-4.7,0.4-6.8,1.1c-2.2,0.7-4,1.7-5.5,3c-1.6,1.3-2.8,2.9-3.8,4.7c-1,1.8-1.4,3.8-1.4,6v31.4c0,2.2,0.5,4.2,1.4,6
					c0.9,1.8,2.2,3.4,3.8,4.7c1.5,1.3,3.4,2.3,5.5,3C-571.5,7155.5-569.2,7155.8-566.8,7155.8z"/>
				<path fill="#FFA900" d="M-490.7,7165.9c-4.5,0-8.7-0.8-12.6-2.2c-3.9-1.5-7.3-3.9-10.1-7.2c-2.8-3.3-5-7.5-6.6-12.6
					c-1.6-5.1-2.4-11.2-2.4-18.5s0.8-13.3,2.4-18.5c1.6-5.1,3.8-9.3,6.6-12.6c2.8-3.3,6.1-5.7,10.1-7.2c3.9-1.5,8.1-2.2,12.6-2.2
					s8.7,0.8,12.6,2.2s7.2,3.9,10.1,7.2c2.8,3.3,5,7.5,6.6,12.6c1.6,5.1,2.4,11.2,2.4,18.5s-0.8,13.4-2.4,18.5
					c-1.6,5.1-3.8,9.3-6.6,12.6c-2.8,3.3-6.2,5.7-10.1,7.2S-486.2,7165.9-490.7,7165.9z M-490.7,7155.8c6.2,0,11-1.9,14.3-5.6
					c3.3-3.7,5-9.4,5-17v-15.7c0-7.6-1.7-13.3-5-17c-3.4-3.7-8.1-5.6-14.3-5.6c-6.2,0-11,1.9-14.3,5.6c-3.4,3.7-5,9.4-5,17v15.7
					c0,7.6,1.7,13.3,5,17C-501.7,7154-496.9,7155.8-490.7,7155.8z"/>
				<path fill="#FFA900" d="M-397.1,7151.6h-1.5c-1.5,5.1-3.9,8.7-7.3,10.9c-3.4,2.2-7.4,3.3-12.2,3.3c-4.6,0-8.7-1-12.1-2.8
					c-3.5-1.9-6.4-4.6-8.9-8.1c-2.4-3.5-4.2-7.7-5.4-12.8c-1.2-5-1.8-10.6-1.8-16.8c0-6.2,0.6-11.8,1.8-16.8c1.2-5,3-9.2,5.4-12.8
					c2.4-3.5,5.3-6.2,8.9-8.1c3.5-1.9,7.5-2.9,12.1-2.9c4.8,0,8.9,1.1,12.2,3.3c3.3,2.2,5.8,5.9,7.3,10.9h1.5v-46.1h11.4v111h-11.4
					V7151.6z M-414.7,7155.8c2.4,0,4.7-0.4,6.8-1.1c2.1-0.7,4-1.7,5.5-3c1.5-1.3,2.8-2.9,3.8-4.7c0.9-1.8,1.4-3.8,1.4-6v-31.4
					c0-2.2-0.5-4.2-1.4-6c-1-1.8-2.2-3.4-3.8-4.7c-1.6-1.3-3.4-2.3-5.5-3c-2.2-0.7-4.4-1.1-6.8-1.1c-6.3,0-11.1,2-14.4,6
					c-3.3,4-5,9.5-5,16.7v15.7c0,7.1,1.6,12.7,5,16.7C-425.8,7153.8-421,7155.8-414.7,7155.8z"/>
				<path fill="#FFA900" d="M-336.5,7165.9c-4.5,0-8.7-0.8-12.6-2.2c-3.9-1.5-7.3-3.9-10.1-7.2c-2.8-3.3-5-7.5-6.6-12.6
					c-1.6-5.1-2.4-11.2-2.4-18.5s0.8-13.3,2.4-18.5c1.6-5.1,3.8-9.3,6.6-12.6c2.8-3.3,6.1-5.7,10.1-7.2c3.9-1.5,8.1-2.2,12.6-2.2
					s8.6,0.8,12.4,2.2s6.9,3.9,9.5,7.2c2.6,3.3,4.6,7.5,6.1,12.6c1.4,5.1,2.2,11.2,2.2,18.5v2.9H-356v4.9c0,7.6,1.7,13.3,5.2,17
					c3.4,3.8,8.2,5.6,14.3,5.6c5.2,0,9.5-1.1,12.8-3.4c3.3-2.2,5.9-5.6,7.8-10.1l7.8,5.7c-2.4,5.3-5.9,9.6-10.6,12.9
					C-323.4,7164.2-329.3,7165.9-336.5,7165.9z M-336.5,7094.5c-6.2,0-11,1.9-14.4,5.8c-3.4,3.9-5.1,9.7-5.1,17.2v2h37.5v-2
					C-318.5,7102.2-324.5,7094.5-336.5,7094.5z"/>
				<path fill="#FFA900" d="M-230.5,7165.9c-4.5,0-8.7-0.8-12.6-2.2c-3.9-1.5-7.3-3.9-10.1-7.2c-2.8-3.3-5-7.5-6.6-12.6
					c-1.6-5.1-2.4-11.2-2.4-18.5s0.8-13.3,2.4-18.5c1.6-5.1,3.8-9.3,6.6-12.6c2.8-3.3,6.1-5.7,10.1-7.2c3.9-1.5,8.1-2.2,12.6-2.2
					s8.7,0.8,12.6,2.2s7.2,3.9,10.1,7.2c2.8,3.3,5,7.5,6.6,12.6c1.6,5.1,2.4,11.2,2.4,18.5s-0.8,13.4-2.4,18.5
					c-1.6,5.1-3.8,9.3-6.6,12.6c-2.8,3.3-6.2,5.7-10.1,7.2S-226,7165.9-230.5,7165.9z M-230.5,7155.8c6.2,0,11-1.9,14.3-5.6
					c3.3-3.7,5-9.4,5-17v-15.7c0-7.6-1.7-13.3-5-17c-3.4-3.7-8.1-5.6-14.3-5.6c-6.2,0-11,1.9-14.3,5.6c-3.4,3.7-5,9.4-5,17v15.7
					c0,7.6,1.7,13.3,5,17C-241.5,7154-236.7,7155.8-230.5,7155.8z"/>
				<path fill="#FFA900" d="M-178,7096.7h-11.2v-10.1h11.2v-18.9c0-5.1,1.2-8.8,3.5-11.2c2.3-2.3,6.1-3.5,11.2-3.5h11.6v10h-14.9
					v23.5h14.9v10.1h-14.9v67.3H-178V7096.7z"/>
				<path fill="#FFA900" d="M-90.2,7164.1c-4.1,0-7.1-0.9-8.9-2.8c-1.9-1.8-2.8-4.8-2.8-8.9v-55.6h-11.4v-10.1h6.8
					c2.3,0,3.8-0.6,4.6-1.7c0.8-1.1,1.1-2.9,1.1-5.2v-14.4h10.4v21.3h15v10.1h-15v57.3h14.2v10H-90.2z"/>
				<path fill="#FFA900" d="M-58.1,7053.1h11.4v46.2h1.5c1.5-4.8,3.8-8.4,7-10.8c3.1-2.4,7.4-3.6,12.8-3.6c6.9,0,12.3,2.4,16.3,7
					c3.9,4.7,5.9,12,5.9,21.8v50.4h-11.4v-49.7c0-6.2-1.3-10.9-3.8-14.2c-2.5-3.3-6.5-4.9-11.8-4.9c-4.6,0-8.5,1.4-11.7,4.2
					c-3.2,2.8-4.8,6.8-4.8,11.9v52.8h-11.4V7053.1z"/>
				<path fill="#FFA900" d="M24.5,7067.9c-4.7,0-7-2-7-6.1v-2.4c0-4.1,2.3-6.1,7-6.1c4.7,0,7.1,2.1,7.1,6.1v2.4
					C31.6,7065.9,29.2,7067.9,24.5,7067.9z M18.8,7086.7h11.4v77.4H18.8V7086.7z"/>
				<path fill="#FFA900" d="M74.5,7165.9c-6.4,0-11.9-1.3-16.4-3.9c-4.6-2.6-8.4-6.2-11.6-10.8l8-6.6c2.7,3.8,5.6,6.7,8.8,8.7
					c3.1,2,6.9,3,11.3,3c4.5,0,8.1-1.1,10.7-3.4c2.6-2.2,4-5.5,4-9.7c0-3.4-0.9-6.2-2.5-8.2c-1.7-2.1-4.9-3.5-9.5-4.4l-5.8-1
					c-7.5-1.4-13.1-3.8-16.7-7c-3.7-3.3-5.5-8.3-5.5-15c0-3.9,0.6-7.3,1.8-10.1c1.2-2.9,2.9-5.2,5.1-7c2.2-1.8,4.8-3.2,7.9-4.1
					c3-0.8,6.4-1.3,10-1.3c5.8,0,10.7,1,14.6,3.1c3.9,2.1,7.4,5,10.3,8.9l-7.4,6.8c-1.7-2.4-4-4.5-6.8-6.4
					c-2.8-1.8-6.4-2.8-10.8-2.8c-9.1,0-13.7,4.2-13.7,12.5c0,3.8,1,6.6,2.9,8.3c1.9,1.8,5.1,3,9.5,3.8l5.9,1
					c7.9,1.4,13.5,3.9,16.8,7.3c3.3,3.5,5,8.2,5,14.2c0,7.5-2.2,13.4-6.5,17.6C89.4,7163.7,83,7165.9,74.5,7165.9z"/>
				<path fill="#FFA900" d="M165.1,7164.1l-23-104.7h12.5l14.1,67.7l3.8,25h1.5l3.8-25l14.2-67.7h16.2l14.2,67.7l3.8,25h1.5l3.8-25
					l14.1-67.7h12.1l-23.8,104.7h-15l-14.4-67.7l-3.8-26.5h-1.5l-3.8,26.5l-15.3,67.7H165.1z"/>
				<path fill="#FFA900" d="M296,7165.9c-4.5,0-8.7-0.8-12.6-2.2c-3.9-1.5-7.3-3.9-10-7.2c-2.8-3.3-5-7.5-6.6-12.6
					c-1.6-5.1-2.4-11.2-2.4-18.5s0.8-13.3,2.4-18.5c1.6-5.1,3.8-9.3,6.6-12.6c2.8-3.3,6.1-5.7,10-7.2c3.9-1.5,8.1-2.2,12.6-2.2
					s8.7,0.8,12.6,2.2c3.9,1.5,7.2,3.9,10,7.2c2.8,3.3,5,7.5,6.6,12.6c1.6,5.1,2.4,11.2,2.4,18.5s-0.8,13.4-2.4,18.5
					c-1.6,5.1-3.8,9.3-6.6,12.6c-2.8,3.3-6.2,5.7-10,7.2C304.7,7165.1,300.5,7165.9,296,7165.9z M296,7155.8c6.2,0,11-1.9,14.3-5.6
					c3.3-3.7,5-9.4,5-17v-15.7c0-7.6-1.7-13.3-5-17c-3.4-3.7-8.1-5.6-14.3-5.6c-6.2,0-11,1.9-14.3,5.6c-3.4,3.7-5,9.4-5,17v15.7
					c0,7.6,1.7,13.3,5,17C285,7154,289.8,7155.8,296,7155.8z"/>
				<path fill="#FFA900" d="M345.2,7164.1v-77.4h11.4v14.4h1.5c1.3-4.5,3.5-8,6.7-10.6c3.2-2.5,7.3-3.8,12.4-3.8h4.2v11.6h-7.5
					c-5.4,0-9.6,1.2-12.7,3.6c-3.1,2.4-4.6,6-4.6,10.8v51.5H345.2z"/>
				<path fill="#FFA900" d="M406.7,7164.1c-4.1,0-7.1-0.9-8.9-2.8c-1.9-1.8-2.8-4.8-2.8-8.9v-99.3h11.4v101h9.8v10H406.7z"/>
				<path fill="#FFA900" d="M476.5,7151.6H475c-1.5,5.1-3.9,8.7-7.3,10.9c-3.4,2.2-7.4,3.3-12.2,3.3c-4.6,0-8.7-1-12.1-2.8
					c-3.5-1.9-6.5-4.6-8.9-8.1c-2.4-3.5-4.2-7.7-5.4-12.8c-1.2-5-1.8-10.6-1.8-16.8c0-6.2,0.6-11.8,1.8-16.8c1.2-5,3-9.2,5.4-12.8
					c2.4-3.5,5.3-6.2,8.9-8.1c3.5-1.9,7.5-2.9,12.1-2.9c4.8,0,8.9,1.1,12.2,3.3c3.3,2.2,5.8,5.9,7.3,10.9h1.5v-46.1h11.4v111h-11.4
					V7151.6z M458.9,7155.8c2.4,0,4.7-0.4,6.8-1.1c2.1-0.7,4-1.7,5.5-3c1.5-1.3,2.8-2.9,3.8-4.7c0.9-1.8,1.4-3.8,1.4-6v-31.4
					c0-2.2-0.5-4.2-1.4-6c-1-1.8-2.2-3.4-3.8-4.7c-1.6-1.3-3.4-2.3-5.5-3c-2.2-0.7-4.4-1.1-6.8-1.1c-6.3,0-11.1,2-14.4,6
					c-3.3,4-4.9,9.5-4.9,16.7v15.7c0,7.1,1.6,12.7,4.9,16.7C447.8,7153.8,452.6,7155.8,458.9,7155.8z"/>
			</g>
		</g>
		<g>
			<g>
				<path fill="#FFA900" d="M824.8,5875.6v81.5h-10.4v-81.5h-25.6v-9.2h61.6v9.2H824.8z"/>
				<path fill="#FFA900" d="M863,5860.9h9.9v40h1.3c1.3-4.2,3.3-7.3,6-9.4c2.7-2.1,6.4-3.1,11.1-3.1c6,0,10.7,2,14.1,6.1
					c3.4,4.1,5.1,10.4,5.1,18.9v43.7h-9.9v-43c0-5.4-1.1-9.5-3.3-12.3s-5.6-4.3-10.2-4.3c-4,0-7.4,1.2-10.1,3.6
					c-2.8,2.4-4.2,5.9-4.2,10.3v45.8H863V5860.9z"/>
				<path fill="#FFA900" d="M952.6,5958.6c-3.9,0-7.5-0.6-10.9-1.9c-3.4-1.3-6.3-3.4-8.7-6.2c-2.4-2.9-4.3-6.5-5.7-10.9
					c-1.4-4.4-2.1-9.8-2.1-16s0.7-11.6,2.1-16c1.4-4.4,3.3-8.1,5.7-10.9c2.4-2.9,5.3-4.9,8.7-6.2c3.4-1.3,7-1.9,10.9-1.9
					c3.9,0,7.5,0.6,10.7,1.9c3.2,1.3,6,3.4,8.3,6.2c2.3,2.9,4,6.5,5.3,10.9c1.3,4.4,1.9,9.8,1.9,16v2.5h-43v4.3
					c0,6.6,1.5,11.5,4.5,14.8c3,3.2,7.1,4.9,12.4,4.9c4.5,0,8.2-1,11-2.9c2.9-2,5.1-4.9,6.8-8.8l6.8,4.9c-2.1,4.6-5.1,8.3-9.2,11.2
					C964,5957.2,958.9,5958.6,952.6,5958.6z M952.6,5896.8c-5.4,0-9.5,1.7-12.5,5.1c-2.9,3.4-4.4,8.4-4.4,15v1.7h32.5v-1.7
					C968.2,5903.4,963,5896.8,952.6,5896.8z"/>
				<path fill="#FFA900" d="M645.4,5981.7h34.3c6.8,0,12.1,1.9,15.8,5.8c3.7,3.8,5.5,9.7,5.5,17.6c0,3.6-0.4,6.6-1.3,9
					c-0.9,2.4-2,4.3-3.3,5.7c-1.3,1.4-2.8,2.5-4.5,3.2c-1.6,0.7-3.2,1.1-4.8,1.2v1.3c1.6,0,3.3,0.3,5.3,1c2,0.7,3.8,1.8,5.5,3.4
					c1.7,1.6,3.1,3.7,4.3,6.4c1.2,2.6,1.8,6,1.8,10c0,8.3-1.9,14.8-5.7,19.4c-3.8,4.6-8.8,6.9-15,6.9h-37.8V5981.7z M655.8,6020.8
					h22.6c3.7,0,6.6-1,8.6-2.9c2-1.9,3-5,3-9.1v-5.9c0-4.1-1-7.2-3-9.1c-2-1.9-4.9-2.9-8.6-2.9h-22.6V6020.8z M655.8,6063.2h24.3
					c4.2,0,7.3-1.1,9.4-3.3c2.1-2.2,3.2-5.6,3.2-10.3v-6c0-4.7-1.1-8.1-3.2-10.3c-2.1-2.2-5.3-3.3-9.4-3.3h-24.3V6063.2z"/>
				<path fill="#FFA900" d="M744,6074c-3.9,0-7.5-0.6-10.9-1.9c-3.4-1.3-6.3-3.4-8.7-6.2c-2.4-2.9-4.3-6.5-5.7-10.9
					c-1.4-4.4-2.1-9.8-2.1-16s0.7-11.6,2.1-16c1.4-4.4,3.3-8.1,5.7-10.9c2.4-2.9,5.3-4.9,8.7-6.2c3.4-1.3,7-1.9,10.9-1.9
					c3.9,0,7.5,0.6,10.7,1.9c3.2,1.3,6,3.4,8.3,6.2c2.3,2.9,4,6.5,5.3,10.9c1.3,4.4,1.9,9.8,1.9,16v2.5h-43v4.3
					c0,6.6,1.5,11.5,4.5,14.8c3,3.2,7.1,4.9,12.4,4.9c4.5,0,8.2-1,11-2.9c2.9-2,5.1-4.9,6.8-8.8l6.8,4.9c-2.1,4.6-5.1,8.3-9.2,11.2
					C755.3,6072.5,750.2,6074,744,6074z M744,6012.1c-5.4,0-9.5,1.7-12.5,5.1c-2.9,3.4-4.4,8.4-4.4,15v1.7h32.5v-1.7
					C759.6,6018.8,754.4,6012.1,744,6012.1z"/>
				<path fill="#FFA900" d="M804,6074c-5.5,0-10.3-1.1-14.2-3.4c-3.9-2.3-7.3-5.4-10.1-9.4l6.9-5.7c2.3,3.3,4.9,5.8,7.6,7.5
					c2.7,1.7,6,2.6,9.8,2.6c3.9,0,7-1,9.3-2.9c2.3-2,3.4-4.7,3.4-8.4c0-2.9-0.7-5.3-2.2-7.1c-1.5-1.8-4.2-3.1-8.2-3.8l-5.1-0.9
					c-6.5-1.2-11.3-3.2-14.5-6.1c-3.2-2.9-4.7-7.2-4.7-13c0-3.4,0.5-6.3,1.6-8.8s2.5-4.5,4.4-6.1c1.9-1.6,4.2-2.8,6.8-3.5
					c2.6-0.7,5.5-1.1,8.6-1.1c5,0,9.2,0.9,12.7,2.7c3.4,1.8,6.4,4.4,8.9,7.7l-6.4,5.9c-1.5-2.1-3.4-3.9-5.9-5.5
					c-2.4-1.6-5.5-2.4-9.4-2.4c-7.9,0-11.8,3.6-11.8,10.8c0,3.3,0.8,5.7,2.5,7.2c1.7,1.5,4.4,2.6,8.3,3.3l5.1,0.9
					c6.8,1.2,11.7,3.3,14.6,6.4c2.9,3,4.3,7.1,4.3,12.3c0,6.5-1.9,11.6-5.7,15.3C817,6072.1,811.4,6074,804,6074z"/>
				<path fill="#FFA900" d="M855.8,6072.4c-3.6,0-6.1-0.8-7.7-2.4c-1.6-1.6-2.4-4.2-2.4-7.7V6014h-9.9v-8.7h5.9c2,0,3.3-0.5,4-1.5
					c0.6-1,1-2.5,1-4.5v-12.5h9v18.5h13v8.7h-13v49.7h12.4v8.7H855.8z"/>
				<path fill="#FFA900" d="M905.9,6074c-3.9,0-7.5-0.6-10.9-1.9c-3.4-1.3-6.3-3.4-8.7-6.2c-2.4-2.9-4.3-6.5-5.7-10.9
					c-1.4-4.4-2.1-9.8-2.1-16s0.7-11.6,2.1-16c1.4-4.4,3.3-8.1,5.7-10.9c2.4-2.9,5.3-4.9,8.7-6.2c3.4-1.3,7-1.9,10.9-1.9
					c3.9,0,7.5,0.6,10.9,1.9c3.4,1.3,6.3,3.4,8.7,6.2c2.4,2.9,4.3,6.5,5.7,10.9c1.4,4.4,2.1,9.8,2.1,16s-0.7,11.6-2.1,16
					c-1.4,4.4-3.3,8.1-5.7,10.9c-2.4,2.9-5.3,4.9-8.7,6.2C913.5,6073.3,909.8,6074,905.9,6074z M905.9,6065.3
					c5.4,0,9.5-1.6,12.4-4.8c2.9-3.2,4.4-8.1,4.4-14.8v-13.6c0-6.6-1.5-11.5-4.4-14.8c-2.9-3.2-7-4.8-12.4-4.8
					c-5.4,0-9.5,1.6-12.4,4.8c-2.9,3.2-4.4,8.1-4.4,14.8v13.6c0,6.6,1.5,11.5,4.4,14.8C896.4,6063.7,900.6,6065.3,905.9,6065.3z"/>
				<path fill="#FFA900" d="M941.6,6005.3h9.6l6.5,29.1l5.7,29.2h1.3l6.6-29.2l6.8-29.1h11.4l6.8,29.1l6.6,29.2h1.3l5.7-29.2
					l6.5-29.1h9.4l-16.1,67.1h-12.5l-8.2-32.5l-4.5-24.6h-1.3l-4.8,24.6l-8.2,32.5h-12.5L941.6,6005.3z"/>
				<path fill="#FFA900" d="M1060.9,6074c-3.9,0-7.5-0.6-10.9-1.9c-3.4-1.3-6.3-3.4-8.7-6.2c-2.4-2.9-4.3-6.5-5.7-10.9
					c-1.4-4.4-2.1-9.8-2.1-16s0.7-11.6,2.1-16c1.4-4.4,3.3-8.1,5.7-10.9c2.4-2.9,5.3-4.9,8.7-6.2c3.4-1.3,7-1.9,10.9-1.9
					c3.9,0,7.5,0.6,10.7,1.9c3.2,1.3,6,3.4,8.3,6.2c2.3,2.9,4,6.5,5.3,10.9c1.3,4.4,1.9,9.8,1.9,16v2.5h-43v4.3
					c0,6.6,1.5,11.5,4.5,14.8c3,3.2,7.1,4.9,12.4,4.9c4.5,0,8.2-1,11-2.9c2.9-2,5.1-4.9,6.8-8.8l6.8,4.9c-2.1,4.6-5.1,8.3-9.2,11.2
					C1072.3,6072.5,1067.1,6074,1060.9,6074z M1060.9,6012.1c-5.4,0-9.5,1.7-12.5,5.1c-2.9,3.4-4.4,8.4-4.4,15v1.7h32.5v-1.7
					C1076.5,6018.8,1071.3,6012.1,1060.9,6012.1z"/>
				<path fill="#FFA900" d="M1102.4,6072.4v-67.1h9.9v12.5h1.3c1.1-3.9,3.1-7,5.8-9.2c2.7-2.2,6.3-3.3,10.7-3.3h3.6v10h-6.5
					c-4.7,0-8.3,1-11,3.1c-2.6,2.1-4,5.2-4,9.4v44.6H1102.4z"/>
			</g>
		</g>
		<g>
			<path fill="#FFA900" d="M-508.6,6272l26.7,77l-9.8,3.4l-26.7-77l-24.2,8.4l-3-8.7l58.2-20.2l3,8.7L-508.6,6272z"/>
			<path fill="#FFA900" d="M-471.4,6244.7l9.6-2.5l10.1,38.8l1.3-0.3c0.2-4.4,1.4-7.9,3.5-10.6c2.1-2.7,5.4-4.6,10-5.8
				c5.8-1.5,10.8-0.7,15.2,2.4c4.3,3.1,7.6,8.7,9.7,17l11,42.3l-9.6,2.5l-10.8-41.6c-1.4-5.2-3.5-8.9-6.3-11.1
				c-2.9-2.2-6.5-2.7-11-1.6c-3.9,1-6.8,3-8.9,6.1c-2.1,3-2.6,6.7-1.4,11l11.5,44.3l-9.6,2.5L-471.4,6244.7z"/>
			<path fill="#FFA900" d="M-361.3,6319.7c-3.8,0.7-7.5,0.7-11.1,0s-6.8-2.2-9.7-4.6c-2.9-2.4-5.4-5.6-7.6-9.7
				c-2.1-4.1-3.8-9.2-4.9-15.4c-1.1-6.1-1.4-11.5-0.8-16.1c0.6-4.6,1.8-8.5,3.7-11.8c1.9-3.2,4.4-5.8,7.5-7.7
				c3.1-1.9,6.6-3.2,10.4-3.8c3.8-0.7,7.5-0.7,10.9,0c3.4,0.7,6.5,2.3,9.2,4.7c2.7,2.4,5.1,5.7,7.1,9.8c2,4.1,3.6,9.3,4.7,15.4
				l0.4,2.4l-42.4,7.6l0.8,4.2c1.2,6.5,3.5,11.1,7,13.7c3.5,2.7,7.9,3.5,13.1,2.6c4.4-0.8,7.9-2.4,10.4-4.8c2.5-2.4,4.2-5.7,5.1-9.8
				l7.5,3.7c-1.2,4.9-3.6,9.1-7.1,12.6C-350.3,6316.3-355.1,6318.6-361.3,6319.7z M-372.2,6258.8c-5.3,0.9-9.1,3.3-11.4,7.2
				c-2.3,3.8-2.9,9-1.7,15.5l0.3,1.7l32-5.7l-0.3-1.7C-355.6,6262.6-361.9,6256.9-372.2,6258.8z"/>
			<path fill="#FFA900" d="M-298.3,6309.2l-0.7-8.6l11.4-0.9l-5.8-73.3l-11.4,0.9l-0.7-8.6l33.2-2.6l0.7,8.6l-11.4,0.9l5.8,73.3
				l11.4-0.9l0.7,8.6L-298.3,6309.2z"/>
			<path fill="#FFA900" d="M-231.3,6307c-5.5,0.1-10.3-0.9-14.3-3.1c-4-2.2-7.4-5.2-10.3-9.2l6.8-5.9c2.4,3.2,5,5.7,7.7,7.4
				c2.8,1.7,6,2.5,9.9,2.4c3.9-0.1,7-1.1,9.2-3.1c2.3-2,3.4-4.8,3.3-8.4c-0.1-2.9-0.8-5.3-2.3-7.1c-1.5-1.8-4.3-3-8.3-3.6l-5.1-0.8
				c-6.5-1.1-11.4-3-14.6-5.8c-3.2-2.8-4.9-7.1-5-12.9c-0.1-3.4,0.4-6.3,1.4-8.8c1-2.5,2.4-4.6,4.3-6.2c1.9-1.6,4.1-2.9,6.8-3.6
				c2.6-0.8,5.5-1.2,8.6-1.3c5-0.1,9.3,0.7,12.7,2.4c3.5,1.7,6.5,4.2,9.1,7.6l-6.3,6c-1.5-2.1-3.5-3.9-6-5.4
				c-2.5-1.6-5.6-2.3-9.4-2.2c-7.9,0.2-11.8,3.8-11.6,11c0.1,3.3,1,5.7,2.7,7.2c1.7,1.5,4.5,2.5,8.3,3.2l5.1,0.8
				c6.9,1.1,11.8,3.1,14.7,6.1c2.9,3,4.4,7.1,4.5,12.3c0.1,6.5-1.7,11.6-5.4,15.4C-218.4,6304.9-224,6306.8-231.3,6307z"/>
			<path fill="#FFA900" d="M-180.9,6305.9c-3.6-0.1-6.1-1-7.6-2.7c-1.5-1.7-2.2-4.3-2.1-7.8l1.8-48.2l-9.9-0.4l0.3-8.7l5.8,0.2
				c2,0.1,3.3-0.4,4-1.3c0.7-1,1.1-2.5,1.1-4.4l0.5-12.5l9,0.3l-0.7,18.4l13,0.5l-0.3,8.7l-13-0.5l-1.8,49.6l12.3,0.5l-0.3,8.7
				L-180.9,6305.9z"/>
			<path fill="#FFA900" d="M-144.8,6211.4l9.8,1l-4,39.8l1.3,0.1c1.7-4,4-6.9,7-8.7c2.9-1.8,6.7-2.5,11.4-2c6,0.6,10.4,3.1,13.4,7.5
				c3,4.4,4.1,10.8,3.2,19.3l-4.4,43.5l-9.8-1l4.3-42.8c0.5-5.3-0.2-9.6-2.1-12.6c-1.9-3.1-5.2-4.8-9.7-5.3c-4-0.4-7.5,0.5-10.5,2.6
				c-3,2.1-4.7,5.4-5.2,9.8l-4.6,45.5l-9.8-1L-144.8,6211.4z"/>
			<path fill="#FFA900" d="M-90.2,6313.5l13.3-65.8l9.7,2l-2.2,10.7l1.3,0.3c2.1-3.8,4.6-6.5,7.5-8c2.9-1.5,6.6-1.9,11.1-0.9
				c4.1,0.8,7.3,2.5,9.8,5.1c2.4,2.6,4,6.1,4.6,10.5l1.3,0.3c2.2-3.8,4.9-6.4,8.2-7.9c3.3-1.5,7.3-1.7,12.1-0.7
				c5.6,1.1,9.7,4,12.3,8.7c2.6,4.7,3,11.2,1.4,19.5l-8.7,42.8l-9.7-2l8.5-42.2c1.1-5.3,0.8-9.5-0.7-12.7c-1.5-3.2-4.4-5.3-8.8-6.1
				c-3.8-0.8-7.3-0.2-10.3,1.6c-3.1,1.9-5,4.9-5.9,9.3l-9.1,44.9l-9.7-2l8.5-42.2c1.1-5.3,0.8-9.5-0.7-12.7
				c-1.5-3.2-4.4-5.3-8.8-6.1c-3.8-0.8-7.3-0.2-10.3,1.6c-3.1,1.9-5,4.9-5.9,9.3l-9.1,44.9L-90.2,6313.5z"/>
			<path fill="#FFA900" d="M46.2,6335.6l-1.2-0.4c-2.5,3.6-5.3,6-8.5,7.2s-7.1,1.1-11.5-0.3c-5.7-1.8-9.6-5.1-11.7-10
				c-2.1-4.9-1.9-11.4,0.7-19.5l12.9-41.7l9.4,2.9l-12.7,41.1c-1.6,5.1-1.7,9.4-0.5,12.8c1.3,3.4,4.1,5.8,8.5,7.1
				c3.8,1.2,7.4,1,10.8-0.5c3.4-1.5,5.7-4.4,7-8.6l13.5-43.7l9.4,2.9l-19.8,64.1L43,6346L46.2,6335.6z"/>
			<path fill="#FFA900" d="M86.3,6363.3c-5.2-2-9.2-4.8-12-8.3c-2.9-3.5-4.8-7.7-6-12.4l8.5-2.8c1,3.9,2.4,7.2,4.3,9.8
				c1.9,2.6,4.6,4.6,8.2,6c3.6,1.4,6.9,1.6,9.7,0.7c2.8-1,4.9-3.2,6.3-6.6c1.1-2.7,1.3-5.2,0.5-7.5c-0.7-2.2-2.8-4.4-6.3-6.5
				l-4.4-2.7c-5.6-3.5-9.4-7.2-11.3-11c-1.9-3.8-1.8-8.4,0.3-13.8c1.2-3.1,2.8-5.7,4.6-7.6c1.9-1.9,4-3.3,6.3-4.1
				c2.4-0.8,4.9-1.1,7.6-0.8c2.7,0.3,5.5,1,8.5,2.1c4.7,1.8,8.3,4.2,10.8,7.1c2.5,2.9,4.4,6.4,5.5,10.4l-8.1,3.1
				c-0.6-2.5-1.8-4.9-3.4-7.3c-1.7-2.4-4.3-4.3-7.8-5.6c-7.3-2.9-12.3-1-14.9,5.7c-1.2,3.1-1.3,5.6-0.3,7.6c1,2,3.2,4.1,6.5,6.1
				l4.4,2.7c5.9,3.6,9.7,7.4,11.2,11.2c1.6,3.9,1.4,8.2-0.5,13.1c-2.4,6.1-6,10.1-10.8,12.2C99,6366.3,93.1,6366,86.3,6363.3z"/>
		</g>
		<g>
			<path fill="none" stroke="#FFFFFF" stroke-width="4" stroke-miterlimit="10" d="M-416.6,4382.1c-43.6-52.4-69.9-119.8-69.9-193.3
				c0-88.7,38.2-168.4,99-223.7c53.7-48.8,125-78.6,203.3-78.6c83.5,0,159.1,33.8,213.8,88.6c54.7,54.7,88.6,130.3,88.6,213.8
				c0,83.1-33.6,158.4-87.9,213.1c-54.8,55.1-130.6,89.2-214.5,89.2C-277.6,4491.1-361.1,4448.7-416.6,4382.1z"/>
			<path fill="none" stroke="#FFFFFF" stroke-width="4" stroke-miterlimit="10" d="M708.1,4332.9c63,55.4,102.7,136.6,102.7,227
				c0,90.5-39.7,171.6-102.7,227c-53.3,46.9-123.1,75.3-199.6,75.3c-83.5,0-159.1-33.8-213.8-88.6s-88.6-130.3-88.6-213.8
				c0-83.4,33.7-158.8,88.3-213.5c54.7-54.9,130.4-88.8,214-88.8C585,4257.6,654.9,4286,708.1,4332.9z"/>
			<path fill="none" stroke="#FFFFFF" stroke-width="4" stroke-miterlimit="10" d="M-402.8,4773.7c55.1-58.1,133-94.3,219.4-94.3
				c83.5,0,159.1,33.8,213.8,88.6s88.6,130.3,88.6,213.8c0,91.4-40.6,173.4-104.7,228.8c-53,45.8-122.1,73.5-197.6,73.5
				c-86.4,0-164.3-36.2-219.4-94.3c-51.4-54.2-83-127.4-83-208C-485.8,4901.1-454.2,4827.9-402.8,4773.7z"/>
			<path fill="none" stroke="#FFFFFF" stroke-width="4" stroke-miterlimit="10" d="M-428.7,5833.8c-40.4-51.4-64.5-116.2-64.5-186.7
				c0-77.2,29-147.7,76.6-201.2c55.4-62.1,136-101.2,225.7-101.2c79.1,0,151.2,30.4,205.1,80.2c59.8,55.2,97.3,134.3,97.3,222.2
				c0,79.6-30.8,152.1-81.1,206.1c-55.2,59.2-133.9,96.3-221.2,96.3C-287.4,5949.4-373.3,5904.2-428.7,5833.8z"/>
			<path fill="none" stroke="#FFFFFF" stroke-width="4" stroke-miterlimit="10" d="M-1524.2,6205.5
				c-55.2-54.8-89.4-130.7-89.4-214.6c0-78.4,29.8-149.8,78.7-203.5c55.3-60.7,135-98.8,223.6-98.8c71.7,0,137.6,25,189.5,66.7
				c68.8,55.4,112.9,140.4,112.9,235.6c0,62-18.7,119.7-50.7,167.6c-54.2,81.2-146.7,134.7-251.6,134.7
				C-1394.3,6293.2-1469.5,6259.7-1524.2,6205.5z"/>
			<path fill="none" stroke="#FFFFFF" stroke-width="4" stroke-miterlimit="10" d="M91.8,8235.4c54.7,54.7,88.6,130.3,88.6,213.8
				c0,86.9-36.7,165.3-95.4,220.4c-54.1,50.8-126.9,81.9-206.9,81.9c-86.9,0-165.2-36.6-220.3-95.3c-50.9-54.1-82-126.9-82-207
				c0-74.4,26.9-142.6,71.5-195.2c55.5-65.5,138.3-107.1,230.8-107.1C-38.5,8146.9,37.1,8180.7,91.8,8235.4z"/>
			<path fill="none" stroke="#FFFFFF" stroke-width="4" stroke-miterlimit="10" d="M-861.3,6680.5
				c143-202.9,379.2-335.4,646.3-335.4c267.4,0,503.8,132.8,646.8,336.1c90.3,128.5,143.4,285.1,143.4,454
				c0,224.9-93.9,427.8-244.7,571.7C188.5,7842.3-3.5,7925.4-215,7925.4c-260.3,0-491.2-125.8-635.1-320
				c-97.4-131.4-155-294-155-470.1C-1005.2,6965.9-952,6809.1-861.3,6680.5z"/>
			<path fill="none" stroke="#FFFFFF" stroke-width="4" stroke-miterlimit="10" d="M-992.9,6514.2
				c182.4-228.1,463.1-374.3,777.9-374.3c285,0,542.1,119.8,723.5,311.8C677,6630,780.3,6870.5,780.3,7135.2
				c0,287.8-122.1,547-317.3,728.7c-177.7,165.4-416.1,266.6-678,266.6c-289,0-549.2-123.1-731-319.8
				c-164.1-177.5-264.3-414.8-264.3-675.5C-1210.4,6900.3-1129,6684.4-992.9,6514.2z"/>
			<path fill="none" stroke="#FFFFFF" stroke-width="3" stroke-miterlimit="10" d="M944.3,8830.8c52.3,54.3,84.4,128.2,84.4,209.6
				c0,74.8-27.2,143.2-72.1,196c-55.5,65.1-138,106.3-230.2,106.3c-84.9,0-161.5-35-216.5-91.3c-53.1-54.5-85.9-129-85.9-211.1
				c0-76.5,28.4-146.3,75.2-199.5c55.4-63,136.6-102.8,227.1-102.8C812,8738,889.2,8773.6,944.3,8830.8z"/>
			<path fill="none" stroke="#FFFFFF" stroke-width="4" stroke-miterlimit="10" d="M647,6184.6c-42.8-52.2-68.6-119-68.6-191.7
				c0-87.2,37-165.9,96.1-221c54-50.4,126.5-81.3,206.3-81.3c83.5,0,159.1,33.8,213.8,88.6c54.7,54.7,88.6,130.3,88.6,213.8
				c0,67.4-22.1,129.7-59.4,180c-55.1,74.2-143.4,122.3-242.9,122.3C786.6,6295.2,702.5,6252.1,647,6184.6z"/>
			<path fill="none" stroke="#FFFFFF" stroke-width="4" stroke-miterlimit="10" d="M1396.3,4759.6c-55.5,66.5-139,108.9-232.4,108.9
				c-82,0-156.4-32.7-210.9-85.7c-56.4-54.9-91.4-131.7-91.4-216.6c0-86.6,36.4-164.7,94.7-219.8c54.2-51.2,127.2-82.5,207.6-82.5
				c78.5,0,150.1,30,203.8,79.1c60.5,55.3,98.5,134.8,98.5,223.3C1466.3,4639.8,1440,4707.2,1396.3,4759.6z"/>
			<path fill="none" stroke="#FFFFFF" stroke-width="4" stroke-miterlimit="10" d="M-1121.8,4359.4c55.3-60.1,134.5-97.7,222.5-97.7
				c74.2,0,142.2,26.8,194.8,71.1c65.7,55.5,107.5,138.4,107.5,231.2c0,86-35.9,163.7-93.6,218.7c-54.3,51.8-127.8,83.6-208.7,83.6
				c-98,0-185.2-46.7-240.4-119c-38.8-50.9-61.9-114.4-61.9-183.3C-1201.5,4485.1-1171.3,4413.3-1121.8,4359.4z"/>
			<path fill="none" stroke="#FFFFFF" stroke-width="4" stroke-miterlimit="10" d="M-1819.3,4308.4c54.7-54.7,130.3-88.6,213.8-88.6
				s159.1,33.8,213.8,88.6s88.6,130.3,88.6,213.8c0,83.4-33.8,159-88.5,213.7c-54.7,54.8-130.3,88.6-213.9,88.6
				c-97.7,0-184.6-46.3-239.8-118.2c-39.2-51-62.5-114.8-62.5-184.1C-1907.8,4438.7-1874,4363.2-1819.3,4308.4z"/>
		</g>
	</g>
	<circle fill="none" stroke="#FFAA00" stroke-miterlimit="10" cx="0" cy="0" r="0.7"/>
</g>
<g>
	<g>
		<path fill="none" stroke="#FFFFFF" stroke-width="3" stroke-miterlimit="10" d="M-1170.6,9194.3c1.2,83.5,36.1,158.5,91.5,212.4
			c55.5,54,131.6,86.7,215.1,85.6c83.1-1.2,157.9-35.8,211.8-90.9c54.3-55.5,87.4-131.9,86.2-215.7c-1.2-83.5-36.1-158.6-91.6-212.6
			c-55.5-53.9-131.5-86.6-215-85.4c-83.8,1.2-159.2,36.4-213.2,92.3C-1139.3,9035.4-1171.8,9111.2-1170.6,9194.3z"/>
	</g>
</g>
</svg>
